<svg width="383" height="239" viewBox="0 0 383 239" fill="none" xmlns="http://www.w3.org/2000/svg">
<g filter="url(#filter0_dd)">
<rect x="8" y="5" width="367" height="226" fill="white"/>
</g>
<line x1="8" y1="2.5" x2="375" y2="2.5" stroke="#549EF2" stroke-width="5"/>
<path d="M25.99 38.44C25.99 36.36 26.44 34.51 27.34 32.89C28.24 31.25 29.49 29.98 31.09 29.08C32.71 28.16 34.54 27.7 36.58 27.7C39.08 27.7 41.22 28.36 43 29.68C44.78 31 45.97 32.8 46.57 35.08H40.93C40.51 34.2 39.91 33.53 39.13 33.07C38.37 32.61 37.5 32.38 36.52 32.38C34.94 32.38 33.66 32.93 32.68 34.03C31.7 35.13 31.21 36.6 31.21 38.44C31.21 40.28 31.7 41.75 32.68 42.85C33.66 43.95 34.94 44.5 36.52 44.5C37.5 44.5 38.37 44.27 39.13 43.81C39.91 43.35 40.51 42.68 40.93 41.8H46.57C45.97 44.08 44.78 45.88 43 47.2C41.22 48.5 39.08 49.15 36.58 49.15C34.54 49.15 32.71 48.7 31.09 47.8C29.49 46.88 28.24 45.61 27.34 43.99C26.44 42.37 25.99 40.52 25.99 38.44ZM48.6916 40.6C48.6916 38.88 49.0116 37.37 49.6516 36.07C50.3116 34.77 51.2016 33.77 52.3216 33.07C53.4416 32.37 54.6916 32.02 56.0716 32.02C57.2516 32.02 58.2816 32.26 59.1616 32.74C60.0616 33.22 60.7516 33.85 61.2316 34.63V32.26H66.3616V49H61.2316V46.63C60.7316 47.41 60.0316 48.04 59.1316 48.52C58.2516 49 57.2216 49.24 56.0416 49.24C54.6816 49.24 53.4416 48.89 52.3216 48.19C51.2016 47.47 50.3116 46.46 49.6516 45.16C49.0116 43.84 48.6916 42.32 48.6916 40.6ZM61.2316 40.63C61.2316 39.35 60.8716 38.34 60.1516 37.6C59.4516 36.86 58.5916 36.49 57.5716 36.49C56.5516 36.49 55.6816 36.86 54.9616 37.6C54.2616 38.32 53.9116 39.32 53.9116 40.6C53.9116 41.88 54.2616 42.9 54.9616 43.66C55.6816 44.4 56.5516 44.77 57.5716 44.77C58.5916 44.77 59.4516 44.4 60.1516 43.66C60.8716 42.92 61.2316 41.91 61.2316 40.63ZM75.2029 26.8V49H70.0729V26.8H75.2029ZM77.9005 40.63C77.9005 38.89 78.2505 37.37 78.9505 36.07C79.6705 34.77 80.6605 33.77 81.9205 33.07C83.2005 32.37 84.6605 32.02 86.3005 32.02C88.4005 32.02 90.1505 32.57 91.5505 33.67C92.9705 34.77 93.9005 36.32 94.3405 38.32H88.8805C88.4205 37.04 87.5305 36.4 86.2105 36.4C85.2705 36.4 84.5205 36.77 83.9605 37.51C83.4005 38.23 83.1205 39.27 83.1205 40.63C83.1205 41.99 83.4005 43.04 83.9605 43.78C84.5205 44.5 85.2705 44.86 86.2105 44.86C87.5305 44.86 88.4205 44.22 88.8805 42.94H94.3405C93.9005 44.9 92.9705 46.44 91.5505 47.56C90.1305 48.68 88.3805 49.24 86.3005 49.24C84.6605 49.24 83.2005 48.89 81.9205 48.19C80.6605 47.49 79.6705 46.49 78.9505 45.19C78.2505 43.89 77.9005 42.37 77.9005 40.63ZM113.615 32.26V49H108.485V46.72C107.965 47.46 107.255 48.06 106.355 48.52C105.475 48.96 104.495 49.18 103.415 49.18C102.135 49.18 101.005 48.9 100.025 48.34C99.0446 47.76 98.2846 46.93 97.7446 45.85C97.2046 44.77 96.9346 43.5 96.9346 42.04V32.26H102.035V41.35C102.035 42.47 102.325 43.34 102.905 43.96C103.485 44.58 104.265 44.89 105.245 44.89C106.245 44.89 107.035 44.58 107.615 43.96C108.195 43.34 108.485 42.47 108.485 41.35V32.26H113.615ZM122.429 26.8V49H117.299V26.8H122.429ZM125.127 40.6C125.127 38.88 125.447 37.37 126.087 36.07C126.747 34.77 127.637 33.77 128.757 33.07C129.877 32.37 131.127 32.02 132.507 32.02C133.687 32.02 134.717 32.26 135.597 32.74C136.497 33.22 137.187 33.85 137.667 34.63V32.26H142.797V49H137.667V46.63C137.167 47.41 136.467 48.04 135.567 48.52C134.687 49 133.657 49.24 132.477 49.24C131.117 49.24 129.877 48.89 128.757 48.19C127.637 47.47 126.747 46.46 126.087 45.16C125.447 43.84 125.127 42.32 125.127 40.6ZM137.667 40.63C137.667 39.35 137.307 38.34 136.587 37.6C135.887 36.86 135.027 36.49 134.007 36.49C132.987 36.49 132.117 36.86 131.397 37.6C130.697 38.32 130.347 39.32 130.347 40.6C130.347 41.88 130.697 42.9 131.397 43.66C132.117 44.4 132.987 44.77 134.007 44.77C135.027 44.77 135.887 44.4 136.587 43.66C137.307 42.92 137.667 41.91 137.667 40.63ZM155.838 44.65V49H153.228C151.368 49 149.918 48.55 148.878 47.65C147.838 46.73 147.318 45.24 147.318 43.18V36.52H145.278V32.26H147.318V28.18H152.448V32.26H155.808V36.52H152.448V43.24C152.448 43.74 152.568 44.1 152.808 44.32C153.048 44.54 153.448 44.65 154.008 44.65H155.838ZM166.316 49.24C164.676 49.24 163.196 48.89 161.876 48.19C160.576 47.49 159.546 46.49 158.786 45.19C158.046 43.89 157.676 42.37 157.676 40.63C157.676 38.91 158.056 37.4 158.816 36.1C159.576 34.78 160.616 33.77 161.936 33.07C163.256 32.37 164.736 32.02 166.376 32.02C168.016 32.02 169.496 32.37 170.816 33.07C172.136 33.77 173.176 34.78 173.936 36.1C174.696 37.4 175.076 38.91 175.076 40.63C175.076 42.35 174.686 43.87 173.906 45.19C173.146 46.49 172.096 47.49 170.756 48.19C169.436 48.89 167.956 49.24 166.316 49.24ZM166.316 44.8C167.296 44.8 168.126 44.44 168.806 43.72C169.506 43 169.856 41.97 169.856 40.63C169.856 39.29 169.516 38.26 168.836 37.54C168.176 36.82 167.356 36.46 166.376 36.46C165.376 36.46 164.546 36.82 163.886 37.54C163.226 38.24 162.896 39.27 162.896 40.63C162.896 41.97 163.216 43 163.856 43.72C164.516 44.44 165.336 44.8 166.316 44.8ZM182.928 35.05C183.528 34.13 184.278 33.41 185.178 32.89C186.078 32.35 187.078 32.08 188.178 32.08V37.51H186.768C185.488 37.51 184.528 37.79 183.888 38.35C183.248 38.89 182.928 39.85 182.928 41.23V49H177.798V32.26H182.928V35.05Z" fill="#4C4E61"/>
<path d="M28.384 78.49V86.464C28.384 87.412 28.63 88.126 29.122 88.606C29.626 89.086 30.322 89.326 31.21 89.326C32.11 89.326 32.806 89.086 33.298 88.606C33.802 88.126 34.054 87.412 34.054 86.464V78.49H36.106V86.428C36.106 87.448 35.884 88.312 35.44 89.02C34.996 89.728 34.402 90.256 33.658 90.604C32.914 90.952 32.092 91.126 31.192 91.126C30.292 91.126 29.47 90.952 28.726 90.604C27.994 90.256 27.412 89.728 26.98 89.02C26.548 88.312 26.332 87.448 26.332 86.428V78.49H28.384ZM42.3777 91.162C41.5977 91.162 40.8957 91.024 40.2717 90.748C39.6597 90.46 39.1737 90.076 38.8137 89.596C38.4537 89.104 38.2617 88.558 38.2377 87.958H40.3617C40.3977 88.378 40.5957 88.732 40.9557 89.02C41.3277 89.296 41.7897 89.434 42.3417 89.434C42.9177 89.434 43.3617 89.326 43.6737 89.11C43.9977 88.882 44.1597 88.594 44.1597 88.246C44.1597 87.874 43.9797 87.598 43.6197 87.418C43.2717 87.238 42.7137 87.04 41.9457 86.824C41.2017 86.62 40.5957 86.422 40.1277 86.23C39.6597 86.038 39.2517 85.744 38.9037 85.348C38.5677 84.952 38.3997 84.43 38.3997 83.782C38.3997 83.254 38.5557 82.774 38.8677 82.342C39.1797 81.898 39.6237 81.55 40.1997 81.298C40.7877 81.046 41.4597 80.92 42.2157 80.92C43.3437 80.92 44.2497 81.208 44.9337 81.784C45.6297 82.348 46.0017 83.122 46.0497 84.106H43.9977C43.9617 83.662 43.7817 83.308 43.4577 83.044C43.1337 82.78 42.6957 82.648 42.1437 82.648C41.6037 82.648 41.1897 82.75 40.9017 82.954C40.6137 83.158 40.4697 83.428 40.4697 83.764C40.4697 84.028 40.5657 84.25 40.7577 84.43C40.9497 84.61 41.1837 84.754 41.4597 84.862C41.7357 84.958 42.1437 85.084 42.6837 85.24C43.4037 85.432 43.9917 85.63 44.4477 85.834C44.9157 86.026 45.3177 86.314 45.6537 86.698C45.9897 87.082 46.1637 87.592 46.1757 88.228C46.1757 88.792 46.0197 89.296 45.7077 89.74C45.3957 90.184 44.9517 90.532 44.3757 90.784C43.8117 91.036 43.1457 91.162 42.3777 91.162ZM57.483 85.798C57.483 86.17 57.459 86.506 57.411 86.806H49.833C49.893 87.598 50.187 88.234 50.715 88.714C51.243 89.194 51.891 89.434 52.659 89.434C53.763 89.434 54.543 88.972 54.999 88.048H57.213C56.913 88.96 56.367 89.71 55.575 90.298C54.795 90.874 53.823 91.162 52.659 91.162C51.711 91.162 50.859 90.952 50.103 90.532C49.359 90.1 48.771 89.5 48.339 88.732C47.919 87.952 47.709 87.052 47.709 86.032C47.709 85.012 47.913 84.118 48.321 83.35C48.741 82.57 49.323 81.97 50.067 81.55C50.823 81.13 51.687 80.92 52.659 80.92C53.595 80.92 54.429 81.124 55.161 81.532C55.893 81.94 56.463 82.516 56.871 83.26C57.279 83.992 57.483 84.838 57.483 85.798ZM55.341 85.15C55.329 84.394 55.059 83.788 54.531 83.332C54.003 82.876 53.349 82.648 52.569 82.648C51.861 82.648 51.255 82.876 50.751 83.332C50.247 83.776 49.947 84.382 49.851 85.15H55.341ZM63.1023 91.162C62.3223 91.162 61.6203 91.024 60.9963 90.748C60.3843 90.46 59.8983 90.076 59.5383 89.596C59.1783 89.104 58.9863 88.558 58.9623 87.958H61.0863C61.1223 88.378 61.3203 88.732 61.6803 89.02C62.0523 89.296 62.5143 89.434 63.0663 89.434C63.6423 89.434 64.0863 89.326 64.3983 89.11C64.7223 88.882 64.8843 88.594 64.8843 88.246C64.8843 87.874 64.7043 87.598 64.3443 87.418C63.9963 87.238 63.4383 87.04 62.6703 86.824C61.9263 86.62 61.3203 86.422 60.8523 86.23C60.3843 86.038 59.9763 85.744 59.6283 85.348C59.2923 84.952 59.1243 84.43 59.1243 83.782C59.1243 83.254 59.2803 82.774 59.5923 82.342C59.9043 81.898 60.3483 81.55 60.9243 81.298C61.5123 81.046 62.1843 80.92 62.9403 80.92C64.0683 80.92 64.9743 81.208 65.6583 81.784C66.3543 82.348 66.7263 83.122 66.7743 84.106H64.7223C64.6863 83.662 64.5063 83.308 64.1823 83.044C63.8583 82.78 63.4203 82.648 62.8683 82.648C62.3283 82.648 61.9143 82.75 61.6263 82.954C61.3383 83.158 61.1943 83.428 61.1943 83.764C61.1943 84.028 61.2903 84.25 61.4823 84.43C61.6743 84.61 61.9083 84.754 62.1843 84.862C62.4603 84.958 62.8683 85.084 63.4083 85.24C64.1283 85.432 64.7163 85.63 65.1723 85.834C65.6403 86.026 66.0423 86.314 66.3783 86.698C66.7143 87.082 66.8883 87.592 66.9003 88.228C66.9003 88.792 66.7443 89.296 66.4323 89.74C66.1203 90.184 65.6763 90.532 65.1003 90.784C64.5363 91.036 63.8703 91.162 63.1023 91.162ZM73.1094 85.996C73.1094 85 73.3134 84.118 73.7214 83.35C74.1414 82.582 74.7054 81.988 75.4134 81.568C76.1334 81.136 76.9314 80.92 77.8074 80.92C78.4554 80.92 79.0914 81.064 79.7154 81.352C80.3514 81.628 80.8554 82 81.2274 82.468V77.68H83.2974V91H81.2274V89.506C80.8914 89.986 80.4234 90.382 79.8234 90.694C79.2354 91.006 78.5574 91.162 77.7894 91.162C76.9254 91.162 76.1334 90.946 75.4134 90.514C74.7054 90.07 74.1414 89.458 73.7214 88.678C73.3134 87.886 73.1094 86.992 73.1094 85.996ZM81.2274 86.032C81.2274 85.348 81.0834 84.754 80.7954 84.25C80.5194 83.746 80.1534 83.362 79.6974 83.098C79.2414 82.834 78.7494 82.702 78.2214 82.702C77.6934 82.702 77.2014 82.834 76.7454 83.098C76.2894 83.35 75.9174 83.728 75.6294 84.232C75.3534 84.724 75.2154 85.312 75.2154 85.996C75.2154 86.68 75.3534 87.28 75.6294 87.796C75.9174 88.312 76.2894 88.708 76.7454 88.984C77.2134 89.248 77.7054 89.38 78.2214 89.38C78.7494 89.38 79.2414 89.248 79.6974 88.984C80.1534 88.72 80.5194 88.336 80.7954 87.832C81.0834 87.316 81.2274 86.716 81.2274 86.032ZM85.3086 85.996C85.3086 85 85.5126 84.118 85.9206 83.35C86.3406 82.582 86.9046 81.988 87.6126 81.568C88.3326 81.136 89.1246 80.92 89.9886 80.92C90.7686 80.92 91.4466 81.076 92.0226 81.388C92.6106 81.688 93.0786 82.066 93.4266 82.522V81.082H95.4966V91H93.4266V89.524C93.0786 89.992 92.6046 90.382 92.0046 90.694C91.4046 91.006 90.7206 91.162 89.9526 91.162C89.1006 91.162 88.3206 90.946 87.6126 90.514C86.9046 90.07 86.3406 89.458 85.9206 88.678C85.5126 87.886 85.3086 86.992 85.3086 85.996ZM93.4266 86.032C93.4266 85.348 93.2826 84.754 92.9946 84.25C92.7186 83.746 92.3526 83.362 91.8966 83.098C91.4406 82.834 90.9486 82.702 90.4206 82.702C89.8926 82.702 89.4006 82.834 88.9446 83.098C88.4886 83.35 88.1166 83.728 87.8286 84.232C87.5526 84.724 87.4146 85.312 87.4146 85.996C87.4146 86.68 87.5526 87.28 87.8286 87.796C88.1166 88.312 88.4886 88.708 88.9446 88.984C89.4126 89.248 89.9046 89.38 90.4206 89.38C90.9486 89.38 91.4406 89.248 91.8966 88.984C92.3526 88.72 92.7186 88.336 92.9946 87.832C93.2826 87.316 93.4266 86.716 93.4266 86.032ZM100.586 82.756V88.246C100.586 88.618 100.67 88.888 100.838 89.056C101.018 89.212 101.318 89.29 101.738 89.29H102.998V91H101.378C100.454 91 99.7458 90.784 99.2538 90.352C98.7618 89.92 98.5158 89.218 98.5158 88.246V82.756H97.3458V81.082H98.5158V78.616H100.586V81.082H102.998V82.756H100.586ZM104.205 85.996C104.205 85 104.409 84.118 104.817 83.35C105.237 82.582 105.801 81.988 106.509 81.568C107.229 81.136 108.021 80.92 108.885 80.92C109.665 80.92 110.343 81.076 110.919 81.388C111.507 81.688 111.975 82.066 112.323 82.522V81.082H114.393V91H112.323V89.524C111.975 89.992 111.501 90.382 110.901 90.694C110.301 91.006 109.617 91.162 108.849 91.162C107.997 91.162 107.217 90.946 106.509 90.514C105.801 90.07 105.237 89.458 104.817 88.678C104.409 87.886 104.205 86.992 104.205 85.996ZM112.323 86.032C112.323 85.348 112.179 84.754 111.891 84.25C111.615 83.746 111.249 83.362 110.793 83.098C110.337 82.834 109.845 82.702 109.317 82.702C108.789 82.702 108.297 82.834 107.841 83.098C107.385 83.35 107.013 83.728 106.725 84.232C106.449 84.724 106.311 85.312 106.311 85.996C106.311 86.68 106.449 87.28 106.725 87.796C107.013 88.312 107.385 88.708 107.841 88.984C108.309 89.248 108.801 89.38 109.317 89.38C109.845 89.38 110.337 89.248 110.793 88.984C111.249 88.72 111.615 88.336 111.891 87.832C112.179 87.316 112.323 86.716 112.323 86.032ZM125.922 82.756H124.086V91H122.016V82.756H120.846V81.082H122.016V80.38C122.016 79.24 122.316 78.412 122.916 77.896C123.528 77.368 124.482 77.104 125.778 77.104V78.814C125.154 78.814 124.716 78.934 124.464 79.174C124.212 79.402 124.086 79.804 124.086 80.38V81.082H125.922V82.756ZM129.793 82.522C130.093 82.018 130.489 81.628 130.981 81.352C131.485 81.064 132.079 80.92 132.763 80.92V83.044H132.241C131.437 83.044 130.825 83.248 130.405 83.656C129.997 84.064 129.793 84.772 129.793 85.78V91H127.741V81.082H129.793V82.522ZM138.951 91.162C138.015 91.162 137.169 90.952 136.413 90.532C135.657 90.1 135.063 89.5 134.631 88.732C134.199 87.952 133.983 87.052 133.983 86.032C133.983 85.024 134.205 84.13 134.649 83.35C135.093 82.57 135.699 81.97 136.467 81.55C137.235 81.13 138.093 80.92 139.041 80.92C139.989 80.92 140.847 81.13 141.615 81.55C142.383 81.97 142.989 82.57 143.433 83.35C143.877 84.13 144.099 85.024 144.099 86.032C144.099 87.04 143.871 87.934 143.415 88.714C142.959 89.494 142.335 90.1 141.543 90.532C140.763 90.952 139.899 91.162 138.951 91.162ZM138.951 89.38C139.479 89.38 139.971 89.254 140.427 89.002C140.895 88.75 141.273 88.372 141.561 87.868C141.849 87.364 141.993 86.752 141.993 86.032C141.993 85.312 141.855 84.706 141.579 84.214C141.303 83.71 140.937 83.332 140.481 83.08C140.025 82.828 139.533 82.702 139.005 82.702C138.477 82.702 137.985 82.828 137.529 83.08C137.085 83.332 136.731 83.71 136.467 84.214C136.203 84.706 136.071 85.312 136.071 86.032C136.071 87.1 136.341 87.928 136.881 88.516C137.433 89.092 138.123 89.38 138.951 89.38ZM158.133 80.92C158.913 80.92 159.609 81.082 160.221 81.406C160.845 81.73 161.331 82.21 161.679 82.846C162.039 83.482 162.219 84.25 162.219 85.15V91H160.185V85.456C160.185 84.568 159.963 83.89 159.519 83.422C159.075 82.942 158.469 82.702 157.701 82.702C156.933 82.702 156.321 82.942 155.865 83.422C155.421 83.89 155.199 84.568 155.199 85.456V91H153.165V85.456C153.165 84.568 152.943 83.89 152.499 83.422C152.055 82.942 151.449 82.702 150.681 82.702C149.913 82.702 149.301 82.942 148.845 83.422C148.401 83.89 148.179 84.568 148.179 85.456V91H146.127V81.082H148.179V82.216C148.515 81.808 148.941 81.49 149.457 81.262C149.973 81.034 150.525 80.92 151.113 80.92C151.905 80.92 152.613 81.088 153.237 81.424C153.861 81.76 154.341 82.246 154.677 82.882C154.977 82.282 155.445 81.808 156.081 81.46C156.717 81.1 157.401 80.92 158.133 80.92ZM171.558 82.54C171.906 82.084 172.38 81.7 172.98 81.388C173.58 81.076 174.258 80.92 175.014 80.92C175.878 80.92 176.664 81.136 177.372 81.568C178.092 81.988 178.656 82.582 179.064 83.35C179.472 84.118 179.676 85 179.676 85.996C179.676 86.992 179.472 87.886 179.064 88.678C178.656 89.458 178.092 90.07 177.372 90.514C176.664 90.946 175.878 91.162 175.014 91.162C174.258 91.162 173.586 91.012 172.998 90.712C172.41 90.4 171.93 90.016 171.558 89.56V95.716H169.506V81.082H171.558V82.54ZM177.588 85.996C177.588 85.312 177.444 84.724 177.156 84.232C176.88 83.728 176.508 83.35 176.04 83.098C175.584 82.834 175.092 82.702 174.564 82.702C174.048 82.702 173.556 82.834 173.088 83.098C172.632 83.362 172.26 83.746 171.972 84.25C171.696 84.754 171.558 85.348 171.558 86.032C171.558 86.716 171.696 87.316 171.972 87.832C172.26 88.336 172.632 88.72 173.088 88.984C173.556 89.248 174.048 89.38 174.564 89.38C175.092 89.38 175.584 89.248 176.04 88.984C176.508 88.708 176.88 88.312 177.156 87.796C177.444 87.28 177.588 86.68 177.588 85.996ZM181.021 85.996C181.021 85 181.225 84.118 181.633 83.35C182.053 82.582 182.617 81.988 183.325 81.568C184.045 81.136 184.837 80.92 185.701 80.92C186.481 80.92 187.159 81.076 187.735 81.388C188.323 81.688 188.791 82.066 189.139 82.522V81.082H191.209V91H189.139V89.524C188.791 89.992 188.317 90.382 187.717 90.694C187.117 91.006 186.433 91.162 185.665 91.162C184.813 91.162 184.033 90.946 183.325 90.514C182.617 90.07 182.053 89.458 181.633 88.678C181.225 87.886 181.021 86.992 181.021 85.996ZM189.139 86.032C189.139 85.348 188.995 84.754 188.707 84.25C188.431 83.746 188.065 83.362 187.609 83.098C187.153 82.834 186.661 82.702 186.133 82.702C185.605 82.702 185.113 82.834 184.657 83.098C184.201 83.35 183.829 83.728 183.541 84.232C183.265 84.724 183.127 85.312 183.127 85.996C183.127 86.68 183.265 87.28 183.541 87.796C183.829 88.312 184.201 88.708 184.657 88.984C185.125 89.248 185.617 89.38 186.133 89.38C186.661 89.38 187.153 89.248 187.609 88.984C188.065 88.72 188.431 88.336 188.707 87.832C188.995 87.316 189.139 86.716 189.139 86.032ZM197.505 91.162C196.725 91.162 196.023 91.024 195.399 90.748C194.787 90.46 194.301 90.076 193.941 89.596C193.581 89.104 193.389 88.558 193.365 87.958H195.489C195.525 88.378 195.723 88.732 196.083 89.02C196.455 89.296 196.917 89.434 197.469 89.434C198.045 89.434 198.489 89.326 198.801 89.11C199.125 88.882 199.287 88.594 199.287 88.246C199.287 87.874 199.107 87.598 198.747 87.418C198.399 87.238 197.841 87.04 197.073 86.824C196.329 86.62 195.723 86.422 195.255 86.23C194.787 86.038 194.379 85.744 194.031 85.348C193.695 84.952 193.527 84.43 193.527 83.782C193.527 83.254 193.683 82.774 193.995 82.342C194.307 81.898 194.751 81.55 195.327 81.298C195.915 81.046 196.587 80.92 197.343 80.92C198.471 80.92 199.377 81.208 200.061 81.784C200.757 82.348 201.129 83.122 201.177 84.106H199.125C199.089 83.662 198.909 83.308 198.585 83.044C198.261 82.78 197.823 82.648 197.271 82.648C196.731 82.648 196.317 82.75 196.029 82.954C195.741 83.158 195.597 83.428 195.597 83.764C195.597 84.028 195.693 84.25 195.885 84.43C196.077 84.61 196.311 84.754 196.587 84.862C196.863 84.958 197.271 85.084 197.811 85.24C198.531 85.432 199.119 85.63 199.575 85.834C200.043 86.026 200.445 86.314 200.781 86.698C201.117 87.082 201.291 87.592 201.303 88.228C201.303 88.792 201.147 89.296 200.835 89.74C200.523 90.184 200.079 90.532 199.503 90.784C198.939 91.036 198.273 91.162 197.505 91.162ZM205.914 82.756V88.246C205.914 88.618 205.998 88.888 206.166 89.056C206.346 89.212 206.646 89.29 207.066 89.29H208.326V91H206.706C205.782 91 205.074 90.784 204.582 90.352C204.09 89.92 203.844 89.218 203.844 88.246V82.756H202.674V81.082H203.844V78.616H205.914V81.082H208.326V82.756H205.914ZM216.945 82.54C217.293 82.084 217.767 81.7 218.367 81.388C218.967 81.076 219.645 80.92 220.401 80.92C221.265 80.92 222.051 81.136 222.759 81.568C223.479 81.988 224.043 82.582 224.451 83.35C224.859 84.118 225.063 85 225.063 85.996C225.063 86.992 224.859 87.886 224.451 88.678C224.043 89.458 223.479 90.07 222.759 90.514C222.051 90.946 221.265 91.162 220.401 91.162C219.645 91.162 218.973 91.012 218.385 90.712C217.797 90.4 217.317 90.016 216.945 89.56V95.716H214.893V81.082H216.945V82.54ZM222.975 85.996C222.975 85.312 222.831 84.724 222.543 84.232C222.267 83.728 221.895 83.35 221.427 83.098C220.971 82.834 220.479 82.702 219.951 82.702C219.435 82.702 218.943 82.834 218.475 83.098C218.019 83.362 217.647 83.746 217.359 84.25C217.083 84.754 216.945 85.348 216.945 86.032C216.945 86.716 217.083 87.316 217.359 87.832C217.647 88.336 218.019 88.72 218.475 88.984C218.943 89.248 219.435 89.38 219.951 89.38C220.479 89.38 220.971 89.248 221.427 88.984C221.895 88.708 222.267 88.312 222.543 87.796C222.831 87.28 222.975 86.68 222.975 85.996ZM229.144 82.522C229.444 82.018 229.84 81.628 230.332 81.352C230.836 81.064 231.43 80.92 232.114 80.92V83.044H231.592C230.788 83.044 230.176 83.248 229.756 83.656C229.348 84.064 229.144 84.772 229.144 85.78V91H227.092V81.082H229.144V82.522ZM238.302 91.162C237.366 91.162 236.52 90.952 235.764 90.532C235.008 90.1 234.414 89.5 233.982 88.732C233.55 87.952 233.334 87.052 233.334 86.032C233.334 85.024 233.556 84.13 234 83.35C234.444 82.57 235.05 81.97 235.818 81.55C236.586 81.13 237.444 80.92 238.392 80.92C239.34 80.92 240.198 81.13 240.966 81.55C241.734 81.97 242.34 82.57 242.784 83.35C243.228 84.13 243.45 85.024 243.45 86.032C243.45 87.04 243.222 87.934 242.766 88.714C242.31 89.494 241.686 90.1 240.894 90.532C240.114 90.952 239.25 91.162 238.302 91.162ZM238.302 89.38C238.83 89.38 239.322 89.254 239.778 89.002C240.246 88.75 240.624 88.372 240.912 87.868C241.2 87.364 241.344 86.752 241.344 86.032C241.344 85.312 241.206 84.706 240.93 84.214C240.654 83.71 240.288 83.332 239.832 83.08C239.376 82.828 238.884 82.702 238.356 82.702C237.828 82.702 237.336 82.828 236.88 83.08C236.436 83.332 236.082 83.71 235.818 84.214C235.554 84.706 235.422 85.312 235.422 86.032C235.422 87.1 235.692 87.928 236.232 88.516C236.784 89.092 237.474 89.38 238.302 89.38ZM246.523 79.768C246.151 79.768 245.839 79.642 245.587 79.39C245.335 79.138 245.209 78.826 245.209 78.454C245.209 78.082 245.335 77.77 245.587 77.518C245.839 77.266 246.151 77.14 246.523 77.14C246.883 77.14 247.189 77.266 247.441 77.518C247.693 77.77 247.819 78.082 247.819 78.454C247.819 78.826 247.693 79.138 247.441 79.39C247.189 79.642 246.883 79.768 246.523 79.768ZM247.531 92.944C247.531 93.916 247.285 94.618 246.793 95.05C246.313 95.494 245.611 95.716 244.687 95.716H243.625V93.988H244.327C244.747 93.988 245.041 93.904 245.209 93.736C245.389 93.58 245.479 93.316 245.479 92.944V81.082H247.531V92.944ZM259.315 85.798C259.315 86.17 259.291 86.506 259.243 86.806H251.665C251.725 87.598 252.019 88.234 252.547 88.714C253.075 89.194 253.723 89.434 254.491 89.434C255.595 89.434 256.375 88.972 256.831 88.048H259.045C258.745 88.96 258.199 89.71 257.407 90.298C256.627 90.874 255.655 91.162 254.491 91.162C253.543 91.162 252.691 90.952 251.935 90.532C251.191 90.1 250.603 89.5 250.171 88.732C249.751 87.952 249.541 87.052 249.541 86.032C249.541 85.012 249.745 84.118 250.153 83.35C250.573 82.57 251.155 81.97 251.899 81.55C252.655 81.13 253.519 80.92 254.491 80.92C255.427 80.92 256.261 81.124 256.993 81.532C257.725 81.94 258.295 82.516 258.703 83.26C259.111 83.992 259.315 84.838 259.315 85.798ZM257.173 85.15C257.161 84.394 256.891 83.788 256.363 83.332C255.835 82.876 255.181 82.648 254.401 82.648C253.693 82.648 253.087 82.876 252.583 83.332C252.079 83.776 251.779 84.382 251.683 85.15H257.173ZM260.65 86.032C260.65 85.012 260.854 84.118 261.262 83.35C261.682 82.57 262.258 81.97 262.99 81.55C263.722 81.13 264.562 80.92 265.51 80.92C266.71 80.92 267.7 81.208 268.48 81.784C269.272 82.348 269.806 83.158 270.082 84.214H267.868C267.688 83.722 267.4 83.338 267.004 83.062C266.608 82.786 266.11 82.648 265.51 82.648C264.67 82.648 263.998 82.948 263.494 83.548C263.002 84.136 262.756 84.964 262.756 86.032C262.756 87.1 263.002 87.934 263.494 88.534C263.998 89.134 264.67 89.434 265.51 89.434C266.698 89.434 267.484 88.912 267.868 87.868H270.082C269.794 88.876 269.254 89.68 268.462 90.28C267.67 90.868 266.686 91.162 265.51 91.162C264.562 91.162 263.722 90.952 262.99 90.532C262.258 90.1 261.682 89.5 261.262 88.732C260.854 87.952 260.65 87.052 260.65 86.032ZM274.521 82.756V88.246C274.521 88.618 274.605 88.888 274.773 89.056C274.953 89.212 275.253 89.29 275.673 89.29H276.933V91H275.313C274.389 91 273.681 90.784 273.189 90.352C272.697 89.92 272.451 89.218 272.451 88.246V82.756H271.281V81.082H272.451V78.616H274.521V81.082H276.933V82.756H274.521ZM282.425 91.162C281.645 91.162 280.943 91.024 280.319 90.748C279.707 90.46 279.221 90.076 278.861 89.596C278.501 89.104 278.309 88.558 278.285 87.958H280.409C280.445 88.378 280.643 88.732 281.003 89.02C281.375 89.296 281.837 89.434 282.389 89.434C282.965 89.434 283.409 89.326 283.721 89.11C284.045 88.882 284.207 88.594 284.207 88.246C284.207 87.874 284.027 87.598 283.667 87.418C283.319 87.238 282.761 87.04 281.993 86.824C281.249 86.62 280.643 86.422 280.175 86.23C279.707 86.038 279.299 85.744 278.951 85.348C278.615 84.952 278.447 84.43 278.447 83.782C278.447 83.254 278.603 82.774 278.915 82.342C279.227 81.898 279.671 81.55 280.247 81.298C280.835 81.046 281.507 80.92 282.263 80.92C283.391 80.92 284.297 81.208 284.981 81.784C285.677 82.348 286.049 83.122 286.097 84.106H284.045C284.009 83.662 283.829 83.308 283.505 83.044C283.181 82.78 282.743 82.648 282.191 82.648C281.651 82.648 281.237 82.75 280.949 82.954C280.661 83.158 280.517 83.428 280.517 83.764C280.517 84.028 280.613 84.25 280.805 84.43C280.997 84.61 281.231 84.754 281.507 84.862C281.783 84.958 282.191 85.084 282.731 85.24C283.451 85.432 284.039 85.63 284.495 85.834C284.963 86.026 285.365 86.314 285.701 86.698C286.037 87.082 286.211 87.592 286.223 88.228C286.223 88.792 286.067 89.296 285.755 89.74C285.443 90.184 284.999 90.532 284.423 90.784C283.859 91.036 283.193 91.162 282.425 91.162ZM295.51 82.756V88.246C295.51 88.618 295.594 88.888 295.762 89.056C295.942 89.212 296.242 89.29 296.662 89.29H297.922V91H296.302C295.378 91 294.67 90.784 294.178 90.352C293.686 89.92 293.44 89.218 293.44 88.246V82.756H292.27V81.082H293.44V78.616H295.51V81.082H297.922V82.756H295.51ZM304.115 91.162C303.179 91.162 302.333 90.952 301.577 90.532C300.821 90.1 300.227 89.5 299.795 88.732C299.363 87.952 299.147 87.052 299.147 86.032C299.147 85.024 299.369 84.13 299.813 83.35C300.257 82.57 300.863 81.97 301.631 81.55C302.399 81.13 303.257 80.92 304.205 80.92C305.153 80.92 306.011 81.13 306.779 81.55C307.547 81.97 308.153 82.57 308.597 83.35C309.041 84.13 309.263 85.024 309.263 86.032C309.263 87.04 309.035 87.934 308.579 88.714C308.123 89.494 307.499 90.1 306.707 90.532C305.927 90.952 305.063 91.162 304.115 91.162ZM304.115 89.38C304.643 89.38 305.135 89.254 305.591 89.002C306.059 88.75 306.437 88.372 306.725 87.868C307.013 87.364 307.157 86.752 307.157 86.032C307.157 85.312 307.019 84.706 306.743 84.214C306.467 83.71 306.101 83.332 305.645 83.08C305.189 82.828 304.697 82.702 304.169 82.702C303.641 82.702 303.149 82.828 302.693 83.08C302.249 83.332 301.895 83.71 301.631 84.214C301.367 84.706 301.235 85.312 301.235 86.032C301.235 87.1 301.505 87.928 302.045 88.516C302.597 89.092 303.287 89.38 304.115 89.38ZM28.402 109.54C28.75 109.084 29.224 108.7 29.824 108.388C30.424 108.076 31.102 107.92 31.858 107.92C32.722 107.92 33.508 108.136 34.216 108.568C34.936 108.988 35.5 109.582 35.908 110.35C36.316 111.118 36.52 112 36.52 112.996C36.52 113.992 36.316 114.886 35.908 115.678C35.5 116.458 34.936 117.07 34.216 117.514C33.508 117.946 32.722 118.162 31.858 118.162C31.102 118.162 30.43 118.012 29.842 117.712C29.254 117.4 28.774 117.016 28.402 116.56V122.716H26.35V108.082H28.402V109.54ZM34.432 112.996C34.432 112.312 34.288 111.724 34 111.232C33.724 110.728 33.352 110.35 32.884 110.098C32.428 109.834 31.936 109.702 31.408 109.702C30.892 109.702 30.4 109.834 29.932 110.098C29.476 110.362 29.104 110.746 28.816 111.25C28.54 111.754 28.402 112.348 28.402 113.032C28.402 113.716 28.54 114.316 28.816 114.832C29.104 115.336 29.476 115.72 29.932 115.984C30.4 116.248 30.892 116.38 31.408 116.38C31.936 116.38 32.428 116.248 32.884 115.984C33.352 115.708 33.724 115.312 34 114.796C34.288 114.28 34.432 113.68 34.432 112.996ZM40.6012 109.522C40.9012 109.018 41.2972 108.628 41.7892 108.352C42.2932 108.064 42.8872 107.92 43.5712 107.92V110.044H43.0492C42.2452 110.044 41.6332 110.248 41.2132 110.656C40.8052 111.064 40.6012 111.772 40.6012 112.78V118H38.5492V108.082H40.6012V109.522ZM49.7594 118.162C48.8234 118.162 47.9774 117.952 47.2214 117.532C46.4654 117.1 45.8714 116.5 45.4394 115.732C45.0074 114.952 44.7914 114.052 44.7914 113.032C44.7914 112.024 45.0134 111.13 45.4574 110.35C45.9014 109.57 46.5074 108.97 47.2754 108.55C48.0434 108.13 48.9014 107.92 49.8494 107.92C50.7974 107.92 51.6554 108.13 52.4234 108.55C53.1914 108.97 53.7974 109.57 54.2414 110.35C54.6854 111.13 54.9074 112.024 54.9074 113.032C54.9074 114.04 54.6794 114.934 54.2234 115.714C53.7674 116.494 53.1434 117.1 52.3514 117.532C51.5714 117.952 50.7074 118.162 49.7594 118.162ZM49.7594 116.38C50.2874 116.38 50.7794 116.254 51.2354 116.002C51.7034 115.75 52.0814 115.372 52.3694 114.868C52.6574 114.364 52.8014 113.752 52.8014 113.032C52.8014 112.312 52.6634 111.706 52.3874 111.214C52.1114 110.71 51.7454 110.332 51.2894 110.08C50.8334 109.828 50.3414 109.702 49.8134 109.702C49.2854 109.702 48.7934 109.828 48.3374 110.08C47.8934 110.332 47.5394 110.71 47.2754 111.214C47.0114 111.706 46.8794 112.312 46.8794 113.032C46.8794 114.1 47.1494 114.928 47.6894 115.516C48.2414 116.092 48.9314 116.38 49.7594 116.38ZM60.7699 116.164L63.5779 108.082H65.7559L61.9759 118H59.5279L55.7659 108.082H57.9619L60.7699 116.164ZM68.351 106.768C67.979 106.768 67.667 106.642 67.415 106.39C67.163 106.138 67.037 105.826 67.037 105.454C67.037 105.082 67.163 104.77 67.415 104.518C67.667 104.266 67.979 104.14 68.351 104.14C68.711 104.14 69.017 104.266 69.269 104.518C69.521 104.77 69.647 105.082 69.647 105.454C69.647 105.826 69.521 106.138 69.269 106.39C69.017 106.642 68.711 106.768 68.351 106.768ZM69.359 108.082V118H67.307V108.082H69.359ZM71.3691 112.996C71.3691 112 71.5731 111.118 71.9811 110.35C72.4011 109.582 72.9651 108.988 73.6731 108.568C74.3931 108.136 75.1911 107.92 76.0671 107.92C76.7151 107.92 77.3511 108.064 77.9751 108.352C78.6111 108.628 79.1151 109 79.4871 109.468V104.68H81.5571V118H79.4871V116.506C79.1511 116.986 78.6831 117.382 78.0831 117.694C77.4951 118.006 76.8171 118.162 76.0491 118.162C75.1851 118.162 74.3931 117.946 73.6731 117.514C72.9651 117.07 72.4011 116.458 71.9811 115.678C71.5731 114.886 71.3691 113.992 71.3691 112.996ZM79.4871 113.032C79.4871 112.348 79.3431 111.754 79.0551 111.25C78.7791 110.746 78.4131 110.362 77.9571 110.098C77.5011 109.834 77.0091 109.702 76.4811 109.702C75.9531 109.702 75.4611 109.834 75.0051 110.098C74.5491 110.35 74.1771 110.728 73.8891 111.232C73.6131 111.724 73.4751 112.312 73.4751 112.996C73.4751 113.68 73.6131 114.28 73.8891 114.796C74.1771 115.312 74.5491 115.708 75.0051 115.984C75.4731 116.248 75.9651 116.38 76.4811 116.38C77.0091 116.38 77.5011 116.248 77.9571 115.984C78.4131 115.72 78.7791 115.336 79.0551 114.832C79.3431 114.316 79.4871 113.716 79.4871 113.032ZM93.3423 112.798C93.3423 113.17 93.3183 113.506 93.2703 113.806H85.6923C85.7523 114.598 86.0463 115.234 86.5743 115.714C87.1023 116.194 87.7503 116.434 88.5183 116.434C89.6223 116.434 90.4023 115.972 90.8583 115.048H93.0723C92.7723 115.96 92.2263 116.71 91.4343 117.298C90.6543 117.874 89.6823 118.162 88.5183 118.162C87.5703 118.162 86.7183 117.952 85.9623 117.532C85.2183 117.1 84.6303 116.5 84.1983 115.732C83.7783 114.952 83.5683 114.052 83.5683 113.032C83.5683 112.012 83.7723 111.118 84.1803 110.35C84.6003 109.57 85.1823 108.97 85.9263 108.55C86.6823 108.13 87.5463 107.92 88.5183 107.92C89.4543 107.92 90.2883 108.124 91.0203 108.532C91.7523 108.94 92.3223 109.516 92.7303 110.26C93.1383 110.992 93.3423 111.838 93.3423 112.798ZM91.2003 112.15C91.1883 111.394 90.9183 110.788 90.3903 110.332C89.8623 109.876 89.2083 109.648 88.4283 109.648C87.7203 109.648 87.1143 109.876 86.6103 110.332C86.1063 110.776 85.8063 111.382 85.7103 112.15H91.2003ZM102.09 109.558C102.438 109.078 102.912 108.688 103.512 108.388C104.124 108.076 104.802 107.92 105.546 107.92C106.422 107.92 107.214 108.13 107.922 108.55C108.63 108.97 109.188 109.57 109.596 110.35C110.004 111.118 110.208 112 110.208 112.996C110.208 113.992 110.004 114.886 109.596 115.678C109.188 116.458 108.624 117.07 107.904 117.514C107.196 117.946 106.41 118.162 105.546 118.162C104.778 118.162 104.094 118.012 103.494 117.712C102.906 117.412 102.438 117.028 102.09 116.56V118H100.038V104.68H102.09V109.558ZM108.12 112.996C108.12 112.312 107.976 111.724 107.688 111.232C107.412 110.728 107.04 110.35 106.572 110.098C106.116 109.834 105.624 109.702 105.096 109.702C104.58 109.702 104.088 109.834 103.62 110.098C103.164 110.362 102.792 110.746 102.504 111.25C102.228 111.754 102.09 112.348 102.09 113.032C102.09 113.716 102.228 114.316 102.504 114.832C102.792 115.336 103.164 115.72 103.62 115.984C104.088 116.248 104.58 116.38 105.096 116.38C105.624 116.38 106.116 116.248 106.572 115.984C107.04 115.708 107.412 115.312 107.688 114.796C107.976 114.28 108.12 113.68 108.12 112.996ZM121.327 112.798C121.327 113.17 121.303 113.506 121.255 113.806H113.677C113.737 114.598 114.031 115.234 114.559 115.714C115.087 116.194 115.735 116.434 116.503 116.434C117.607 116.434 118.387 115.972 118.843 115.048H121.057C120.757 115.96 120.211 116.71 119.419 117.298C118.639 117.874 117.667 118.162 116.503 118.162C115.555 118.162 114.703 117.952 113.947 117.532C113.203 117.1 112.615 116.5 112.183 115.732C111.763 114.952 111.553 114.052 111.553 113.032C111.553 112.012 111.757 111.118 112.165 110.35C112.585 109.57 113.167 108.97 113.911 108.55C114.667 108.13 115.531 107.92 116.503 107.92C117.439 107.92 118.273 108.124 119.005 108.532C119.737 108.94 120.307 109.516 120.715 110.26C121.123 110.992 121.327 111.838 121.327 112.798ZM119.185 112.15C119.173 111.394 118.903 110.788 118.375 110.332C117.847 109.876 117.193 109.648 116.413 109.648C115.705 109.648 115.099 109.876 114.595 110.332C114.091 110.776 113.791 111.382 113.695 112.15H119.185ZM125.74 109.756V115.246C125.74 115.618 125.824 115.888 125.992 116.056C126.172 116.212 126.472 116.29 126.892 116.29H128.152V118H126.532C125.608 118 124.9 117.784 124.408 117.352C123.916 116.92 123.67 116.218 123.67 115.246V109.756H122.5V108.082H123.67V105.616H125.74V108.082H128.152V109.756H125.74ZM132.437 109.756V115.246C132.437 115.618 132.521 115.888 132.689 116.056C132.869 116.212 133.169 116.29 133.589 116.29H134.849V118H133.229C132.305 118 131.597 117.784 131.105 117.352C130.613 116.92 130.367 116.218 130.367 115.246V109.756H129.197V108.082H130.367V105.616H132.437V108.082H134.849V109.756H132.437ZM145.831 112.798C145.831 113.17 145.807 113.506 145.759 113.806H138.181C138.241 114.598 138.535 115.234 139.063 115.714C139.591 116.194 140.239 116.434 141.007 116.434C142.111 116.434 142.891 115.972 143.347 115.048H145.561C145.261 115.96 144.715 116.71 143.923 117.298C143.143 117.874 142.171 118.162 141.007 118.162C140.059 118.162 139.207 117.952 138.451 117.532C137.707 117.1 137.119 116.5 136.687 115.732C136.267 114.952 136.057 114.052 136.057 113.032C136.057 112.012 136.261 111.118 136.669 110.35C137.089 109.57 137.671 108.97 138.415 108.55C139.171 108.13 140.035 107.92 141.007 107.92C141.943 107.92 142.777 108.124 143.509 108.532C144.241 108.94 144.811 109.516 145.219 110.26C145.627 110.992 145.831 111.838 145.831 112.798ZM143.689 112.15C143.677 111.394 143.407 110.788 142.879 110.332C142.351 109.876 141.697 109.648 140.917 109.648C140.209 109.648 139.603 109.876 139.099 110.332C138.595 110.776 138.295 111.382 138.199 112.15H143.689ZM149.902 109.522C150.202 109.018 150.598 108.628 151.09 108.352C151.594 108.064 152.188 107.92 152.872 107.92V110.044H152.35C151.546 110.044 150.934 110.248 150.514 110.656C150.106 111.064 149.902 111.772 149.902 112.78V118H147.85V108.082H149.902V109.522ZM158.75 112.996C158.75 112 158.954 111.118 159.362 110.35C159.782 109.582 160.346 108.988 161.054 108.568C161.774 108.136 162.572 107.92 163.448 107.92C164.096 107.92 164.732 108.064 165.356 108.352C165.992 108.628 166.496 109 166.868 109.468V104.68H168.938V118H166.868V116.506C166.532 116.986 166.064 117.382 165.464 117.694C164.876 118.006 164.198 118.162 163.43 118.162C162.566 118.162 161.774 117.946 161.054 117.514C160.346 117.07 159.782 116.458 159.362 115.678C158.954 114.886 158.75 113.992 158.75 112.996ZM166.868 113.032C166.868 112.348 166.724 111.754 166.436 111.25C166.16 110.746 165.794 110.362 165.338 110.098C164.882 109.834 164.39 109.702 163.862 109.702C163.334 109.702 162.842 109.834 162.386 110.098C161.93 110.35 161.558 110.728 161.27 111.232C160.994 111.724 160.856 112.312 160.856 112.996C160.856 113.68 160.994 114.28 161.27 114.796C161.558 115.312 161.93 115.708 162.386 115.984C162.854 116.248 163.346 116.38 163.862 116.38C164.39 116.38 164.882 116.248 165.338 115.984C165.794 115.72 166.16 115.336 166.436 114.832C166.724 114.316 166.868 113.716 166.868 113.032ZM180.723 112.798C180.723 113.17 180.699 113.506 180.651 113.806H173.073C173.133 114.598 173.427 115.234 173.955 115.714C174.483 116.194 175.131 116.434 175.899 116.434C177.003 116.434 177.783 115.972 178.239 115.048H180.453C180.153 115.96 179.607 116.71 178.815 117.298C178.035 117.874 177.063 118.162 175.899 118.162C174.951 118.162 174.099 117.952 173.343 117.532C172.599 117.1 172.011 116.5 171.579 115.732C171.159 114.952 170.949 114.052 170.949 113.032C170.949 112.012 171.153 111.118 171.561 110.35C171.981 109.57 172.563 108.97 173.307 108.55C174.063 108.13 174.927 107.92 175.899 107.92C176.835 107.92 177.669 108.124 178.401 108.532C179.133 108.94 179.703 109.516 180.111 110.26C180.519 110.992 180.723 111.838 180.723 112.798ZM178.581 112.15C178.569 111.394 178.299 110.788 177.771 110.332C177.243 109.876 176.589 109.648 175.809 109.648C175.101 109.648 174.495 109.876 173.991 110.332C173.487 110.776 173.187 111.382 173.091 112.15H178.581ZM184.795 104.68V118H182.743V104.68H184.795ZM188.533 106.768C188.161 106.768 187.849 106.642 187.597 106.39C187.345 106.138 187.219 105.826 187.219 105.454C187.219 105.082 187.345 104.77 187.597 104.518C187.849 104.266 188.161 104.14 188.533 104.14C188.893 104.14 189.199 104.266 189.451 104.518C189.703 104.77 189.829 105.082 189.829 105.454C189.829 105.826 189.703 106.138 189.451 106.39C189.199 106.642 188.893 106.768 188.533 106.768ZM189.541 108.082V118H187.489V108.082H189.541ZM196.069 116.164L198.877 108.082H201.055L197.275 118H194.827L191.065 108.082H193.261L196.069 116.164ZM211.696 112.798C211.696 113.17 211.672 113.506 211.624 113.806H204.046C204.106 114.598 204.4 115.234 204.928 115.714C205.456 116.194 206.104 116.434 206.872 116.434C207.976 116.434 208.756 115.972 209.212 115.048H211.426C211.126 115.96 210.58 116.71 209.788 117.298C209.008 117.874 208.036 118.162 206.872 118.162C205.924 118.162 205.072 117.952 204.316 117.532C203.572 117.1 202.984 116.5 202.552 115.732C202.132 114.952 201.922 114.052 201.922 113.032C201.922 112.012 202.126 111.118 202.534 110.35C202.954 109.57 203.536 108.97 204.28 108.55C205.036 108.13 205.9 107.92 206.872 107.92C207.808 107.92 208.642 108.124 209.374 108.532C210.106 108.94 210.676 109.516 211.084 110.26C211.492 110.992 211.696 111.838 211.696 112.798ZM209.554 112.15C209.542 111.394 209.272 110.788 208.744 110.332C208.216 109.876 207.562 109.648 206.782 109.648C206.074 109.648 205.468 109.876 204.964 110.332C204.46 110.776 204.16 111.382 204.064 112.15H209.554ZM215.767 109.522C216.067 109.018 216.463 108.628 216.955 108.352C217.459 108.064 218.053 107.92 218.737 107.92V110.044H218.215C217.411 110.044 216.799 110.248 216.379 110.656C215.971 111.064 215.767 111.772 215.767 112.78V118H213.715V108.082H215.767V109.522ZM229.551 108.082L223.467 122.662H221.343L223.359 117.838L219.453 108.082H221.739L224.529 115.642L227.427 108.082H229.551ZM244.866 112.798C244.866 113.17 244.842 113.506 244.794 113.806H237.216C237.276 114.598 237.57 115.234 238.098 115.714C238.626 116.194 239.274 116.434 240.042 116.434C241.146 116.434 241.926 115.972 242.382 115.048H244.596C244.296 115.96 243.75 116.71 242.958 117.298C242.178 117.874 241.206 118.162 240.042 118.162C239.094 118.162 238.242 117.952 237.486 117.532C236.742 117.1 236.154 116.5 235.722 115.732C235.302 114.952 235.092 114.052 235.092 113.032C235.092 112.012 235.296 111.118 235.704 110.35C236.124 109.57 236.706 108.97 237.45 108.55C238.206 108.13 239.07 107.92 240.042 107.92C240.978 107.92 241.812 108.124 242.544 108.532C243.276 108.94 243.846 109.516 244.254 110.26C244.662 110.992 244.866 111.838 244.866 112.798ZM242.724 112.15C242.712 111.394 242.442 110.788 241.914 110.332C241.386 109.876 240.732 109.648 239.952 109.648C239.244 109.648 238.638 109.876 238.134 110.332C237.63 110.776 237.33 111.382 237.234 112.15H242.724ZM250.485 118.162C249.705 118.162 249.003 118.024 248.379 117.748C247.767 117.46 247.281 117.076 246.921 116.596C246.561 116.104 246.369 115.558 246.345 114.958H248.469C248.505 115.378 248.703 115.732 249.063 116.02C249.435 116.296 249.897 116.434 250.449 116.434C251.025 116.434 251.469 116.326 251.781 116.11C252.105 115.882 252.267 115.594 252.267 115.246C252.267 114.874 252.087 114.598 251.727 114.418C251.379 114.238 250.821 114.04 250.053 113.824C249.309 113.62 248.703 113.422 248.235 113.23C247.767 113.038 247.359 112.744 247.011 112.348C246.675 111.952 246.507 111.43 246.507 110.782C246.507 110.254 246.663 109.774 246.975 109.342C247.287 108.898 247.731 108.55 248.307 108.298C248.895 108.046 249.567 107.92 250.323 107.92C251.451 107.92 252.357 108.208 253.041 108.784C253.737 109.348 254.109 110.122 254.157 111.106H252.105C252.069 110.662 251.889 110.308 251.565 110.044C251.241 109.78 250.803 109.648 250.251 109.648C249.711 109.648 249.297 109.75 249.009 109.954C248.721 110.158 248.577 110.428 248.577 110.764C248.577 111.028 248.673 111.25 248.865 111.43C249.057 111.61 249.291 111.754 249.567 111.862C249.843 111.958 250.251 112.084 250.791 112.24C251.511 112.432 252.099 112.63 252.555 112.834C253.023 113.026 253.425 113.314 253.761 113.698C254.097 114.082 254.271 114.592 254.283 115.228C254.283 115.792 254.127 116.296 253.815 116.74C253.503 117.184 253.059 117.532 252.483 117.784C251.919 118.036 251.253 118.162 250.485 118.162ZM258.894 109.756V115.246C258.894 115.618 258.978 115.888 259.146 116.056C259.326 116.212 259.626 116.29 260.046 116.29H261.306V118H259.686C258.762 118 258.054 117.784 257.562 117.352C257.07 116.92 256.824 116.218 256.824 115.246V109.756H255.654V108.082H256.824V105.616H258.894V108.082H261.306V109.756H258.894ZM264.242 106.768C263.87 106.768 263.558 106.642 263.306 106.39C263.054 106.138 262.928 105.826 262.928 105.454C262.928 105.082 263.054 104.77 263.306 104.518C263.558 104.266 263.87 104.14 264.242 104.14C264.602 104.14 264.908 104.266 265.16 104.518C265.412 104.77 265.538 105.082 265.538 105.454C265.538 105.826 265.412 106.138 265.16 106.39C264.908 106.642 264.602 106.768 264.242 106.768ZM265.25 108.082V118H263.198V108.082H265.25ZM279.95 107.92C280.73 107.92 281.426 108.082 282.038 108.406C282.662 108.73 283.148 109.21 283.496 109.846C283.856 110.482 284.036 111.25 284.036 112.15V118H282.002V112.456C282.002 111.568 281.78 110.89 281.336 110.422C280.892 109.942 280.286 109.702 279.518 109.702C278.75 109.702 278.138 109.942 277.682 110.422C277.238 110.89 277.016 111.568 277.016 112.456V118H274.982V112.456C274.982 111.568 274.76 110.89 274.316 110.422C273.872 109.942 273.266 109.702 272.498 109.702C271.73 109.702 271.118 109.942 270.662 110.422C270.218 110.89 269.996 111.568 269.996 112.456V118H267.944V108.082H269.996V109.216C270.332 108.808 270.758 108.49 271.274 108.262C271.79 108.034 272.342 107.92 272.93 107.92C273.722 107.92 274.43 108.088 275.054 108.424C275.678 108.76 276.158 109.246 276.494 109.882C276.794 109.282 277.262 108.808 277.898 108.46C278.534 108.1 279.218 107.92 279.95 107.92ZM285.963 112.996C285.963 112 286.167 111.118 286.575 110.35C286.995 109.582 287.559 108.988 288.267 108.568C288.987 108.136 289.779 107.92 290.643 107.92C291.423 107.92 292.101 108.076 292.677 108.388C293.265 108.688 293.733 109.066 294.081 109.522V108.082H296.151V118H294.081V116.524C293.733 116.992 293.259 117.382 292.659 117.694C292.059 118.006 291.375 118.162 290.607 118.162C289.755 118.162 288.975 117.946 288.267 117.514C287.559 117.07 286.995 116.458 286.575 115.678C286.167 114.886 285.963 113.992 285.963 112.996ZM294.081 113.032C294.081 112.348 293.937 111.754 293.649 111.25C293.373 110.746 293.007 110.362 292.551 110.098C292.095 109.834 291.603 109.702 291.075 109.702C290.547 109.702 290.055 109.834 289.599 110.098C289.143 110.35 288.771 110.728 288.483 111.232C288.207 111.724 288.069 112.312 288.069 112.996C288.069 113.68 288.207 114.28 288.483 114.796C288.771 115.312 289.143 115.708 289.599 115.984C290.067 116.248 290.559 116.38 291.075 116.38C291.603 116.38 292.095 116.248 292.551 115.984C293.007 115.72 293.373 115.336 293.649 114.832C293.937 114.316 294.081 113.716 294.081 113.032ZM301.24 109.756V115.246C301.24 115.618 301.324 115.888 301.492 116.056C301.672 116.212 301.972 116.29 302.392 116.29H303.652V118H302.032C301.108 118 300.4 117.784 299.908 117.352C299.416 116.92 299.17 116.218 299.17 115.246V109.756H298V108.082H299.17V105.616H301.24V108.082H303.652V109.756H301.24ZM314.633 112.798C314.633 113.17 314.609 113.506 314.561 113.806H306.983C307.043 114.598 307.337 115.234 307.865 115.714C308.393 116.194 309.041 116.434 309.809 116.434C310.913 116.434 311.693 115.972 312.149 115.048H314.363C314.063 115.96 313.517 116.71 312.725 117.298C311.945 117.874 310.973 118.162 309.809 118.162C308.861 118.162 308.009 117.952 307.253 117.532C306.509 117.1 305.921 116.5 305.489 115.732C305.069 114.952 304.859 114.052 304.859 113.032C304.859 112.012 305.063 111.118 305.471 110.35C305.891 109.57 306.473 108.97 307.217 108.55C307.973 108.13 308.837 107.92 309.809 107.92C310.745 107.92 311.579 108.124 312.311 108.532C313.043 108.94 313.613 109.516 314.021 110.26C314.429 110.992 314.633 111.838 314.633 112.798ZM312.491 112.15C312.479 111.394 312.209 110.788 311.681 110.332C311.153 109.876 310.499 109.648 309.719 109.648C309.011 109.648 308.405 109.876 307.901 110.332C307.397 110.776 307.097 111.382 307.001 112.15H312.491ZM320.253 118.162C319.473 118.162 318.771 118.024 318.147 117.748C317.535 117.46 317.049 117.076 316.689 116.596C316.329 116.104 316.137 115.558 316.113 114.958H318.237C318.273 115.378 318.471 115.732 318.831 116.02C319.203 116.296 319.665 116.434 320.217 116.434C320.793 116.434 321.237 116.326 321.549 116.11C321.873 115.882 322.035 115.594 322.035 115.246C322.035 114.874 321.855 114.598 321.495 114.418C321.147 114.238 320.589 114.04 319.821 113.824C319.077 113.62 318.471 113.422 318.003 113.23C317.535 113.038 317.127 112.744 316.779 112.348C316.443 111.952 316.275 111.43 316.275 110.782C316.275 110.254 316.431 109.774 316.743 109.342C317.055 108.898 317.499 108.55 318.075 108.298C318.663 108.046 319.335 107.92 320.091 107.92C321.219 107.92 322.125 108.208 322.809 108.784C323.505 109.348 323.877 110.122 323.925 111.106H321.873C321.837 110.662 321.657 110.308 321.333 110.044C321.009 109.78 320.571 109.648 320.019 109.648C319.479 109.648 319.065 109.75 318.777 109.954C318.489 110.158 318.345 110.428 318.345 110.764C318.345 111.028 318.441 111.25 318.633 111.43C318.825 111.61 319.059 111.754 319.335 111.862C319.611 111.958 320.019 112.084 320.559 112.24C321.279 112.432 321.867 112.63 322.323 112.834C322.791 113.026 323.193 113.314 323.529 113.698C323.865 114.082 324.039 114.592 324.051 115.228C324.051 115.792 323.895 116.296 323.583 116.74C323.271 117.184 322.827 117.532 322.251 117.784C321.687 118.036 321.021 118.162 320.253 118.162Z" fill="#A3A5AE"/>
<path d="M358 153V194.25L354.25 198.125H297.75L294 194.25V153H358Z" fill="#474F54"/>
<path d="M358 153V194.25L354.25 198.125H326V153H358Z" fill="#32393F"/>
<path d="M316.625 203.875H335.375V215.125H316.625V203.875Z" fill="#DADAE5"/>
<path d="M326 203.875H335.375V215.125H326V203.875Z" fill="#C9C9D3"/>
<path d="M294 194.25H358V205.75H294V194.25Z" fill="#EFEFF4"/>
<path d="M326 194.25H358V205.75H326V194.25Z" fill="#DADAE5"/>
<path d="M309.125 213.25H342.875V217H309.125V213.25Z" fill="#EFEFF4"/>
<path d="M326 213.25H342.875V217H326V213.25Z" fill="#DADAE5"/>
<path d="M314.75 160.5C307.514 160.5 301.625 166.389 301.625 173.625C301.625 180.861 307.514 186.75 314.75 186.75C321.986 186.75 327.875 180.861 327.875 173.625C327.875 166.389 321.986 160.5 314.75 160.5ZM314.75 179.25C313.259 179.248 311.829 178.655 310.774 177.601C309.72 176.546 309.127 175.116 309.125 173.625C309.127 172.134 309.72 170.704 310.774 169.649C311.829 168.595 313.259 168.002 314.75 168C316.241 168.002 317.671 168.595 318.726 169.649C319.78 170.704 320.373 172.134 320.375 173.625C320.373 175.116 319.78 176.546 318.726 177.601C317.671 178.655 316.241 179.248 314.75 179.25Z" fill="#549EF2"/>
<path d="M339.125 160.5H350.5V164.25H339.125V160.5ZM331.625 160.5H335.375V164.25H331.625V160.5ZM339.125 175.5H350.5V179.25H339.125V175.5ZM331.625 175.5H335.375V179.25H331.625V175.5ZM331.625 168H350.5V171.75H331.625V168ZM331.625 183H350.5V186.75H331.625V183Z" fill="#377FD2"/>
<defs>
<filter id="filter0_dd" x="0" y="5" width="383" height="234" filterUnits="userSpaceOnUse" color-interpolation-filters="sRGB">
<feFlood flood-opacity="0" result="BackgroundImageFix"/>
<feColorMatrix in="SourceAlpha" type="matrix" values="0 0 0 0 0 0 0 0 0 0 0 0 0 0 0 0 0 0 127 0"/>
<feOffset dx="4" dy="4"/>
<feGaussianBlur stdDeviation="2"/>
<feColorMatrix type="matrix" values="0 0 0 0 0 0 0 0 0 0 0 0 0 0 0 0 0 0 0.25 0"/>
<feBlend mode="normal" in2="BackgroundImageFix" result="effect1_dropShadow"/>
<feColorMatrix in="SourceAlpha" type="matrix" values="0 0 0 0 0 0 0 0 0 0 0 0 0 0 0 0 0 0 127 0"/>
<feOffset dx="-4" dy="4"/>
<feGaussianBlur stdDeviation="2"/>
<feColorMatrix type="matrix" values="0 0 0 0 0 0 0 0 0 0 0 0 0 0 0 0 0 0 0.25 0"/>
<feBlend mode="normal" in2="effect1_dropShadow" result="effect2_dropShadow"/>
<feBlend mode="normal" in="SourceGraphic" in2="effect2_dropShadow" result="shape"/>
</filter>
</defs>
</svg>
