<svg width="383" height="239" viewBox="0 0 383 239" fill="none" xmlns="http://www.w3.org/2000/svg">
<g filter="url(#filter0_dd)">
<rect x="8" y="5" width="367" height="226" fill="white"/>
</g>
<line x1="8" y1="2.5" x2="375" y2="2.5" stroke="#FCAF4A" stroke-width="5"/>
<path d="M39.07 49L31.99 39.7V49H26.86V27.94H31.99V37.18L39.01 27.94H45.04L36.88 38.26L45.34 49H39.07ZM46.758 40.6C46.758 38.88 47.078 37.37 47.718 36.07C48.378 34.77 49.268 33.77 50.388 33.07C51.508 32.37 52.758 32.02 54.138 32.02C55.318 32.02 56.348 32.26 57.228 32.74C58.128 33.22 58.818 33.85 59.298 34.63V32.26H64.428V49H59.298V46.63C58.798 47.41 58.098 48.04 57.198 48.52C56.318 49 55.288 49.24 54.108 49.24C52.748 49.24 51.508 48.89 50.388 48.19C49.268 47.47 48.378 46.46 47.718 45.16C47.078 43.84 46.758 42.32 46.758 40.6ZM59.298 40.63C59.298 39.35 58.938 38.34 58.218 37.6C57.518 36.86 56.658 36.49 55.638 36.49C54.618 36.49 53.748 36.86 53.028 37.6C52.328 38.32 51.978 39.32 51.978 40.6C51.978 41.88 52.328 42.9 53.028 43.66C53.748 44.4 54.618 44.77 55.638 44.77C56.658 44.77 57.518 44.4 58.218 43.66C58.938 42.92 59.298 41.91 59.298 40.63ZM73.2693 35.05C73.8693 34.13 74.6193 33.41 75.5193 32.89C76.4193 32.35 77.4193 32.08 78.5193 32.08V37.51H77.1093C75.8293 37.51 74.8693 37.79 74.2293 38.35C73.5893 38.89 73.2693 39.85 73.2693 41.23V49H68.1393V32.26H73.2693V35.05ZM102.331 32.08C104.411 32.08 106.061 32.71 107.281 33.97C108.521 35.23 109.141 36.98 109.141 39.22V49H104.041V39.91C104.041 38.83 103.751 38 103.171 37.42C102.611 36.82 101.831 36.52 100.831 36.52C99.8313 36.52 99.0413 36.82 98.4613 37.42C97.9013 38 97.6213 38.83 97.6213 39.91V49H92.5213V39.91C92.5213 38.83 92.2313 38 91.6513 37.42C91.0913 36.82 90.3113 36.52 89.3113 36.52C88.3113 36.52 87.5213 36.82 86.9413 37.42C86.3813 38 86.1013 38.83 86.1013 39.91V49H80.9713V32.26H86.1013V34.36C86.6213 33.66 87.3013 33.11 88.1413 32.71C88.9813 32.29 89.9313 32.08 90.9913 32.08C92.2513 32.08 93.3713 32.35 94.3513 32.89C95.3513 33.43 96.1313 34.2 96.6913 35.2C97.2713 34.28 98.0613 33.53 99.0613 32.95C100.061 32.37 101.151 32.08 102.331 32.08ZM111.709 40.6C111.709 38.88 112.029 37.37 112.669 36.07C113.329 34.77 114.219 33.77 115.339 33.07C116.459 32.37 117.709 32.02 119.089 32.02C120.269 32.02 121.299 32.26 122.179 32.74C123.079 33.22 123.769 33.85 124.249 34.63V32.26H129.379V49H124.249V46.63C123.749 47.41 123.049 48.04 122.149 48.52C121.269 49 120.239 49.24 119.059 49.24C117.699 49.24 116.459 48.89 115.339 48.19C114.219 47.47 113.329 46.46 112.669 45.16C112.029 43.84 111.709 42.32 111.709 40.6ZM124.249 40.63C124.249 39.35 123.889 38.34 123.169 37.6C122.469 36.86 121.609 36.49 120.589 36.49C119.569 36.49 118.699 36.86 117.979 37.6C117.279 38.32 116.929 39.32 116.929 40.6C116.929 41.88 117.279 42.9 117.979 43.66C118.699 44.4 119.569 44.77 120.589 44.77C121.609 44.77 122.469 44.4 123.169 43.66C123.889 42.92 124.249 41.91 124.249 40.63Z" fill="#4C4E61"/>
<path d="M32.848 91L29.968 85.996H28.402V91H26.35V78.49H30.67C31.63 78.49 32.44 78.658 33.1 78.994C33.772 79.33 34.27 79.78 34.594 80.344C34.93 80.908 35.098 81.538 35.098 82.234C35.098 83.05 34.858 83.794 34.378 84.466C33.91 85.126 33.184 85.576 32.2 85.816L35.296 91H32.848ZM28.402 84.358H30.67C31.438 84.358 32.014 84.166 32.398 83.782C32.794 83.398 32.992 82.882 32.992 82.234C32.992 81.586 32.8 81.082 32.416 80.722C32.032 80.35 31.45 80.164 30.67 80.164H28.402V84.358ZM46.813 85.798C46.813 86.17 46.789 86.506 46.741 86.806H39.163C39.223 87.598 39.517 88.234 40.045 88.714C40.573 89.194 41.221 89.434 41.989 89.434C43.093 89.434 43.873 88.972 44.329 88.048H46.543C46.243 88.96 45.697 89.71 44.905 90.298C44.125 90.874 43.153 91.162 41.989 91.162C41.041 91.162 40.189 90.952 39.433 90.532C38.689 90.1 38.101 89.5 37.669 88.732C37.249 87.952 37.039 87.052 37.039 86.032C37.039 85.012 37.243 84.118 37.651 83.35C38.071 82.57 38.653 81.97 39.397 81.55C40.153 81.13 41.017 80.92 41.989 80.92C42.925 80.92 43.759 81.124 44.491 81.532C45.223 81.94 45.793 82.516 46.201 83.26C46.609 83.992 46.813 84.838 46.813 85.798ZM44.671 85.15C44.659 84.394 44.389 83.788 43.861 83.332C43.333 82.876 42.679 82.648 41.899 82.648C41.191 82.648 40.585 82.876 40.081 83.332C39.577 83.776 39.277 84.382 39.181 85.15H44.671ZM52.8284 80.92C53.5964 80.92 54.2744 81.076 54.8624 81.388C55.4624 81.688 55.9304 82.066 56.2664 82.522V81.082H58.3364V91.162C58.3364 92.074 58.1444 92.884 57.7604 93.592C57.3764 94.312 56.8184 94.876 56.0864 95.284C55.3664 95.692 54.5024 95.896 53.4944 95.896C52.1504 95.896 51.0344 95.578 50.1464 94.942C49.2584 94.318 48.7544 93.466 48.6344 92.386H50.6684C50.8244 92.902 51.1544 93.316 51.6584 93.628C52.1744 93.952 52.7864 94.114 53.4944 94.114C54.3224 94.114 54.9884 93.862 55.4924 93.358C56.0084 92.854 56.2664 92.122 56.2664 91.162V89.506C55.9184 89.974 55.4444 90.37 54.8444 90.694C54.2564 91.006 53.5844 91.162 52.8284 91.162C51.9644 91.162 51.1724 90.946 50.4524 90.514C49.7444 90.07 49.1804 89.458 48.7604 88.678C48.3524 87.886 48.1484 86.992 48.1484 85.996C48.1484 85 48.3524 84.118 48.7604 83.35C49.1804 82.582 49.7444 81.988 50.4524 81.568C51.1724 81.136 51.9644 80.92 52.8284 80.92ZM56.2664 86.032C56.2664 85.348 56.1224 84.754 55.8344 84.25C55.5584 83.746 55.1924 83.362 54.7364 83.098C54.2804 82.834 53.7884 82.702 53.2604 82.702C52.7324 82.702 52.2404 82.834 51.7844 83.098C51.3284 83.35 50.9564 83.728 50.6684 84.232C50.3924 84.724 50.2544 85.312 50.2544 85.996C50.2544 86.68 50.3924 87.28 50.6684 87.796C50.9564 88.312 51.3284 88.708 51.7844 88.984C52.2524 89.248 52.7444 89.38 53.2604 89.38C53.7884 89.38 54.2804 89.248 54.7364 88.984C55.1924 88.72 55.5584 88.336 55.8344 87.832C56.1224 87.316 56.2664 86.716 56.2664 86.032ZM70.0136 81.082V91H67.9616V89.83C67.6376 90.238 67.2116 90.562 66.6836 90.802C66.1676 91.03 65.6156 91.144 65.0276 91.144C64.2476 91.144 63.5456 90.982 62.9216 90.658C62.3096 90.334 61.8236 89.854 61.4636 89.218C61.1156 88.582 60.9416 87.814 60.9416 86.914V81.082H62.9756V86.608C62.9756 87.496 63.1976 88.18 63.6416 88.66C64.0856 89.128 64.6916 89.362 65.4596 89.362C66.2276 89.362 66.8336 89.128 67.2776 88.66C67.7336 88.18 67.9616 87.496 67.9616 86.608V81.082H70.0136ZM74.7731 77.68V91H72.7211V77.68H74.7731ZM76.7832 85.996C76.7832 85 76.9872 84.118 77.3952 83.35C77.8152 82.582 78.3792 81.988 79.0872 81.568C79.8072 81.136 80.5992 80.92 81.4632 80.92C82.2432 80.92 82.9212 81.076 83.4972 81.388C84.0852 81.688 84.5532 82.066 84.9012 82.522V81.082H86.9712V91H84.9012V89.524C84.5532 89.992 84.0792 90.382 83.4792 90.694C82.8792 91.006 82.1952 91.162 81.4272 91.162C80.5752 91.162 79.7952 90.946 79.0872 90.514C78.3792 90.07 77.8152 89.458 77.3952 88.678C76.9872 87.886 76.7832 86.992 76.7832 85.996ZM84.9012 86.032C84.9012 85.348 84.7572 84.754 84.4692 84.25C84.1932 83.746 83.8272 83.362 83.3712 83.098C82.9152 82.834 82.4232 82.702 81.8952 82.702C81.3672 82.702 80.8752 82.834 80.4192 83.098C79.9632 83.35 79.5912 83.728 79.3032 84.232C79.0272 84.724 78.8892 85.312 78.8892 85.996C78.8892 86.68 79.0272 87.28 79.3032 87.796C79.5912 88.312 79.9632 88.708 80.4192 88.984C80.8872 89.248 81.3792 89.38 81.8952 89.38C82.4232 89.38 82.9152 89.248 83.3712 88.984C83.8272 88.72 84.1932 88.336 84.4692 87.832C84.7572 87.316 84.9012 86.716 84.9012 86.032ZM91.7184 82.522C92.0184 82.018 92.4144 81.628 92.9064 81.352C93.4104 81.064 94.0044 80.92 94.6884 80.92V83.044H94.1664C93.3624 83.044 92.7504 83.248 92.3304 83.656C91.9224 84.064 91.7184 84.772 91.7184 85.78V91H89.6664V81.082H91.7184V82.522ZM98.6266 77.68V91H96.5746V77.68H98.6266ZM110.249 81.082L104.165 95.662H102.041L104.057 90.838L100.151 81.082H102.437L105.227 88.642L108.125 81.082H110.249ZM125.563 85.798C125.563 86.17 125.539 86.506 125.491 86.806H117.913C117.973 87.598 118.267 88.234 118.795 88.714C119.323 89.194 119.971 89.434 120.739 89.434C121.843 89.434 122.623 88.972 123.079 88.048H125.293C124.993 88.96 124.447 89.71 123.655 90.298C122.875 90.874 121.903 91.162 120.739 91.162C119.791 91.162 118.939 90.952 118.183 90.532C117.439 90.1 116.851 89.5 116.419 88.732C115.999 87.952 115.789 87.052 115.789 86.032C115.789 85.012 115.993 84.118 116.401 83.35C116.821 82.57 117.403 81.97 118.147 81.55C118.903 81.13 119.767 80.92 120.739 80.92C121.675 80.92 122.509 81.124 123.241 81.532C123.973 81.94 124.543 82.516 124.951 83.26C125.359 83.992 125.563 84.838 125.563 85.798ZM123.421 85.15C123.409 84.394 123.139 83.788 122.611 83.332C122.083 82.876 121.429 82.648 120.649 82.648C119.941 82.648 119.335 82.876 118.831 83.332C118.327 83.776 118.027 84.382 117.931 85.15H123.421ZM131.416 89.164L134.224 81.082H136.402L132.622 91H130.174L126.412 81.082H128.608L131.416 89.164ZM137.27 85.996C137.27 85 137.474 84.118 137.882 83.35C138.302 82.582 138.866 81.988 139.574 81.568C140.294 81.136 141.086 80.92 141.95 80.92C142.73 80.92 143.408 81.076 143.984 81.388C144.572 81.688 145.04 82.066 145.388 82.522V81.082H147.458V91H145.388V89.524C145.04 89.992 144.566 90.382 143.966 90.694C143.366 91.006 142.682 91.162 141.914 91.162C141.062 91.162 140.282 90.946 139.574 90.514C138.866 90.07 138.302 89.458 137.882 88.678C137.474 87.886 137.27 86.992 137.27 85.996ZM145.388 86.032C145.388 85.348 145.244 84.754 144.956 84.25C144.68 83.746 144.314 83.362 143.858 83.098C143.402 82.834 142.91 82.702 142.382 82.702C141.854 82.702 141.362 82.834 140.906 83.098C140.45 83.35 140.078 83.728 139.79 84.232C139.514 84.724 139.376 85.312 139.376 85.996C139.376 86.68 139.514 87.28 139.79 87.796C140.078 88.312 140.45 88.708 140.906 88.984C141.374 89.248 141.866 89.38 142.382 89.38C142.91 89.38 143.402 89.248 143.858 88.984C144.314 88.72 144.68 88.336 144.956 87.832C145.244 87.316 145.388 86.716 145.388 86.032ZM152.205 77.68V91H150.153V77.68H152.205ZM163.881 81.082V91H161.829V89.83C161.505 90.238 161.079 90.562 160.551 90.802C160.035 91.03 159.483 91.144 158.895 91.144C158.115 91.144 157.413 90.982 156.789 90.658C156.177 90.334 155.691 89.854 155.331 89.218C154.983 88.582 154.809 87.814 154.809 86.914V81.082H156.843V86.608C156.843 87.496 157.065 88.18 157.509 88.66C157.953 89.128 158.559 89.362 159.327 89.362C160.095 89.362 160.701 89.128 161.145 88.66C161.601 88.18 161.829 87.496 161.829 86.608V81.082H163.881ZM165.904 85.996C165.904 85 166.108 84.118 166.516 83.35C166.936 82.582 167.5 81.988 168.208 81.568C168.928 81.136 169.72 80.92 170.584 80.92C171.364 80.92 172.042 81.076 172.618 81.388C173.206 81.688 173.674 82.066 174.022 82.522V81.082H176.092V91H174.022V89.524C173.674 89.992 173.2 90.382 172.6 90.694C172 91.006 171.316 91.162 170.548 91.162C169.696 91.162 168.916 90.946 168.208 90.514C167.5 90.07 166.936 89.458 166.516 88.678C166.108 87.886 165.904 86.992 165.904 85.996ZM174.022 86.032C174.022 85.348 173.878 84.754 173.59 84.25C173.314 83.746 172.948 83.362 172.492 83.098C172.036 82.834 171.544 82.702 171.016 82.702C170.488 82.702 169.996 82.834 169.54 83.098C169.084 83.35 168.712 83.728 168.424 84.232C168.148 84.724 168.01 85.312 168.01 85.996C168.01 86.68 168.148 87.28 168.424 87.796C168.712 88.312 169.084 88.708 169.54 88.984C170.008 89.248 170.5 89.38 171.016 89.38C171.544 89.38 172.036 89.248 172.492 88.984C172.948 88.72 173.314 88.336 173.59 87.832C173.878 87.316 174.022 86.716 174.022 86.032ZM181.182 82.756V88.246C181.182 88.618 181.266 88.888 181.434 89.056C181.614 89.212 181.914 89.29 182.334 89.29H183.594V91H181.974C181.05 91 180.342 90.784 179.85 90.352C179.358 89.92 179.112 89.218 179.112 88.246V82.756H177.942V81.082H179.112V78.616H181.182V81.082H183.594V82.756H181.182ZM194.575 85.798C194.575 86.17 194.551 86.506 194.503 86.806H186.925C186.985 87.598 187.279 88.234 187.807 88.714C188.335 89.194 188.983 89.434 189.751 89.434C190.855 89.434 191.635 88.972 192.091 88.048H194.305C194.005 88.96 193.459 89.71 192.667 90.298C191.887 90.874 190.915 91.162 189.751 91.162C188.803 91.162 187.951 90.952 187.195 90.532C186.451 90.1 185.863 89.5 185.431 88.732C185.011 87.952 184.801 87.052 184.801 86.032C184.801 85.012 185.005 84.118 185.413 83.35C185.833 82.57 186.415 81.97 187.159 81.55C187.915 81.13 188.779 80.92 189.751 80.92C190.687 80.92 191.521 81.124 192.253 81.532C192.985 81.94 193.555 82.516 193.963 83.26C194.371 83.992 194.575 84.838 194.575 85.798ZM192.433 85.15C192.421 84.394 192.151 83.788 191.623 83.332C191.095 82.876 190.441 82.648 189.661 82.648C188.953 82.648 188.347 82.876 187.843 83.332C187.339 83.776 187.039 84.382 186.943 85.15H192.433ZM200.194 91.162C199.414 91.162 198.712 91.024 198.088 90.748C197.476 90.46 196.99 90.076 196.63 89.596C196.27 89.104 196.078 88.558 196.054 87.958H198.178C198.214 88.378 198.412 88.732 198.772 89.02C199.144 89.296 199.606 89.434 200.158 89.434C200.734 89.434 201.178 89.326 201.49 89.11C201.814 88.882 201.976 88.594 201.976 88.246C201.976 87.874 201.796 87.598 201.436 87.418C201.088 87.238 200.53 87.04 199.762 86.824C199.018 86.62 198.412 86.422 197.944 86.23C197.476 86.038 197.068 85.744 196.72 85.348C196.384 84.952 196.216 84.43 196.216 83.782C196.216 83.254 196.372 82.774 196.684 82.342C196.996 81.898 197.44 81.55 198.016 81.298C198.604 81.046 199.276 80.92 200.032 80.92C201.16 80.92 202.066 81.208 202.75 81.784C203.446 82.348 203.818 83.122 203.866 84.106H201.814C201.778 83.662 201.598 83.308 201.274 83.044C200.95 82.78 200.512 82.648 199.96 82.648C199.42 82.648 199.006 82.75 198.718 82.954C198.43 83.158 198.286 83.428 198.286 83.764C198.286 84.028 198.382 84.25 198.574 84.43C198.766 84.61 199 84.754 199.276 84.862C199.552 84.958 199.96 85.084 200.5 85.24C201.22 85.432 201.808 85.63 202.264 85.834C202.732 86.026 203.134 86.314 203.47 86.698C203.806 87.082 203.98 87.592 203.992 88.228C203.992 88.792 203.836 89.296 203.524 89.74C203.212 90.184 202.768 90.532 202.192 90.784C201.628 91.036 200.962 91.162 200.194 91.162ZM215.187 91.162C214.251 91.162 213.405 90.952 212.649 90.532C211.893 90.1 211.299 89.5 210.867 88.732C210.435 87.952 210.219 87.052 210.219 86.032C210.219 85.024 210.441 84.13 210.885 83.35C211.329 82.57 211.935 81.97 212.703 81.55C213.471 81.13 214.329 80.92 215.277 80.92C216.225 80.92 217.083 81.13 217.851 81.55C218.619 81.97 219.225 82.57 219.669 83.35C220.113 84.13 220.335 85.024 220.335 86.032C220.335 87.04 220.107 87.934 219.651 88.714C219.195 89.494 218.571 90.1 217.779 90.532C216.999 90.952 216.135 91.162 215.187 91.162ZM215.187 89.38C215.715 89.38 216.207 89.254 216.663 89.002C217.131 88.75 217.509 88.372 217.797 87.868C218.085 87.364 218.229 86.752 218.229 86.032C218.229 85.312 218.091 84.706 217.815 84.214C217.539 83.71 217.173 83.332 216.717 83.08C216.261 82.828 215.769 82.702 215.241 82.702C214.713 82.702 214.221 82.828 213.765 83.08C213.321 83.332 212.967 83.71 212.703 84.214C212.439 84.706 212.307 85.312 212.307 86.032C212.307 87.1 212.577 87.928 213.117 88.516C213.669 89.092 214.359 89.38 215.187 89.38ZM231.346 81.082V91H229.294V89.83C228.97 90.238 228.544 90.562 228.016 90.802C227.5 91.03 226.948 91.144 226.36 91.144C225.58 91.144 224.878 90.982 224.254 90.658C223.642 90.334 223.156 89.854 222.796 89.218C222.448 88.582 222.274 87.814 222.274 86.914V81.082H224.308V86.608C224.308 87.496 224.53 88.18 224.974 88.66C225.418 89.128 226.024 89.362 226.792 89.362C227.56 89.362 228.166 89.128 228.61 88.66C229.066 88.18 229.294 87.496 229.294 86.608V81.082H231.346ZM236.105 82.522C236.405 82.018 236.801 81.628 237.293 81.352C237.797 81.064 238.391 80.92 239.075 80.92V83.044H238.553C237.749 83.044 237.137 83.248 236.717 83.656C236.309 84.064 236.105 84.772 236.105 85.78V91H234.053V81.082H236.105V82.522ZM248.031 82.756V88.246C248.031 88.618 248.115 88.888 248.283 89.056C248.463 89.212 248.763 89.29 249.183 89.29H250.443V91H248.823C247.899 91 247.191 90.784 246.699 90.352C246.207 89.92 245.961 89.218 245.961 88.246V82.756H244.791V81.082H245.961V78.616H248.031V81.082H250.443V82.756H248.031ZM251.65 85.996C251.65 85 251.854 84.118 252.262 83.35C252.682 82.582 253.246 81.988 253.954 81.568C254.674 81.136 255.466 80.92 256.33 80.92C257.11 80.92 257.788 81.076 258.364 81.388C258.952 81.688 259.42 82.066 259.768 82.522V81.082H261.838V91H259.768V89.524C259.42 89.992 258.946 90.382 258.346 90.694C257.746 91.006 257.062 91.162 256.294 91.162C255.442 91.162 254.662 90.946 253.954 90.514C253.246 90.07 252.682 89.458 252.262 88.678C251.854 87.886 251.65 86.992 251.65 85.996ZM259.768 86.032C259.768 85.348 259.624 84.754 259.336 84.25C259.06 83.746 258.694 83.362 258.238 83.098C257.782 82.834 257.29 82.702 256.762 82.702C256.234 82.702 255.742 82.834 255.286 83.098C254.83 83.35 254.458 83.728 254.17 84.232C253.894 84.724 253.756 85.312 253.756 85.996C253.756 86.68 253.894 87.28 254.17 87.796C254.458 88.312 254.83 88.708 255.286 88.984C255.754 89.248 256.246 89.38 256.762 89.38C257.29 89.38 257.782 89.248 258.238 88.984C258.694 88.72 259.06 88.336 259.336 87.832C259.624 87.316 259.768 86.716 259.768 86.032ZM266.586 77.68V91H264.534V77.68H266.586ZM278.37 85.798C278.37 86.17 278.346 86.506 278.298 86.806H270.72C270.78 87.598 271.074 88.234 271.602 88.714C272.13 89.194 272.778 89.434 273.546 89.434C274.65 89.434 275.43 88.972 275.886 88.048H278.1C277.8 88.96 277.254 89.71 276.462 90.298C275.682 90.874 274.71 91.162 273.546 91.162C272.598 91.162 271.746 90.952 270.99 90.532C270.246 90.1 269.658 89.5 269.226 88.732C268.806 87.952 268.596 87.052 268.596 86.032C268.596 85.012 268.8 84.118 269.208 83.35C269.628 82.57 270.21 81.97 270.954 81.55C271.71 81.13 272.574 80.92 273.546 80.92C274.482 80.92 275.316 81.124 276.048 81.532C276.78 81.94 277.35 82.516 277.758 83.26C278.166 83.992 278.37 84.838 278.37 85.798ZM276.228 85.15C276.216 84.394 275.946 83.788 275.418 83.332C274.89 82.876 274.236 82.648 273.456 82.648C272.748 82.648 272.142 82.876 271.638 83.332C271.134 83.776 270.834 84.382 270.738 85.15H276.228ZM285.393 80.92C286.173 80.92 286.869 81.082 287.481 81.406C288.105 81.73 288.591 82.21 288.939 82.846C289.287 83.482 289.461 84.25 289.461 85.15V91H287.427V85.456C287.427 84.568 287.205 83.89 286.761 83.422C286.317 82.942 285.711 82.702 284.943 82.702C284.175 82.702 283.563 82.942 283.107 83.422C282.663 83.89 282.441 84.568 282.441 85.456V91H280.389V81.082H282.441V82.216C282.777 81.808 283.203 81.49 283.719 81.262C284.247 81.034 284.805 80.92 285.393 80.92ZM294.473 82.756V88.246C294.473 88.618 294.557 88.888 294.725 89.056C294.905 89.212 295.205 89.29 295.625 89.29H296.885V91H295.265C294.341 91 293.633 90.784 293.141 90.352C292.649 89.92 292.403 89.218 292.403 88.246V82.756H291.233V81.082H292.403V78.616H294.473V81.082H296.885V82.756H294.473ZM305.846 82.756V88.246C305.846 88.618 305.93 88.888 306.098 89.056C306.278 89.212 306.578 89.29 306.998 89.29H308.258V91H306.638C305.714 91 305.006 90.784 304.514 90.352C304.022 89.92 303.776 89.218 303.776 88.246V82.756H302.606V81.082H303.776V78.616H305.846V81.082H308.258V82.756H305.846ZM314.451 91.162C313.515 91.162 312.669 90.952 311.913 90.532C311.157 90.1 310.563 89.5 310.131 88.732C309.699 87.952 309.483 87.052 309.483 86.032C309.483 85.024 309.705 84.13 310.149 83.35C310.593 82.57 311.199 81.97 311.967 81.55C312.735 81.13 313.593 80.92 314.541 80.92C315.489 80.92 316.347 81.13 317.115 81.55C317.883 81.97 318.489 82.57 318.933 83.35C319.377 84.13 319.599 85.024 319.599 86.032C319.599 87.04 319.371 87.934 318.915 88.714C318.459 89.494 317.835 90.1 317.043 90.532C316.263 90.952 315.399 91.162 314.451 91.162ZM314.451 89.38C314.979 89.38 315.471 89.254 315.927 89.002C316.395 88.75 316.773 88.372 317.061 87.868C317.349 87.364 317.493 86.752 317.493 86.032C317.493 85.312 317.355 84.706 317.079 84.214C316.803 83.71 316.437 83.332 315.981 83.08C315.525 82.828 315.033 82.702 314.505 82.702C313.977 82.702 313.485 82.828 313.029 83.08C312.585 83.332 312.231 83.71 311.967 84.214C311.703 84.706 311.571 85.312 311.571 86.032C311.571 87.1 311.841 87.928 312.381 88.516C312.933 89.092 313.623 89.38 314.451 89.38ZM35.44 112.798C35.44 113.17 35.416 113.506 35.368 113.806H27.79C27.85 114.598 28.144 115.234 28.672 115.714C29.2 116.194 29.848 116.434 30.616 116.434C31.72 116.434 32.5 115.972 32.956 115.048H35.17C34.87 115.96 34.324 116.71 33.532 117.298C32.752 117.874 31.78 118.162 30.616 118.162C29.668 118.162 28.816 117.952 28.06 117.532C27.316 117.1 26.728 116.5 26.296 115.732C25.876 114.952 25.666 114.052 25.666 113.032C25.666 112.012 25.87 111.118 26.278 110.35C26.698 109.57 27.28 108.97 28.024 108.55C28.78 108.13 29.644 107.92 30.616 107.92C31.552 107.92 32.386 108.124 33.118 108.532C33.85 108.94 34.42 109.516 34.828 110.26C35.236 110.992 35.44 111.838 35.44 112.798ZM33.298 112.15C33.286 111.394 33.016 110.788 32.488 110.332C31.96 109.876 31.306 109.648 30.526 109.648C29.818 109.648 29.212 109.876 28.708 110.332C28.204 110.776 27.904 111.382 27.808 112.15H33.298ZM42.4634 107.92C43.2434 107.92 43.9394 108.082 44.5514 108.406C45.1754 108.73 45.6614 109.21 46.0094 109.846C46.3574 110.482 46.5314 111.25 46.5314 112.15V118H44.4974V112.456C44.4974 111.568 44.2754 110.89 43.8314 110.422C43.3874 109.942 42.7814 109.702 42.0134 109.702C41.2454 109.702 40.6334 109.942 40.1774 110.422C39.7334 110.89 39.5114 111.568 39.5114 112.456V118H37.4594V108.082H39.5114V109.216C39.8474 108.808 40.2734 108.49 40.7894 108.262C41.3174 108.034 41.8754 107.92 42.4634 107.92ZM52.7488 118.162C51.9688 118.162 51.2668 118.024 50.6428 117.748C50.0308 117.46 49.5448 117.076 49.1848 116.596C48.8248 116.104 48.6328 115.558 48.6088 114.958H50.7328C50.7688 115.378 50.9668 115.732 51.3268 116.02C51.6988 116.296 52.1608 116.434 52.7128 116.434C53.2888 116.434 53.7328 116.326 54.0448 116.11C54.3688 115.882 54.5308 115.594 54.5308 115.246C54.5308 114.874 54.3508 114.598 53.9908 114.418C53.6428 114.238 53.0848 114.04 52.3168 113.824C51.5728 113.62 50.9668 113.422 50.4988 113.23C50.0308 113.038 49.6228 112.744 49.2748 112.348C48.9388 111.952 48.7708 111.43 48.7708 110.782C48.7708 110.254 48.9268 109.774 49.2388 109.342C49.5508 108.898 49.9948 108.55 50.5708 108.298C51.1588 108.046 51.8308 107.92 52.5868 107.92C53.7148 107.92 54.6208 108.208 55.3048 108.784C56.0008 109.348 56.3728 110.122 56.4208 111.106H54.3688C54.3328 110.662 54.1528 110.308 53.8288 110.044C53.5048 109.78 53.0668 109.648 52.5148 109.648C51.9748 109.648 51.5608 109.75 51.2728 109.954C50.9848 110.158 50.8408 110.428 50.8408 110.764C50.8408 111.028 50.9368 111.25 51.1288 111.43C51.3208 111.61 51.5548 111.754 51.8308 111.862C52.1068 111.958 52.5148 112.084 53.0548 112.24C53.7748 112.432 54.3628 112.63 54.8188 112.834C55.2868 113.026 55.6888 113.314 56.0248 113.698C56.3608 114.082 56.5348 114.592 56.5468 115.228C56.5468 115.792 56.3908 116.296 56.0788 116.74C55.7668 117.184 55.3228 117.532 54.7468 117.784C54.1828 118.036 53.5168 118.162 52.7488 118.162ZM67.7461 108.082V118H65.6941V116.83C65.3701 117.238 64.9441 117.562 64.4161 117.802C63.9001 118.03 63.3481 118.144 62.7601 118.144C61.9801 118.144 61.2781 117.982 60.6541 117.658C60.0421 117.334 59.5561 116.854 59.1961 116.218C58.8481 115.582 58.6741 114.814 58.6741 113.914V108.082H60.7081V113.608C60.7081 114.496 60.9301 115.18 61.3741 115.66C61.8181 116.128 62.4241 116.362 63.1921 116.362C63.9601 116.362 64.5661 116.128 65.0101 115.66C65.4661 115.18 65.6941 114.496 65.6941 113.608V108.082H67.7461ZM72.5055 109.522C72.8055 109.018 73.2015 108.628 73.6935 108.352C74.1975 108.064 74.7915 107.92 75.4755 107.92V110.044H74.9535C74.1495 110.044 73.5375 110.248 73.1175 110.656C72.7095 111.064 72.5055 111.772 72.5055 112.78V118H70.4535V108.082H72.5055V109.522ZM86.4517 112.798C86.4517 113.17 86.4277 113.506 86.3797 113.806H78.8017C78.8617 114.598 79.1557 115.234 79.6837 115.714C80.2117 116.194 80.8597 116.434 81.6277 116.434C82.7317 116.434 83.5117 115.972 83.9677 115.048H86.1817C85.8817 115.96 85.3357 116.71 84.5437 117.298C83.7637 117.874 82.7917 118.162 81.6277 118.162C80.6797 118.162 79.8277 117.952 79.0717 117.532C78.3277 117.1 77.7397 116.5 77.3077 115.732C76.8877 114.952 76.6777 114.052 76.6777 113.032C76.6777 112.012 76.8817 111.118 77.2897 110.35C77.7097 109.57 78.2917 108.97 79.0357 108.55C79.7917 108.13 80.6557 107.92 81.6277 107.92C82.5637 107.92 83.3977 108.124 84.1297 108.532C84.8617 108.94 85.4317 109.516 85.8397 110.26C86.2477 110.992 86.4517 111.838 86.4517 112.798ZM84.3097 112.15C84.2977 111.394 84.0277 110.788 83.4997 110.332C82.9717 109.876 82.3177 109.648 81.5377 109.648C80.8297 109.648 80.2237 109.876 79.7197 110.332C79.2157 110.776 78.9157 111.382 78.8197 112.15H84.3097ZM92.4629 112.996C92.4629 112 92.6669 111.118 93.0749 110.35C93.4949 109.582 94.0589 108.988 94.7669 108.568C95.4869 108.136 96.2849 107.92 97.1609 107.92C97.9289 107.92 98.6069 108.076 99.1949 108.388C99.7949 108.7 100.257 109.078 100.581 109.522V108.082H102.651V122.716H100.581V116.56C100.257 117.004 99.7889 117.382 99.1769 117.694C98.5649 118.006 97.8689 118.162 97.0889 118.162C96.2369 118.162 95.4569 117.946 94.7489 117.514C94.0529 117.07 93.4949 116.458 93.0749 115.678C92.6669 114.886 92.4629 113.992 92.4629 112.996ZM100.581 113.032C100.581 112.348 100.437 111.754 100.149 111.25C99.8729 110.746 99.5069 110.362 99.0509 110.098C98.5949 109.834 98.1029 109.702 97.5749 109.702C97.0469 109.702 96.5549 109.834 96.0989 110.098C95.6429 110.35 95.2709 110.728 94.9829 111.232C94.7069 111.724 94.5689 112.312 94.5689 112.996C94.5689 113.68 94.7069 114.28 94.9829 114.796C95.2709 115.312 95.6429 115.708 96.0989 115.984C96.5669 116.248 97.0589 116.38 97.5749 116.38C98.1029 116.38 98.5949 116.248 99.0509 115.984C99.5069 115.72 99.8729 115.336 100.149 114.832C100.437 114.316 100.581 113.716 100.581 113.032ZM114.328 108.082V118H112.276V116.83C111.952 117.238 111.526 117.562 110.998 117.802C110.482 118.03 109.93 118.144 109.342 118.144C108.562 118.144 107.86 117.982 107.236 117.658C106.624 117.334 106.138 116.854 105.778 116.218C105.43 115.582 105.256 114.814 105.256 113.914V108.082H107.29V113.608C107.29 114.496 107.512 115.18 107.956 115.66C108.4 116.128 109.006 116.362 109.774 116.362C110.542 116.362 111.148 116.128 111.592 115.66C112.048 115.18 112.276 114.496 112.276 113.608V108.082H114.328ZM116.352 112.996C116.352 112 116.556 111.118 116.964 110.35C117.384 109.582 117.948 108.988 118.656 108.568C119.376 108.136 120.168 107.92 121.032 107.92C121.812 107.92 122.49 108.076 123.066 108.388C123.654 108.688 124.122 109.066 124.47 109.522V108.082H126.54V118H124.47V116.524C124.122 116.992 123.648 117.382 123.048 117.694C122.448 118.006 121.764 118.162 120.996 118.162C120.144 118.162 119.364 117.946 118.656 117.514C117.948 117.07 117.384 116.458 116.964 115.678C116.556 114.886 116.352 113.992 116.352 112.996ZM124.47 113.032C124.47 112.348 124.326 111.754 124.038 111.25C123.762 110.746 123.396 110.362 122.94 110.098C122.484 109.834 121.992 109.702 121.464 109.702C120.936 109.702 120.444 109.834 119.988 110.098C119.532 110.35 119.16 110.728 118.872 111.232C118.596 111.724 118.458 112.312 118.458 112.996C118.458 113.68 118.596 114.28 118.872 114.796C119.16 115.312 119.532 115.708 119.988 115.984C120.456 116.248 120.948 116.38 121.464 116.38C121.992 116.38 122.484 116.248 122.94 115.984C123.396 115.72 123.762 115.336 124.038 114.832C124.326 114.316 124.47 113.716 124.47 113.032ZM131.287 104.68V118H129.235V104.68H131.287ZM135.025 106.768C134.653 106.768 134.341 106.642 134.089 106.39C133.837 106.138 133.711 105.826 133.711 105.454C133.711 105.082 133.837 104.77 134.089 104.518C134.341 104.266 134.653 104.14 135.025 104.14C135.385 104.14 135.691 104.266 135.943 104.518C136.195 104.77 136.321 105.082 136.321 105.454C136.321 105.826 136.195 106.138 135.943 106.39C135.691 106.642 135.385 106.768 135.025 106.768ZM136.033 108.082V118H133.981V108.082H136.033ZM141.121 109.756V115.246C141.121 115.618 141.205 115.888 141.373 116.056C141.553 116.212 141.853 116.29 142.273 116.29H143.533V118H141.913C140.989 118 140.281 117.784 139.789 117.352C139.297 116.92 139.051 116.218 139.051 115.246V109.756H137.881V108.082H139.051V105.616H141.121V108.082H143.533V109.756H141.121ZM154.352 108.082L148.268 122.662H146.144L148.16 117.838L144.254 108.082H146.54L149.33 115.642L152.228 108.082H154.352Z" fill="#A3A5AE"/>
<path d="M320.375 195.625H331.625V207H320.375V195.625Z" fill="#676E74"/>
<path d="M326 195.625H331.625V207H326V195.625Z" fill="#333637"/>
<path d="M316.625 190H335.375V199.375H316.625V190Z" fill="#4C545A"/>
<path d="M326 190H335.375V199.375H326V190Z" fill="#52585C"/>
<path d="M339.012 179.725C336.687 181.638 335.375 184.337 335.375 187.15V190H316.625V187.15C316.625 184.3 315.387 181.638 313.325 180.025C308.263 176.087 305.375 170.163 305.375 163.75C305.371 160.682 306.052 157.652 307.369 154.882C308.686 152.111 310.606 149.67 312.988 147.737C316.7 144.737 321.238 143 326 143C327.462 143 328.962 143.15 330.425 143.45C338.525 145.138 344.9 151.9 346.325 160.113C347.6 167.613 344.9 174.963 339.012 179.725Z" fill="#FFDA2D"/>
<path d="M339.012 179.725C336.687 181.638 335.375 184.337 335.375 187.15V190H326V143C327.462 143 328.962 143.15 330.425 143.45C338.525 145.138 344.9 151.9 346.325 160.113C347.6 167.613 344.9 174.963 339.012 179.725Z" fill="#FDBF00"/>
<path d="M312.875 188.125H339.125V191.875H312.875V188.125Z" fill="#676E74"/>
<path d="M333.956 153.143L336.607 155.794L332.628 159.772L329.977 157.121L333.956 153.143Z" fill="#FF9100"/>
<path d="M319.372 167.727L322.023 170.378L318.044 174.357L315.393 171.706L319.372 167.727ZM324.125 171.25H327.875V176.875H324.125V171.25Z" fill="#FDBF00"/>
<path d="M332.628 167.727L336.607 171.706L333.956 174.357L329.977 170.378L332.628 167.727ZM333.5 161.875H339.125V165.625H333.5V161.875Z" fill="#FF9100"/>
<path d="M318.044 153.143L322.023 157.122L319.372 159.772L315.393 155.794L318.044 153.143ZM312.875 161.875H318.5V165.625H312.875V161.875ZM324.125 150.625H327.875V156.25H324.125V150.625Z" fill="#FDBF00"/>
<path d="M294 161.875H301.625V165.625H294V161.875ZM300.585 157.81L294.835 154.06L296.915 150.94L302.665 154.69L300.585 157.81ZM296.915 176.56L294.835 173.44L300.585 169.69L302.665 172.81L296.915 176.56Z" fill="#FFDA2D"/>
<path d="M350.375 161.875H358V165.625H350.375V161.875ZM355.085 176.56L349.335 172.81L351.415 169.69L357.165 173.44L355.085 176.56ZM351.415 157.81L349.335 154.69L355.085 150.94L357.165 154.06L351.415 157.81Z" fill="#FDBF00"/>
<path d="M326 150.625H327.875V156.25H326V150.625ZM326 171.25H327.875V176.875H326V171.25Z" fill="#FF9100"/>
<path d="M326 188.125H339.125V191.875H326V188.125Z" fill="#333637"/>
<path d="M326 154.375C320.825 154.375 316.625 158.575 316.625 163.75C316.625 168.925 320.825 173.125 326 173.125C331.175 173.125 335.375 168.925 335.375 163.75C335.375 158.575 331.175 154.375 326 154.375Z" fill="#FDBF00"/>
<path d="M326 173.125V154.375C331.175 154.375 335.375 158.575 335.375 163.75C335.375 168.925 331.175 173.125 326 173.125Z" fill="#FF9100"/>
<path d="M324.125 161.875H327.875V165.625H324.125V161.875Z" fill="#FFDA2D"/>
<path d="M326 161.875H327.875V165.625H326V161.875Z" fill="#FDBF00"/>
<defs>
<filter id="filter0_dd" x="0" y="5" width="383" height="234" filterUnits="userSpaceOnUse" color-interpolation-filters="sRGB">
<feFlood flood-opacity="0" result="BackgroundImageFix"/>
<feColorMatrix in="SourceAlpha" type="matrix" values="0 0 0 0 0 0 0 0 0 0 0 0 0 0 0 0 0 0 127 0"/>
<feOffset dx="4" dy="4"/>
<feGaussianBlur stdDeviation="2"/>
<feColorMatrix type="matrix" values="0 0 0 0 0 0 0 0 0 0 0 0 0 0 0 0 0 0 0.25 0"/>
<feBlend mode="normal" in2="BackgroundImageFix" result="effect1_dropShadow"/>
<feColorMatrix in="SourceAlpha" type="matrix" values="0 0 0 0 0 0 0 0 0 0 0 0 0 0 0 0 0 0 127 0"/>
<feOffset dx="-4" dy="4"/>
<feGaussianBlur stdDeviation="2"/>
<feColorMatrix type="matrix" values="0 0 0 0 0 0 0 0 0 0 0 0 0 0 0 0 0 0 0.25 0"/>
<feBlend mode="normal" in2="effect1_dropShadow" result="effect2_dropShadow"/>
<feBlend mode="normal" in="SourceGraphic" in2="effect2_dropShadow" result="shape"/>
</filter>
</defs>
</svg>
