<svg width="383" height="239" viewBox="0 0 383 239" fill="none" xmlns="http://www.w3.org/2000/svg">
<g filter="url(#filter0_dd)">
<rect x="8" y="5" width="367" height="226" fill="white"/>
</g>
<line x1="8" y1="2.5" x2="375" y2="2.5" stroke="#45D3D3" stroke-width="5"/>
<path d="M34.48 49.21C32.94 49.21 31.56 48.96 30.34 48.46C29.12 47.96 28.14 47.22 27.4 46.24C26.68 45.26 26.3 44.08 26.26 42.7H31.72C31.8 43.48 32.07 44.08 32.53 44.5C32.99 44.9 33.59 45.1 34.33 45.1C35.09 45.1 35.69 44.93 36.13 44.59C36.57 44.23 36.79 43.74 36.79 43.12C36.79 42.6 36.61 42.17 36.25 41.83C35.91 41.49 35.48 41.21 34.96 40.99C34.46 40.77 33.74 40.52 32.8 40.24C31.44 39.82 30.33 39.4 29.47 38.98C28.61 38.56 27.87 37.94 27.25 37.12C26.63 36.3 26.32 35.23 26.32 33.91C26.32 31.95 27.03 30.42 28.45 29.32C29.87 28.2 31.72 27.64 34 27.64C36.32 27.64 38.19 28.2 39.61 29.32C41.03 30.42 41.79 31.96 41.89 33.94H36.34C36.3 33.26 36.05 32.73 35.59 32.35C35.13 31.95 34.54 31.75 33.82 31.75C33.2 31.75 32.7 31.92 32.32 32.26C31.94 32.58 31.75 33.05 31.75 33.67C31.75 34.35 32.07 34.88 32.71 35.26C33.35 35.64 34.35 36.05 35.71 36.49C37.07 36.95 38.17 37.39 39.01 37.81C39.87 38.23 40.61 38.84 41.23 39.64C41.85 40.44 42.16 41.47 42.16 42.73C42.16 43.93 41.85 45.02 41.23 46C40.63 46.98 39.75 47.76 38.59 48.34C37.43 48.92 36.06 49.21 34.48 49.21ZM61.847 32.26V49H56.717V46.72C56.197 47.46 55.487 48.06 54.587 48.52C53.707 48.96 52.727 49.18 51.647 49.18C50.367 49.18 49.237 48.9 48.257 48.34C47.277 47.76 46.517 46.93 45.977 45.85C45.437 44.77 45.167 43.5 45.167 42.04V32.26H50.267V41.35C50.267 42.47 50.557 43.34 51.137 43.96C51.717 44.58 52.497 44.89 53.477 44.89C54.477 44.89 55.267 44.58 55.847 43.96C56.427 43.34 56.717 42.47 56.717 41.35V32.26H61.847ZM70.6619 34.63C71.1619 33.85 71.8519 33.22 72.7319 32.74C73.6119 32.26 74.6419 32.02 75.8219 32.02C77.2019 32.02 78.4519 32.37 79.5719 33.07C80.6919 33.77 81.5719 34.77 82.2119 36.07C82.8719 37.37 83.2019 38.88 83.2019 40.6C83.2019 42.32 82.8719 43.84 82.2119 45.16C81.5719 46.46 80.6919 47.47 79.5719 48.19C78.4519 48.89 77.2019 49.24 75.8219 49.24C74.6619 49.24 73.6319 49 72.7319 48.52C71.8519 48.04 71.1619 47.42 70.6619 46.66V56.98H65.5319V32.26H70.6619V34.63ZM77.9819 40.6C77.9819 39.32 77.6219 38.32 76.9019 37.6C76.2019 36.86 75.3319 36.49 74.2919 36.49C73.2719 36.49 72.4019 36.86 71.6819 37.6C70.9819 38.34 70.6319 39.35 70.6319 40.63C70.6319 41.91 70.9819 42.92 71.6819 43.66C72.4019 44.4 73.2719 44.77 74.2919 44.77C75.3119 44.77 76.1819 44.4 76.9019 43.66C77.6219 42.9 77.9819 41.88 77.9819 40.6ZM101.673 40.36C101.673 40.84 101.643 41.34 101.583 41.86H89.9732C90.0532 42.9 90.3832 43.7 90.9632 44.26C91.5632 44.8 92.2932 45.07 93.1532 45.07C94.4332 45.07 95.3232 44.53 95.8232 43.45H101.283C101.003 44.55 100.493 45.54 99.7532 46.42C99.0332 47.3 98.1232 47.99 97.0232 48.49C95.9232 48.99 94.6932 49.24 93.3332 49.24C91.6932 49.24 90.2332 48.89 88.9532 48.19C87.6732 47.49 86.6732 46.49 85.9532 45.19C85.2332 43.89 84.8732 42.37 84.8732 40.63C84.8732 38.89 85.2232 37.37 85.9232 36.07C86.6432 34.77 87.6432 33.77 88.9232 33.07C90.2032 32.37 91.6732 32.02 93.3332 32.02C94.9532 32.02 96.3932 32.36 97.6532 33.04C98.9132 33.72 99.8932 34.69 100.593 35.95C101.313 37.21 101.673 38.68 101.673 40.36ZM96.4232 39.01C96.4232 38.13 96.1232 37.43 95.5232 36.91C94.9232 36.39 94.1732 36.13 93.2732 36.13C92.4132 36.13 91.6832 36.38 91.0832 36.88C90.5032 37.38 90.1432 38.09 90.0032 39.01H96.4232ZM109.51 35.05C110.11 34.13 110.86 33.41 111.76 32.89C112.66 32.35 113.66 32.08 114.76 32.08V37.51H113.35C112.07 37.51 111.11 37.79 110.47 38.35C109.83 38.89 109.51 39.85 109.51 41.23V49H104.38V32.26H109.51V35.05ZM124.742 44.2L128.372 32.26H133.832L127.892 49H121.562L115.622 32.26H121.112L124.742 44.2ZM138.571 30.52C137.671 30.52 136.931 30.26 136.351 29.74C135.791 29.2 135.511 28.54 135.511 27.76C135.511 26.96 135.791 26.3 136.351 25.78C136.931 25.24 137.671 24.97 138.571 24.97C139.451 24.97 140.171 25.24 140.731 25.78C141.311 26.3 141.601 26.96 141.601 27.76C141.601 28.54 141.311 29.2 140.731 29.74C140.171 30.26 139.451 30.52 138.571 30.52ZM141.121 32.26V49H135.991V32.26H141.121ZM151.649 49.24C150.189 49.24 148.889 48.99 147.749 48.49C146.609 47.99 145.709 47.31 145.049 46.45C144.389 45.57 144.019 44.59 143.939 43.51H149.009C149.069 44.09 149.339 44.56 149.819 44.92C150.299 45.28 150.889 45.46 151.589 45.46C152.229 45.46 152.719 45.34 153.059 45.1C153.419 44.84 153.599 44.51 153.599 44.11C153.599 43.63 153.349 43.28 152.849 43.06C152.349 42.82 151.539 42.56 150.419 42.28C149.219 42 148.219 41.71 147.419 41.41C146.619 41.09 145.929 40.6 145.349 39.94C144.769 39.26 144.479 38.35 144.479 37.21C144.479 36.25 144.739 35.38 145.259 34.6C145.799 33.8 146.579 33.17 147.599 32.71C148.639 32.25 149.869 32.02 151.289 32.02C153.389 32.02 155.039 32.54 156.239 33.58C157.459 34.62 158.159 36 158.339 37.72H153.599C153.519 37.14 153.259 36.68 152.819 36.34C152.399 36 151.839 35.83 151.139 35.83C150.539 35.83 150.079 35.95 149.759 36.19C149.439 36.41 149.279 36.72 149.279 37.12C149.279 37.6 149.529 37.96 150.029 38.2C150.549 38.44 151.349 38.68 152.429 38.92C153.669 39.24 154.679 39.56 155.459 39.88C156.239 40.18 156.919 40.68 157.499 41.38C158.099 42.06 158.409 42.98 158.429 44.14C158.429 45.12 158.149 46 157.589 46.78C157.049 47.54 156.259 48.14 155.219 48.58C154.199 49.02 153.009 49.24 151.649 49.24ZM169.187 49.24C167.547 49.24 166.067 48.89 164.747 48.19C163.447 47.49 162.417 46.49 161.657 45.19C160.917 43.89 160.547 42.37 160.547 40.63C160.547 38.91 160.927 37.4 161.687 36.1C162.447 34.78 163.487 33.77 164.807 33.07C166.127 32.37 167.607 32.02 169.247 32.02C170.887 32.02 172.367 32.37 173.687 33.07C175.007 33.77 176.047 34.78 176.807 36.1C177.567 37.4 177.947 38.91 177.947 40.63C177.947 42.35 177.557 43.87 176.777 45.19C176.017 46.49 174.967 47.49 173.627 48.19C172.307 48.89 170.827 49.24 169.187 49.24ZM169.187 44.8C170.167 44.8 170.997 44.44 171.677 43.72C172.377 43 172.727 41.97 172.727 40.63C172.727 39.29 172.387 38.26 171.707 37.54C171.047 36.82 170.227 36.46 169.247 36.46C168.247 36.46 167.417 36.82 166.757 37.54C166.097 38.24 165.767 39.27 165.767 40.63C165.767 41.97 166.087 43 166.727 43.72C167.387 44.44 168.207 44.8 169.187 44.8ZM185.799 35.05C186.399 34.13 187.149 33.41 188.049 32.89C188.949 32.35 189.949 32.08 191.049 32.08V37.51H189.639C188.359 37.51 187.399 37.79 186.759 38.35C186.119 38.89 185.799 39.85 185.799 41.23V49H180.669V32.26H185.799V35.05Z" fill="#4C4E61"/>
<path d="M39.526 78.49V91H37.474V82.432L33.658 91H32.236L28.402 82.432V91H26.35V78.49H28.564L32.956 88.3L37.33 78.49H39.526ZM46.525 91.162C45.589 91.162 44.743 90.952 43.987 90.532C43.231 90.1 42.637 89.5 42.205 88.732C41.773 87.952 41.557 87.052 41.557 86.032C41.557 85.024 41.779 84.13 42.223 83.35C42.667 82.57 43.273 81.97 44.041 81.55C44.809 81.13 45.667 80.92 46.615 80.92C47.563 80.92 48.421 81.13 49.189 81.55C49.957 81.97 50.563 82.57 51.007 83.35C51.451 84.13 51.673 85.024 51.673 86.032C51.673 87.04 51.445 87.934 50.989 88.714C50.533 89.494 49.909 90.1 49.117 90.532C48.337 90.952 47.473 91.162 46.525 91.162ZM46.525 89.38C47.053 89.38 47.545 89.254 48.001 89.002C48.469 88.75 48.847 88.372 49.135 87.868C49.423 87.364 49.567 86.752 49.567 86.032C49.567 85.312 49.429 84.706 49.153 84.214C48.877 83.71 48.511 83.332 48.055 83.08C47.599 82.828 47.107 82.702 46.579 82.702C46.051 82.702 45.559 82.828 45.103 83.08C44.659 83.332 44.305 83.71 44.041 84.214C43.777 84.706 43.645 85.312 43.645 86.032C43.645 87.1 43.915 87.928 44.455 88.516C45.007 89.092 45.697 89.38 46.525 89.38ZM58.7056 80.92C59.4856 80.92 60.1816 81.082 60.7936 81.406C61.4176 81.73 61.9036 82.21 62.2516 82.846C62.5996 83.482 62.7736 84.25 62.7736 85.15V91H60.7396V85.456C60.7396 84.568 60.5176 83.89 60.0736 83.422C59.6296 82.942 59.0236 82.702 58.2556 82.702C57.4876 82.702 56.8756 82.942 56.4196 83.422C55.9756 83.89 55.7536 84.568 55.7536 85.456V91H53.7016V81.082H55.7536V82.216C56.0896 81.808 56.5156 81.49 57.0316 81.262C57.5596 81.034 58.1176 80.92 58.7056 80.92ZM66.435 79.768C66.063 79.768 65.751 79.642 65.499 79.39C65.247 79.138 65.121 78.826 65.121 78.454C65.121 78.082 65.247 77.77 65.499 77.518C65.751 77.266 66.063 77.14 66.435 77.14C66.795 77.14 67.101 77.266 67.353 77.518C67.605 77.77 67.731 78.082 67.731 78.454C67.731 78.826 67.605 79.138 67.353 79.39C67.101 79.642 66.795 79.768 66.435 79.768ZM67.443 81.082V91H65.391V81.082H67.443ZM72.5311 82.756V88.246C72.5311 88.618 72.6151 88.888 72.7831 89.056C72.9631 89.212 73.2631 89.29 73.6831 89.29H74.9431V91H73.3231C72.3991 91 71.6911 90.784 71.1991 90.352C70.7071 89.92 70.4611 89.218 70.4611 88.246V82.756H69.2911V81.082H70.4611V78.616H72.5311V81.082H74.9431V82.756H72.5311ZM81.1364 91.162C80.2004 91.162 79.3544 90.952 78.5984 90.532C77.8424 90.1 77.2484 89.5 76.8164 88.732C76.3844 87.952 76.1684 87.052 76.1684 86.032C76.1684 85.024 76.3904 84.13 76.8344 83.35C77.2784 82.57 77.8844 81.97 78.6524 81.55C79.4204 81.13 80.2784 80.92 81.2264 80.92C82.1744 80.92 83.0324 81.13 83.8004 81.55C84.5684 81.97 85.1744 82.57 85.6184 83.35C86.0624 84.13 86.2844 85.024 86.2844 86.032C86.2844 87.04 86.0564 87.934 85.6004 88.714C85.1444 89.494 84.5204 90.1 83.7284 90.532C82.9484 90.952 82.0844 91.162 81.1364 91.162ZM81.1364 89.38C81.6644 89.38 82.1564 89.254 82.6124 89.002C83.0804 88.75 83.4584 88.372 83.7464 87.868C84.0344 87.364 84.1784 86.752 84.1784 86.032C84.1784 85.312 84.0404 84.706 83.7644 84.214C83.4884 83.71 83.1224 83.332 82.6664 83.08C82.2104 82.828 81.7184 82.702 81.1904 82.702C80.6624 82.702 80.1704 82.828 79.7144 83.08C79.2704 83.332 78.9164 83.71 78.6524 84.214C78.3884 84.706 78.2564 85.312 78.2564 86.032C78.2564 87.1 78.5264 87.928 79.0664 88.516C79.6184 89.092 80.3084 89.38 81.1364 89.38ZM90.3649 82.522C90.6649 82.018 91.0609 81.628 91.5529 81.352C92.0569 81.064 92.6509 80.92 93.3349 80.92V83.044H92.8129C92.0089 83.044 91.3969 83.248 90.9769 83.656C90.5689 84.064 90.3649 84.772 90.3649 85.78V91H88.3129V81.082H90.3649V82.522ZM98.8211 91.162C98.0411 91.162 97.3391 91.024 96.7151 90.748C96.1031 90.46 95.6171 90.076 95.2571 89.596C94.8971 89.104 94.7051 88.558 94.6811 87.958H96.8051C96.8411 88.378 97.0391 88.732 97.3991 89.02C97.7711 89.296 98.2331 89.434 98.7851 89.434C99.3611 89.434 99.8051 89.326 100.117 89.11C100.441 88.882 100.603 88.594 100.603 88.246C100.603 87.874 100.423 87.598 100.063 87.418C99.7151 87.238 99.1571 87.04 98.3891 86.824C97.6451 86.62 97.0391 86.422 96.5711 86.23C96.1031 86.038 95.6951 85.744 95.3471 85.348C95.0111 84.952 94.8431 84.43 94.8431 83.782C94.8431 83.254 94.9991 82.774 95.3111 82.342C95.6231 81.898 96.0671 81.55 96.6431 81.298C97.2311 81.046 97.9031 80.92 98.6591 80.92C99.7871 80.92 100.693 81.208 101.377 81.784C102.073 82.348 102.445 83.122 102.493 84.106H100.441C100.405 83.662 100.225 83.308 99.9011 83.044C99.5771 82.78 99.1391 82.648 98.5871 82.648C98.0471 82.648 97.6331 82.75 97.3451 82.954C97.0571 83.158 96.9131 83.428 96.9131 83.764C96.9131 84.028 97.0091 84.25 97.2011 84.43C97.3931 84.61 97.6271 84.754 97.9031 84.862C98.1791 84.958 98.5871 85.084 99.1271 85.24C99.8471 85.432 100.435 85.63 100.891 85.834C101.359 86.026 101.761 86.314 102.097 86.698C102.433 87.082 102.607 87.592 102.619 88.228C102.619 88.792 102.463 89.296 102.151 89.74C101.839 90.184 101.395 90.532 100.819 90.784C100.255 91.036 99.5891 91.162 98.8211 91.162ZM108.828 85.996C108.828 85 109.032 84.118 109.44 83.35C109.86 82.582 110.424 81.988 111.132 81.568C111.852 81.136 112.644 80.92 113.508 80.92C114.288 80.92 114.966 81.076 115.542 81.388C116.13 81.688 116.598 82.066 116.946 82.522V81.082H119.016V91H116.946V89.524C116.598 89.992 116.124 90.382 115.524 90.694C114.924 91.006 114.24 91.162 113.472 91.162C112.62 91.162 111.84 90.946 111.132 90.514C110.424 90.07 109.86 89.458 109.44 88.678C109.032 87.886 108.828 86.992 108.828 85.996ZM116.946 86.032C116.946 85.348 116.802 84.754 116.514 84.25C116.238 83.746 115.872 83.362 115.416 83.098C114.96 82.834 114.468 82.702 113.94 82.702C113.412 82.702 112.92 82.834 112.464 83.098C112.008 83.35 111.636 83.728 111.348 84.232C111.072 84.724 110.934 85.312 110.934 85.996C110.934 86.68 111.072 87.28 111.348 87.796C111.636 88.312 112.008 88.708 112.464 88.984C112.932 89.248 113.424 89.38 113.94 89.38C114.468 89.38 114.96 89.248 115.416 88.984C115.872 88.72 116.238 88.336 116.514 87.832C116.802 87.316 116.946 86.716 116.946 86.032ZM121.027 86.032C121.027 85.012 121.231 84.118 121.639 83.35C122.059 82.57 122.635 81.97 123.367 81.55C124.099 81.13 124.939 80.92 125.887 80.92C127.087 80.92 128.077 81.208 128.857 81.784C129.649 82.348 130.183 83.158 130.459 84.214H128.245C128.065 83.722 127.777 83.338 127.381 83.062C126.985 82.786 126.487 82.648 125.887 82.648C125.047 82.648 124.375 82.948 123.871 83.548C123.379 84.136 123.133 84.964 123.133 86.032C123.133 87.1 123.379 87.934 123.871 88.534C124.375 89.134 125.047 89.434 125.887 89.434C127.075 89.434 127.861 88.912 128.245 87.868H130.459C130.171 88.876 129.631 89.68 128.839 90.28C128.047 90.868 127.063 91.162 125.887 91.162C124.939 91.162 124.099 90.952 123.367 90.532C122.635 90.1 122.059 89.5 121.639 88.732C121.231 87.952 121.027 87.052 121.027 86.032ZM134.898 82.756V88.246C134.898 88.618 134.982 88.888 135.15 89.056C135.33 89.212 135.63 89.29 136.05 89.29H137.31V91H135.69C134.766 91 134.058 90.784 133.566 90.352C133.074 89.92 132.828 89.218 132.828 88.246V82.756H131.658V81.082H132.828V78.616H134.898V81.082H137.31V82.756H134.898ZM140.246 79.768C139.874 79.768 139.562 79.642 139.31 79.39C139.058 79.138 138.932 78.826 138.932 78.454C138.932 78.082 139.058 77.77 139.31 77.518C139.562 77.266 139.874 77.14 140.246 77.14C140.606 77.14 140.912 77.266 141.164 77.518C141.416 77.77 141.542 78.082 141.542 78.454C141.542 78.826 141.416 79.138 141.164 79.39C140.912 79.642 140.606 79.768 140.246 79.768ZM141.254 81.082V91H139.202V81.082H141.254ZM147.782 89.164L150.59 81.082H152.768L148.988 91H146.54L142.778 81.082H144.974L147.782 89.164ZM155.363 79.768C154.991 79.768 154.679 79.642 154.427 79.39C154.175 79.138 154.049 78.826 154.049 78.454C154.049 78.082 154.175 77.77 154.427 77.518C154.679 77.266 154.991 77.14 155.363 77.14C155.723 77.14 156.029 77.266 156.281 77.518C156.533 77.77 156.659 78.082 156.659 78.454C156.659 78.826 156.533 79.138 156.281 79.39C156.029 79.642 155.723 79.768 155.363 79.768ZM156.371 81.082V91H154.319V81.082H156.371ZM161.459 82.756V88.246C161.459 88.618 161.543 88.888 161.711 89.056C161.891 89.212 162.191 89.29 162.611 89.29H163.871V91H162.251C161.327 91 160.619 90.784 160.127 90.352C159.635 89.92 159.389 89.218 159.389 88.246V82.756H158.219V81.082H159.389V78.616H161.459V81.082H163.871V82.756H161.459ZM174.69 81.082L168.606 95.662H166.482L168.498 90.838L164.592 81.082H166.878L169.668 88.642L172.566 81.082H174.69ZM183.308 82.756V88.246C183.308 88.618 183.392 88.888 183.56 89.056C183.74 89.212 184.04 89.29 184.46 89.29H185.72V91H184.1C183.176 91 182.468 90.784 181.976 90.352C181.484 89.92 181.238 89.218 181.238 88.246V82.756H180.068V81.082H181.238V78.616H183.308V81.082H185.72V82.756H183.308ZM191.914 91.162C190.978 91.162 190.132 90.952 189.376 90.532C188.62 90.1 188.026 89.5 187.594 88.732C187.162 87.952 186.946 87.052 186.946 86.032C186.946 85.024 187.168 84.13 187.612 83.35C188.056 82.57 188.662 81.97 189.43 81.55C190.198 81.13 191.056 80.92 192.004 80.92C192.952 80.92 193.81 81.13 194.578 81.55C195.346 81.97 195.952 82.57 196.396 83.35C196.84 84.13 197.062 85.024 197.062 86.032C197.062 87.04 196.834 87.934 196.378 88.714C195.922 89.494 195.298 90.1 194.506 90.532C193.726 90.952 192.862 91.162 191.914 91.162ZM191.914 89.38C192.442 89.38 192.934 89.254 193.39 89.002C193.858 88.75 194.236 88.372 194.524 87.868C194.812 87.364 194.956 86.752 194.956 86.032C194.956 85.312 194.818 84.706 194.542 84.214C194.266 83.71 193.9 83.332 193.444 83.08C192.988 82.828 192.496 82.702 191.968 82.702C191.44 82.702 190.948 82.828 190.492 83.08C190.048 83.332 189.694 83.71 189.43 84.214C189.166 84.706 189.034 85.312 189.034 86.032C189.034 87.1 189.304 87.928 189.844 88.516C190.396 89.092 191.086 89.38 191.914 89.38ZM204.81 79.768C204.438 79.768 204.126 79.642 203.874 79.39C203.622 79.138 203.496 78.826 203.496 78.454C203.496 78.082 203.622 77.77 203.874 77.518C204.126 77.266 204.438 77.14 204.81 77.14C205.17 77.14 205.476 77.266 205.728 77.518C205.98 77.77 206.106 78.082 206.106 78.454C206.106 78.826 205.98 79.138 205.728 79.39C205.476 79.642 205.17 79.768 204.81 79.768ZM205.818 81.082V91H203.766V81.082H205.818ZM207.828 85.996C207.828 85 208.032 84.118 208.44 83.35C208.86 82.582 209.424 81.988 210.132 81.568C210.852 81.136 211.65 80.92 212.526 80.92C213.174 80.92 213.81 81.064 214.434 81.352C215.07 81.628 215.574 82 215.946 82.468V77.68H218.016V91H215.946V89.506C215.61 89.986 215.142 90.382 214.542 90.694C213.954 91.006 213.276 91.162 212.508 91.162C211.644 91.162 210.852 90.946 210.132 90.514C209.424 90.07 208.86 89.458 208.44 88.678C208.032 87.886 207.828 86.992 207.828 85.996ZM215.946 86.032C215.946 85.348 215.802 84.754 215.514 84.25C215.238 83.746 214.872 83.362 214.416 83.098C213.96 82.834 213.468 82.702 212.94 82.702C212.412 82.702 211.92 82.834 211.464 83.098C211.008 83.35 210.636 83.728 210.348 84.232C210.072 84.724 209.934 85.312 209.934 85.996C209.934 86.68 210.072 87.28 210.348 87.796C210.636 88.312 211.008 88.708 211.464 88.984C211.932 89.248 212.424 89.38 212.94 89.38C213.468 89.38 213.96 89.248 214.416 88.984C214.872 88.72 215.238 88.336 215.514 87.832C215.802 87.316 215.946 86.716 215.946 86.032ZM229.801 85.798C229.801 86.17 229.777 86.506 229.729 86.806H222.151C222.211 87.598 222.505 88.234 223.033 88.714C223.561 89.194 224.209 89.434 224.977 89.434C226.081 89.434 226.861 88.972 227.317 88.048H229.531C229.231 88.96 228.685 89.71 227.893 90.298C227.113 90.874 226.141 91.162 224.977 91.162C224.029 91.162 223.177 90.952 222.421 90.532C221.677 90.1 221.089 89.5 220.657 88.732C220.237 87.952 220.027 87.052 220.027 86.032C220.027 85.012 220.231 84.118 220.639 83.35C221.059 82.57 221.641 81.97 222.385 81.55C223.141 81.13 224.005 80.92 224.977 80.92C225.913 80.92 226.747 81.124 227.479 81.532C228.211 81.94 228.781 82.516 229.189 83.26C229.597 83.992 229.801 84.838 229.801 85.798ZM227.659 85.15C227.647 84.394 227.377 83.788 226.849 83.332C226.321 82.876 225.667 82.648 224.887 82.648C224.179 82.648 223.573 82.876 223.069 83.332C222.565 83.776 222.265 84.382 222.169 85.15H227.659ZM236.825 80.92C237.605 80.92 238.301 81.082 238.913 81.406C239.537 81.73 240.023 82.21 240.371 82.846C240.719 83.482 240.893 84.25 240.893 85.15V91H238.859V85.456C238.859 84.568 238.637 83.89 238.193 83.422C237.749 82.942 237.143 82.702 236.375 82.702C235.607 82.702 234.995 82.942 234.539 83.422C234.095 83.89 233.873 84.568 233.873 85.456V91H231.821V81.082H233.873V82.216C234.209 81.808 234.635 81.49 235.151 81.262C235.679 81.034 236.237 80.92 236.825 80.92ZM245.904 82.756V88.246C245.904 88.618 245.988 88.888 246.156 89.056C246.336 89.212 246.636 89.29 247.056 89.29H248.316V91H246.696C245.772 91 245.064 90.784 244.572 90.352C244.08 89.92 243.834 89.218 243.834 88.246V82.756H242.664V81.082H243.834V78.616H245.904V81.082H248.316V82.756H245.904ZM251.251 79.768C250.879 79.768 250.567 79.642 250.315 79.39C250.063 79.138 249.937 78.826 249.937 78.454C249.937 78.082 250.063 77.77 250.315 77.518C250.567 77.266 250.879 77.14 251.251 77.14C251.611 77.14 251.917 77.266 252.169 77.518C252.421 77.77 252.547 78.082 252.547 78.454C252.547 78.826 252.421 79.138 252.169 79.39C251.917 79.642 251.611 79.768 251.251 79.768ZM252.259 81.082V91H250.207V81.082H252.259ZM259.112 82.756H257.276V91H255.206V82.756H254.036V81.082H255.206V80.38C255.206 79.24 255.506 78.412 256.106 77.896C256.718 77.368 257.672 77.104 258.968 77.104V78.814C258.344 78.814 257.906 78.934 257.654 79.174C257.402 79.402 257.276 79.804 257.276 80.38V81.082H259.112V82.756ZM269.858 81.082L263.774 95.662H261.65L263.666 90.838L259.76 81.082H262.046L264.836 88.642L267.734 81.082H269.858ZM278.134 82.54C278.482 82.084 278.956 81.7 279.556 81.388C280.156 81.076 280.834 80.92 281.59 80.92C282.454 80.92 283.24 81.136 283.948 81.568C284.668 81.988 285.232 82.582 285.64 83.35C286.048 84.118 286.252 85 286.252 85.996C286.252 86.992 286.048 87.886 285.64 88.678C285.232 89.458 284.668 90.07 283.948 90.514C283.24 90.946 282.454 91.162 281.59 91.162C280.834 91.162 280.162 91.012 279.574 90.712C278.986 90.4 278.506 90.016 278.134 89.56V95.716H276.082V81.082H278.134V82.54ZM284.164 85.996C284.164 85.312 284.02 84.724 283.732 84.232C283.456 83.728 283.084 83.35 282.616 83.098C282.16 82.834 281.668 82.702 281.14 82.702C280.624 82.702 280.132 82.834 279.664 83.098C279.208 83.362 278.836 83.746 278.548 84.25C278.272 84.754 278.134 85.348 278.134 86.032C278.134 86.716 278.272 87.316 278.548 87.832C278.836 88.336 279.208 88.72 279.664 88.984C280.132 89.248 280.624 89.38 281.14 89.38C281.668 89.38 282.16 89.248 282.616 88.984C283.084 88.708 283.456 88.312 283.732 87.796C284.02 87.28 284.164 86.68 284.164 85.996ZM290.334 82.522C290.634 82.018 291.03 81.628 291.522 81.352C292.026 81.064 292.62 80.92 293.304 80.92V83.044H292.782C291.978 83.044 291.366 83.248 290.946 83.656C290.538 84.064 290.334 84.772 290.334 85.78V91H288.282V81.082H290.334V82.522ZM299.492 91.162C298.556 91.162 297.71 90.952 296.954 90.532C296.198 90.1 295.604 89.5 295.172 88.732C294.74 87.952 294.524 87.052 294.524 86.032C294.524 85.024 294.746 84.13 295.19 83.35C295.634 82.57 296.24 81.97 297.008 81.55C297.776 81.13 298.634 80.92 299.582 80.92C300.53 80.92 301.388 81.13 302.156 81.55C302.924 81.97 303.53 82.57 303.974 83.35C304.418 84.13 304.64 85.024 304.64 86.032C304.64 87.04 304.412 87.934 303.956 88.714C303.5 89.494 302.876 90.1 302.084 90.532C301.304 90.952 300.44 91.162 299.492 91.162ZM299.492 89.38C300.02 89.38 300.512 89.254 300.968 89.002C301.436 88.75 301.814 88.372 302.102 87.868C302.39 87.364 302.534 86.752 302.534 86.032C302.534 85.312 302.396 84.706 302.12 84.214C301.844 83.71 301.478 83.332 301.022 83.08C300.566 82.828 300.074 82.702 299.546 82.702C299.018 82.702 298.526 82.828 298.07 83.08C297.626 83.332 297.272 83.71 297.008 84.214C296.744 84.706 296.612 85.312 296.612 86.032C296.612 87.1 296.882 87.928 297.422 88.516C297.974 89.092 298.664 89.38 299.492 89.38ZM307.712 79.768C307.34 79.768 307.028 79.642 306.776 79.39C306.524 79.138 306.398 78.826 306.398 78.454C306.398 78.082 306.524 77.77 306.776 77.518C307.028 77.266 307.34 77.14 307.712 77.14C308.072 77.14 308.378 77.266 308.63 77.518C308.882 77.77 309.008 78.082 309.008 78.454C309.008 78.826 308.882 79.138 308.63 79.39C308.378 79.642 308.072 79.768 307.712 79.768ZM308.72 92.944C308.72 93.916 308.474 94.618 307.982 95.05C307.502 95.494 306.8 95.716 305.876 95.716H304.814V93.988H305.516C305.936 93.988 306.23 93.904 306.398 93.736C306.578 93.58 306.668 93.316 306.668 92.944V81.082H308.72V92.944ZM320.504 85.798C320.504 86.17 320.48 86.506 320.432 86.806H312.854C312.914 87.598 313.208 88.234 313.736 88.714C314.264 89.194 314.912 89.434 315.68 89.434C316.784 89.434 317.564 88.972 318.02 88.048H320.234C319.934 88.96 319.388 89.71 318.596 90.298C317.816 90.874 316.844 91.162 315.68 91.162C314.732 91.162 313.88 90.952 313.124 90.532C312.38 90.1 311.792 89.5 311.36 88.732C310.94 87.952 310.73 87.052 310.73 86.032C310.73 85.012 310.934 84.118 311.342 83.35C311.762 82.57 312.344 81.97 313.088 81.55C313.844 81.13 314.708 80.92 315.68 80.92C316.616 80.92 317.45 81.124 318.182 81.532C318.914 81.94 319.484 82.516 319.892 83.26C320.3 83.992 320.504 84.838 320.504 85.798ZM318.362 85.15C318.35 84.394 318.08 83.788 317.552 83.332C317.024 82.876 316.37 82.648 315.59 82.648C314.882 82.648 314.276 82.876 313.772 83.332C313.268 83.776 312.968 84.382 312.872 85.15H318.362ZM321.84 86.032C321.84 85.012 322.044 84.118 322.452 83.35C322.872 82.57 323.448 81.97 324.18 81.55C324.912 81.13 325.752 80.92 326.7 80.92C327.9 80.92 328.89 81.208 329.67 81.784C330.462 82.348 330.996 83.158 331.272 84.214H329.058C328.878 83.722 328.59 83.338 328.194 83.062C327.798 82.786 327.3 82.648 326.7 82.648C325.86 82.648 325.188 82.948 324.684 83.548C324.192 84.136 323.946 84.964 323.946 86.032C323.946 87.1 324.192 87.934 324.684 88.534C325.188 89.134 325.86 89.434 326.7 89.434C327.888 89.434 328.674 88.912 329.058 87.868H331.272C330.984 88.876 330.444 89.68 329.652 90.28C328.86 90.868 327.876 91.162 326.7 91.162C325.752 91.162 324.912 90.952 324.18 90.532C323.448 90.1 322.872 89.5 322.452 88.732C322.044 87.952 321.84 87.052 321.84 86.032ZM335.711 82.756V88.246C335.711 88.618 335.795 88.888 335.963 89.056C336.143 89.212 336.443 89.29 336.863 89.29H338.123V91H336.503C335.579 91 334.871 90.784 334.379 90.352C333.887 89.92 333.641 89.218 333.641 88.246V82.756H332.471V81.082H333.641V78.616H335.711V81.082H338.123V82.756H335.711ZM28.402 109.522C28.702 109.018 29.098 108.628 29.59 108.352C30.094 108.064 30.688 107.92 31.372 107.92V110.044H30.85C30.046 110.044 29.434 110.248 29.014 110.656C28.606 111.064 28.402 111.772 28.402 112.78V118H26.35V108.082H28.402V109.522ZM37.5602 118.162C36.6242 118.162 35.7782 117.952 35.0222 117.532C34.2662 117.1 33.6722 116.5 33.2402 115.732C32.8082 114.952 32.5922 114.052 32.5922 113.032C32.5922 112.024 32.8142 111.13 33.2582 110.35C33.7022 109.57 34.3082 108.97 35.0762 108.55C35.8442 108.13 36.7022 107.92 37.6502 107.92C38.5982 107.92 39.4562 108.13 40.2242 108.55C40.9922 108.97 41.5982 109.57 42.0422 110.35C42.4862 111.13 42.7082 112.024 42.7082 113.032C42.7082 114.04 42.4802 114.934 42.0242 115.714C41.5682 116.494 40.9442 117.1 40.1522 117.532C39.3722 117.952 38.5082 118.162 37.5602 118.162ZM37.5602 116.38C38.0882 116.38 38.5802 116.254 39.0362 116.002C39.5042 115.75 39.8822 115.372 40.1702 114.868C40.4582 114.364 40.6022 113.752 40.6022 113.032C40.6022 112.312 40.4642 111.706 40.1882 111.214C39.9122 110.71 39.5462 110.332 39.0902 110.08C38.6342 109.828 38.1422 109.702 37.6142 109.702C37.0862 109.702 36.5942 109.828 36.1382 110.08C35.6942 110.332 35.3402 110.71 35.0762 111.214C34.8122 111.706 34.6802 112.312 34.6802 113.032C34.6802 114.1 34.9502 114.928 35.4902 115.516C36.0422 116.092 36.7322 116.38 37.5602 116.38ZM44.0527 112.996C44.0527 112 44.2567 111.118 44.6647 110.35C45.0847 109.582 45.6487 108.988 46.3567 108.568C47.0767 108.136 47.8687 107.92 48.7327 107.92C49.5127 107.92 50.1907 108.076 50.7667 108.388C51.3547 108.688 51.8227 109.066 52.1707 109.522V108.082H54.2407V118H52.1707V116.524C51.8227 116.992 51.3487 117.382 50.7487 117.694C50.1487 118.006 49.4647 118.162 48.6967 118.162C47.8447 118.162 47.0647 117.946 46.3567 117.514C45.6487 117.07 45.0847 116.458 44.6647 115.678C44.2567 114.886 44.0527 113.992 44.0527 112.996ZM52.1707 113.032C52.1707 112.348 52.0267 111.754 51.7387 111.25C51.4627 110.746 51.0967 110.362 50.6407 110.098C50.1847 109.834 49.6927 109.702 49.1647 109.702C48.6367 109.702 48.1447 109.834 47.6887 110.098C47.2327 110.35 46.8607 110.728 46.5727 111.232C46.2967 111.724 46.1587 112.312 46.1587 112.996C46.1587 113.68 46.2967 114.28 46.5727 114.796C46.8607 115.312 47.2327 115.708 47.6887 115.984C48.1567 116.248 48.6487 116.38 49.1647 116.38C49.6927 116.38 50.1847 116.248 50.6407 115.984C51.0967 115.72 51.4627 115.336 51.7387 114.832C52.0267 114.316 52.1707 113.716 52.1707 113.032ZM56.2519 112.996C56.2519 112 56.4559 111.118 56.8639 110.35C57.2839 109.582 57.8479 108.988 58.5559 108.568C59.2759 108.136 60.0739 107.92 60.9499 107.92C61.5979 107.92 62.2339 108.064 62.8579 108.352C63.4939 108.628 63.9979 109 64.3699 109.468V104.68H66.4399V118H64.3699V116.506C64.0339 116.986 63.5659 117.382 62.9659 117.694C62.3779 118.006 61.6999 118.162 60.9319 118.162C60.0679 118.162 59.2759 117.946 58.5559 117.514C57.8479 117.07 57.2839 116.458 56.8639 115.678C56.4559 114.886 56.2519 113.992 56.2519 112.996ZM64.3699 113.032C64.3699 112.348 64.2259 111.754 63.9379 111.25C63.6619 110.746 63.2959 110.362 62.8399 110.098C62.3839 109.834 61.8919 109.702 61.3639 109.702C60.8359 109.702 60.3439 109.834 59.8879 110.098C59.4319 110.35 59.0599 110.728 58.7719 111.232C58.4959 111.724 58.3579 112.312 58.3579 112.996C58.3579 113.68 58.4959 114.28 58.7719 114.796C59.0599 115.312 59.4319 115.708 59.8879 115.984C60.3559 116.248 60.8479 116.38 61.3639 116.38C61.8919 116.38 62.3839 116.248 62.8399 115.984C63.2959 115.72 63.6619 115.336 63.9379 114.832C64.2259 114.316 64.3699 113.716 64.3699 113.032ZM71.1872 109.558C71.5352 109.078 72.0092 108.688 72.6092 108.388C73.2212 108.076 73.8992 107.92 74.6432 107.92C75.5192 107.92 76.3112 108.13 77.0192 108.55C77.7272 108.97 78.2852 109.57 78.6932 110.35C79.1012 111.118 79.3052 112 79.3052 112.996C79.3052 113.992 79.1012 114.886 78.6932 115.678C78.2852 116.458 77.7212 117.07 77.0012 117.514C76.2932 117.946 75.5072 118.162 74.6432 118.162C73.8752 118.162 73.1912 118.012 72.5912 117.712C72.0032 117.412 71.5352 117.028 71.1872 116.56V118H69.1352V104.68H71.1872V109.558ZM77.2172 112.996C77.2172 112.312 77.0732 111.724 76.7852 111.232C76.5092 110.728 76.1372 110.35 75.6692 110.098C75.2132 109.834 74.7212 109.702 74.1932 109.702C73.6772 109.702 73.1852 109.834 72.7172 110.098C72.2612 110.362 71.8892 110.746 71.6012 111.25C71.3252 111.754 71.1872 112.348 71.1872 113.032C71.1872 113.716 71.3252 114.316 71.6012 114.832C71.8892 115.336 72.2612 115.72 72.7172 115.984C73.1852 116.248 73.6772 116.38 74.1932 116.38C74.7212 116.38 75.2132 116.248 75.6692 115.984C76.1372 115.708 76.5092 115.312 76.7852 114.796C77.0732 114.28 77.2172 113.68 77.2172 112.996ZM83.3864 104.68V118H81.3344V104.68H83.3864ZM90.3825 118.162C89.4465 118.162 88.6005 117.952 87.8445 117.532C87.0885 117.1 86.4945 116.5 86.0625 115.732C85.6305 114.952 85.4145 114.052 85.4145 113.032C85.4145 112.024 85.6365 111.13 86.0805 110.35C86.5245 109.57 87.1305 108.97 87.8985 108.55C88.6665 108.13 89.5245 107.92 90.4725 107.92C91.4205 107.92 92.2785 108.13 93.0465 108.55C93.8145 108.97 94.4205 109.57 94.8645 110.35C95.3085 111.13 95.5305 112.024 95.5305 113.032C95.5305 114.04 95.3025 114.934 94.8465 115.714C94.3905 116.494 93.7665 117.1 92.9745 117.532C92.1945 117.952 91.3305 118.162 90.3825 118.162ZM90.3825 116.38C90.9105 116.38 91.4025 116.254 91.8585 116.002C92.3265 115.75 92.7045 115.372 92.9925 114.868C93.2805 114.364 93.4245 113.752 93.4245 113.032C93.4245 112.312 93.2865 111.706 93.0105 111.214C92.7345 110.71 92.3685 110.332 91.9125 110.08C91.4565 109.828 90.9645 109.702 90.4365 109.702C89.9085 109.702 89.4165 109.828 88.9605 110.08C88.5165 110.332 88.1625 110.71 87.8985 111.214C87.6345 111.706 87.5025 112.312 87.5025 113.032C87.5025 114.1 87.7725 114.928 88.3125 115.516C88.8645 116.092 89.5545 116.38 90.3825 116.38ZM96.875 113.032C96.875 112.012 97.079 111.118 97.487 110.35C97.907 109.57 98.483 108.97 99.215 108.55C99.947 108.13 100.787 107.92 101.735 107.92C102.935 107.92 103.925 108.208 104.705 108.784C105.497 109.348 106.031 110.158 106.307 111.214H104.093C103.913 110.722 103.625 110.338 103.229 110.062C102.833 109.786 102.335 109.648 101.735 109.648C100.895 109.648 100.223 109.948 99.719 110.548C99.227 111.136 98.981 111.964 98.981 113.032C98.981 114.1 99.227 114.934 99.719 115.534C100.223 116.134 100.895 116.434 101.735 116.434C102.923 116.434 103.709 115.912 104.093 114.868H106.307C106.019 115.876 105.479 116.68 104.687 117.28C103.895 117.868 102.911 118.162 101.735 118.162C100.787 118.162 99.947 117.952 99.215 117.532C98.483 117.1 97.907 116.5 97.487 115.732C97.079 114.952 96.875 114.052 96.875 113.032ZM112.276 113.05L116.848 118H114.076L110.404 113.734V118H108.352V104.68H110.404V112.42L114.004 108.082H116.848L112.276 113.05ZM121.919 118.162C121.139 118.162 120.437 118.024 119.813 117.748C119.201 117.46 118.715 117.076 118.355 116.596C117.995 116.104 117.803 115.558 117.779 114.958H119.903C119.939 115.378 120.137 115.732 120.497 116.02C120.869 116.296 121.331 116.434 121.883 116.434C122.459 116.434 122.903 116.326 123.215 116.11C123.539 115.882 123.701 115.594 123.701 115.246C123.701 114.874 123.521 114.598 123.161 114.418C122.813 114.238 122.255 114.04 121.487 113.824C120.743 113.62 120.137 113.422 119.669 113.23C119.201 113.038 118.793 112.744 118.445 112.348C118.109 111.952 117.941 111.43 117.941 110.782C117.941 110.254 118.097 109.774 118.409 109.342C118.721 108.898 119.165 108.55 119.741 108.298C120.329 108.046 121.001 107.92 121.757 107.92C122.885 107.92 123.791 108.208 124.475 108.784C125.171 109.348 125.543 110.122 125.591 111.106H123.539C123.503 110.662 123.323 110.308 122.999 110.044C122.675 109.78 122.237 109.648 121.685 109.648C121.145 109.648 120.731 109.75 120.443 109.954C120.155 110.158 120.011 110.428 120.011 110.764C120.011 111.028 120.107 111.25 120.299 111.43C120.491 111.61 120.725 111.754 121.001 111.862C121.277 111.958 121.685 112.084 122.225 112.24C122.945 112.432 123.533 112.63 123.989 112.834C124.457 113.026 124.859 113.314 125.195 113.698C125.531 114.082 125.705 114.592 125.717 115.228C125.717 115.792 125.561 116.296 125.249 116.74C124.937 117.184 124.493 117.532 123.917 117.784C123.353 118.036 122.687 118.162 121.919 118.162Z" fill="#A3A5AE"/>
<g clip-path="url(#clip0)">
<path d="M349.842 160.158C340.316 150.595 324.94 150.633 315.414 160.158C307.389 168.184 305.964 180.598 311.889 190.161L309.376 192.711L308.02 198.855L312.234 203.069L317.327 200.661L319.839 198.111C324.501 201.004 330.007 202.23 335.456 201.59C340.906 200.95 345.977 198.481 349.842 194.586C359.405 185.06 359.367 169.684 349.842 160.158Z" fill="#676E74"/>
<path d="M317.327 200.661L319.839 198.111C324.501 201.004 330.007 202.23 335.456 201.59C340.906 200.95 345.977 198.481 349.842 194.586C359.405 185.06 359.367 169.684 349.842 160.158L309.582 200.418L312.234 203.069L317.327 200.661Z" fill="#474F54"/>
<path d="M347.213 162.787C345.3 160.869 343.026 159.348 340.523 158.311C338.02 157.274 335.337 156.742 332.628 156.746C321.236 156.746 312 165.98 312 177.372C311.996 180.081 312.528 182.765 313.565 185.268C314.602 187.771 316.123 190.045 318.041 191.958C319.955 193.876 322.228 195.397 324.731 196.433C327.234 197.47 329.918 198.002 332.627 197.998C344.019 197.998 353.253 188.764 353.253 177.372C353.257 174.663 352.725 171.98 351.688 169.477C350.651 166.974 349.13 164.7 347.212 162.787H347.213Z" fill="#64E1DC"/>
<path d="M353.254 177.372C353.258 174.663 352.726 171.98 351.689 169.477C350.652 166.974 349.131 164.7 347.213 162.787L318.043 191.957C319.956 193.875 322.229 195.397 324.732 196.434C327.235 197.471 329.918 198.003 332.627 198C344.019 198 353.253 188.765 353.253 177.373L353.254 177.372Z" fill="#00C8C8"/>
<path d="M349.239 176.41C349.055 176.103 346.259 171.496 341.958 168.042C339.328 165.929 336.136 164.246 332.628 164.246C323.386 164.246 316.314 175.915 316.018 176.411L315.442 177.372L316.017 178.333C316.201 178.642 318.997 183.249 323.297 186.703C325.928 188.815 329.12 190.498 332.627 190.498C341.87 190.498 348.942 178.83 349.239 178.333L349.813 177.373L349.239 176.411V176.41Z" fill="#EFEFF4"/>
<path d="M349.239 178.333L349.813 177.373L349.239 176.411C349.055 176.103 346.259 171.496 341.958 168.042L323.298 186.702C325.928 188.815 329.12 190.498 332.628 190.498C341.87 190.498 348.942 178.83 349.238 178.333H349.239Z" fill="#DADAE5"/>
<path d="M336.604 173.396C336.083 172.873 335.463 172.457 334.781 172.174C334.098 171.891 333.367 171.746 332.628 171.746C331.136 171.748 329.706 172.341 328.652 173.396C327.597 174.45 327.004 175.88 327.002 177.372C327.002 178.923 327.633 180.33 328.652 181.348C329.173 181.871 329.793 182.286 330.475 182.57C331.158 182.853 331.889 182.998 332.628 182.998C334.119 182.996 335.549 182.403 336.604 181.348C337.658 180.293 338.251 178.863 338.253 177.372C338.253 175.822 337.623 174.415 336.604 173.396Z" fill="#64E1DC"/>
<path d="M338.253 177.372C338.253 175.822 337.623 174.415 336.604 173.396L328.652 181.348C329.173 181.871 329.793 182.287 330.475 182.57C331.158 182.853 331.889 182.998 332.628 182.998C334.119 182.996 335.549 182.403 336.604 181.348C337.658 180.293 338.251 178.863 338.253 177.372Z" fill="#00C8C8"/>
<path d="M333.954 176.046C333.736 175.827 333.468 175.666 333.172 175.576C332.877 175.486 332.564 175.47 332.261 175.53C331.958 175.59 331.674 175.723 331.436 175.919C331.197 176.115 331.01 176.367 330.892 176.652C330.774 176.937 330.728 177.247 330.758 177.554C330.788 177.862 330.894 178.157 331.066 178.413C331.238 178.67 331.47 178.88 331.743 179.026C332.015 179.171 332.319 179.247 332.628 179.246C332.998 179.245 333.36 179.135 333.668 178.929C333.976 178.723 334.216 178.43 334.358 178.088C334.5 177.746 334.537 177.369 334.465 177.006C334.393 176.642 334.215 176.308 333.954 176.046Z" fill="#676E74"/>
<path d="M334.503 177.372C334.503 176.855 334.293 176.386 333.953 176.046L331.303 178.698C331.565 178.959 331.899 179.137 332.263 179.209C332.626 179.281 333.003 179.244 333.345 179.102C333.687 178.96 333.98 178.72 334.186 178.412C334.392 178.104 334.502 177.742 334.503 177.372Z" fill="#474F54"/>
<path d="M313.333 196.667L309.376 192.71L293 209.049L296.975 213.025L300.951 217L317.327 200.661L313.333 196.667Z" fill="#575C60"/>
<path d="M317.327 200.661L313.333 196.667L296.975 213.025L300.951 217L317.327 200.661Z" fill="#333637"/>
</g>
<defs>
<filter id="filter0_dd" x="0" y="5" width="383" height="234" filterUnits="userSpaceOnUse" color-interpolation-filters="sRGB">
<feFlood flood-opacity="0" result="BackgroundImageFix"/>
<feColorMatrix in="SourceAlpha" type="matrix" values="0 0 0 0 0 0 0 0 0 0 0 0 0 0 0 0 0 0 127 0"/>
<feOffset dx="4" dy="4"/>
<feGaussianBlur stdDeviation="2"/>
<feColorMatrix type="matrix" values="0 0 0 0 0 0 0 0 0 0 0 0 0 0 0 0 0 0 0.25 0"/>
<feBlend mode="normal" in2="BackgroundImageFix" result="effect1_dropShadow"/>
<feColorMatrix in="SourceAlpha" type="matrix" values="0 0 0 0 0 0 0 0 0 0 0 0 0 0 0 0 0 0 127 0"/>
<feOffset dx="-4" dy="4"/>
<feGaussianBlur stdDeviation="2"/>
<feColorMatrix type="matrix" values="0 0 0 0 0 0 0 0 0 0 0 0 0 0 0 0 0 0 0.25 0"/>
<feBlend mode="normal" in2="effect1_dropShadow" result="effect2_dropShadow"/>
<feBlend mode="normal" in="SourceGraphic" in2="effect2_dropShadow" result="shape"/>
</filter>
<clipPath id="clip0">
<rect width="64" height="64" fill="white" transform="translate(293 153)"/>
</clipPath>
</defs>
</svg>
