<svg width="383" height="239" viewBox="0 0 383 239" fill="none" xmlns="http://www.w3.org/2000/svg">
<g filter="url(#filter0_dd)">
<rect x="8" y="5" width="367" height="226" fill="white"/>
</g>
<line x1="8" y1="2.5" x2="375" y2="2.5" stroke="#EA5353" stroke-width="5"/>
<path d="M42.01 27.94V32.05H36.43V49H31.3V32.05H25.72V27.94H42.01ZM60.3646 40.36C60.3646 40.84 60.3346 41.34 60.2746 41.86H48.6646C48.7446 42.9 49.0746 43.7 49.6546 44.26C50.2546 44.8 50.9846 45.07 51.8446 45.07C53.1246 45.07 54.0146 44.53 54.5146 43.45H59.9746C59.6946 44.55 59.1846 45.54 58.4446 46.42C57.7246 47.3 56.8146 47.99 55.7146 48.49C54.6146 48.99 53.3846 49.24 52.0246 49.24C50.3846 49.24 48.9246 48.89 47.6446 48.19C46.3646 47.49 45.3646 46.49 44.6446 45.19C43.9246 43.89 43.5646 42.37 43.5646 40.63C43.5646 38.89 43.9146 37.37 44.6146 36.07C45.3346 34.77 46.3346 33.77 47.6146 33.07C48.8946 32.37 50.3646 32.02 52.0246 32.02C53.6446 32.02 55.0846 32.36 56.3446 33.04C57.6046 33.72 58.5846 34.69 59.2846 35.95C60.0046 37.21 60.3646 38.68 60.3646 40.36ZM55.1146 39.01C55.1146 38.13 54.8146 37.43 54.2146 36.91C53.6146 36.39 52.8646 36.13 51.9646 36.13C51.1046 36.13 50.3746 36.38 49.7746 36.88C49.1946 37.38 48.8346 38.09 48.6946 39.01H55.1146ZM62.0509 40.6C62.0509 38.88 62.3709 37.37 63.0109 36.07C63.6709 34.77 64.5609 33.77 65.6809 33.07C66.8009 32.37 68.0509 32.02 69.4309 32.02C70.6109 32.02 71.6409 32.26 72.5209 32.74C73.4209 33.22 74.1109 33.85 74.5909 34.63V32.26H79.7209V49H74.5909V46.63C74.0909 47.41 73.3909 48.04 72.4909 48.52C71.6109 49 70.5809 49.24 69.4009 49.24C68.0409 49.24 66.8009 48.89 65.6809 48.19C64.5609 47.47 63.6709 46.46 63.0109 45.16C62.3709 43.84 62.0509 42.32 62.0509 40.6ZM74.5909 40.63C74.5909 39.35 74.2309 38.34 73.5109 37.6C72.8109 36.86 71.9509 36.49 70.9309 36.49C69.9109 36.49 69.0409 36.86 68.3209 37.6C67.6209 38.32 67.2709 39.32 67.2709 40.6C67.2709 41.88 67.6209 42.9 68.3209 43.66C69.0409 44.4 69.9109 44.77 70.9309 44.77C71.9509 44.77 72.8109 44.4 73.5109 43.66C74.2309 42.92 74.5909 41.91 74.5909 40.63ZM104.792 32.08C106.872 32.08 108.522 32.71 109.742 33.97C110.982 35.23 111.602 36.98 111.602 39.22V49H106.502V39.91C106.502 38.83 106.212 38 105.632 37.42C105.072 36.82 104.292 36.52 103.292 36.52C102.292 36.52 101.502 36.82 100.922 37.42C100.362 38 100.082 38.83 100.082 39.91V49H94.9823V39.91C94.9823 38.83 94.6923 38 94.1123 37.42C93.5523 36.82 92.7723 36.52 91.7723 36.52C90.7723 36.52 89.9823 36.82 89.4023 37.42C88.8423 38 88.5623 38.83 88.5623 39.91V49H83.4323V32.26H88.5623V34.36C89.0823 33.66 89.7623 33.11 90.6023 32.71C91.4423 32.29 92.3923 32.08 93.4523 32.08C94.7123 32.08 95.8323 32.35 96.8123 32.89C97.8123 33.43 98.5923 34.2 99.1523 35.2C99.7323 34.28 100.522 33.53 101.522 32.95C102.522 32.37 103.612 32.08 104.792 32.08ZM134.298 38.2C135.518 38.46 136.498 39.07 137.238 40.03C137.978 40.97 138.348 42.05 138.348 43.27C138.348 45.03 137.728 46.43 136.488 47.47C135.268 48.49 133.558 49 131.358 49H121.548V27.94H131.028C133.168 27.94 134.838 28.43 136.038 29.41C137.258 30.39 137.868 31.72 137.868 33.4C137.868 34.64 137.538 35.67 136.878 36.49C136.238 37.31 135.378 37.88 134.298 38.2ZM126.678 36.46H130.038C130.878 36.46 131.518 36.28 131.958 35.92C132.418 35.54 132.648 34.99 132.648 34.27C132.648 33.55 132.418 33 131.958 32.62C131.518 32.24 130.878 32.05 130.038 32.05H126.678V36.46ZM130.458 44.86C131.318 44.86 131.978 44.67 132.438 44.29C132.918 43.89 133.158 43.32 133.158 42.58C133.158 41.84 132.908 41.26 132.408 40.84C131.928 40.42 131.258 40.21 130.398 40.21H126.678V44.86H130.458ZM157.853 32.26V49H152.723V46.72C152.203 47.46 151.493 48.06 150.593 48.52C149.713 48.96 148.733 49.18 147.653 49.18C146.373 49.18 145.243 48.9 144.263 48.34C143.283 47.76 142.523 46.93 141.983 45.85C141.443 44.77 141.173 43.5 141.173 42.04V32.26H146.273V41.35C146.273 42.47 146.563 43.34 147.143 43.96C147.723 44.58 148.503 44.89 149.483 44.89C150.483 44.89 151.273 44.58 151.853 43.96C152.433 43.34 152.723 42.47 152.723 41.35V32.26H157.853ZM164.118 30.52C163.218 30.52 162.478 30.26 161.898 29.74C161.338 29.2 161.058 28.54 161.058 27.76C161.058 26.96 161.338 26.3 161.898 25.78C162.478 25.24 163.218 24.97 164.118 24.97C164.998 24.97 165.718 25.24 166.278 25.78C166.858 26.3 167.148 26.96 167.148 27.76C167.148 28.54 166.858 29.2 166.278 29.74C165.718 30.26 164.998 30.52 164.118 30.52ZM166.668 32.26V49H161.538V32.26H166.668ZM175.515 26.8V49H170.385V26.8H175.515ZM178.213 40.6C178.213 38.88 178.533 37.37 179.173 36.07C179.833 34.77 180.723 33.77 181.843 33.07C182.963 32.37 184.213 32.02 185.593 32.02C186.693 32.02 187.693 32.25 188.593 32.71C189.513 33.17 190.233 33.79 190.753 34.57V26.8H195.883V49H190.753V46.6C190.273 47.4 189.583 48.04 188.683 48.52C187.803 49 186.773 49.24 185.593 49.24C184.213 49.24 182.963 48.89 181.843 48.19C180.723 47.47 179.833 46.46 179.173 45.16C178.533 43.84 178.213 42.32 178.213 40.6ZM190.753 40.63C190.753 39.35 190.393 38.34 189.673 37.6C188.973 36.86 188.113 36.49 187.093 36.49C186.073 36.49 185.203 36.86 184.483 37.6C183.783 38.32 183.433 39.32 183.433 40.6C183.433 41.88 183.783 42.9 184.483 43.66C185.203 44.4 186.073 44.77 187.093 44.77C188.113 44.77 188.973 44.4 189.673 43.66C190.393 42.92 190.753 41.91 190.753 40.63ZM215.374 40.36C215.374 40.84 215.344 41.34 215.284 41.86H203.674C203.754 42.9 204.084 43.7 204.664 44.26C205.264 44.8 205.994 45.07 206.854 45.07C208.134 45.07 209.024 44.53 209.524 43.45H214.984C214.704 44.55 214.194 45.54 213.454 46.42C212.734 47.3 211.824 47.99 210.724 48.49C209.624 48.99 208.394 49.24 207.034 49.24C205.394 49.24 203.934 48.89 202.654 48.19C201.374 47.49 200.374 46.49 199.654 45.19C198.934 43.89 198.574 42.37 198.574 40.63C198.574 38.89 198.924 37.37 199.624 36.07C200.344 34.77 201.344 33.77 202.624 33.07C203.904 32.37 205.374 32.02 207.034 32.02C208.654 32.02 210.094 32.36 211.354 33.04C212.614 33.72 213.594 34.69 214.294 35.95C215.014 37.21 215.374 38.68 215.374 40.36ZM210.124 39.01C210.124 38.13 209.824 37.43 209.224 36.91C208.624 36.39 207.874 36.13 206.974 36.13C206.114 36.13 205.384 36.38 204.784 36.88C204.204 37.38 203.844 38.09 203.704 39.01H210.124ZM223.211 35.05C223.811 34.13 224.561 33.41 225.461 32.89C226.361 32.35 227.361 32.08 228.461 32.08V37.51H227.051C225.771 37.51 224.811 37.79 224.171 38.35C223.531 38.89 223.211 39.85 223.211 41.23V49H218.081V32.26H223.211V35.05Z" fill="#4C4E61"/>
<path d="M30.472 91.126C29.632 91.126 28.876 90.982 28.204 90.694C27.532 90.394 27.004 89.974 26.62 89.434C26.236 88.894 26.044 88.264 26.044 87.544H28.24C28.288 88.084 28.498 88.528 28.87 88.876C29.254 89.224 29.788 89.398 30.472 89.398C31.18 89.398 31.732 89.23 32.128 88.894C32.524 88.546 32.722 88.102 32.722 87.562C32.722 87.142 32.596 86.8 32.344 86.536C32.104 86.272 31.798 86.068 31.426 85.924C31.066 85.78 30.562 85.624 29.914 85.456C29.098 85.24 28.432 85.024 27.916 84.808C27.412 84.58 26.98 84.232 26.62 83.764C26.26 83.296 26.08 82.672 26.08 81.892C26.08 81.172 26.26 80.542 26.62 80.002C26.98 79.462 27.484 79.048 28.132 78.76C28.78 78.472 29.53 78.328 30.382 78.328C31.594 78.328 32.584 78.634 33.352 79.246C34.132 79.846 34.564 80.674 34.648 81.73H32.38C32.344 81.274 32.128 80.884 31.732 80.56C31.336 80.236 30.814 80.074 30.166 80.074C29.578 80.074 29.098 80.224 28.726 80.524C28.354 80.824 28.168 81.256 28.168 81.82C28.168 82.204 28.282 82.522 28.51 82.774C28.75 83.014 29.05 83.206 29.41 83.35C29.77 83.494 30.262 83.65 30.886 83.818C31.714 84.046 32.386 84.274 32.902 84.502C33.43 84.73 33.874 85.084 34.234 85.564C34.606 86.032 34.792 86.662 34.792 87.454C34.792 88.09 34.618 88.69 34.27 89.254C33.934 89.818 33.436 90.274 32.776 90.622C32.128 90.958 31.36 91.126 30.472 91.126ZM36.5293 86.032C36.5293 85.012 36.7333 84.118 37.1413 83.35C37.5613 82.57 38.1373 81.97 38.8693 81.55C39.6013 81.13 40.4413 80.92 41.3893 80.92C42.5893 80.92 43.5793 81.208 44.3593 81.784C45.1513 82.348 45.6853 83.158 45.9613 84.214H43.7473C43.5673 83.722 43.2793 83.338 42.8833 83.062C42.4873 82.786 41.9893 82.648 41.3893 82.648C40.5493 82.648 39.8773 82.948 39.3733 83.548C38.8813 84.136 38.6353 84.964 38.6353 86.032C38.6353 87.1 38.8813 87.934 39.3733 88.534C39.8773 89.134 40.5493 89.434 41.3893 89.434C42.5773 89.434 43.3633 88.912 43.7473 87.868H45.9613C45.6733 88.876 45.1333 89.68 44.3413 90.28C43.5493 90.868 42.5653 91.162 41.3893 91.162C40.4413 91.162 39.6013 90.952 38.8693 90.532C38.1373 90.1 37.5613 89.5 37.1413 88.732C36.7333 87.952 36.5293 87.052 36.5293 86.032ZM47.3223 85.996C47.3223 85 47.5263 84.118 47.9343 83.35C48.3543 82.582 48.9183 81.988 49.6263 81.568C50.3463 81.136 51.1383 80.92 52.0023 80.92C52.7823 80.92 53.4603 81.076 54.0363 81.388C54.6243 81.688 55.0923 82.066 55.4403 82.522V81.082H57.5103V91H55.4403V89.524C55.0923 89.992 54.6183 90.382 54.0183 90.694C53.4183 91.006 52.7343 91.162 51.9663 91.162C51.1143 91.162 50.3343 90.946 49.6263 90.514C48.9183 90.07 48.3543 89.458 47.9343 88.678C47.5263 87.886 47.3223 86.992 47.3223 85.996ZM55.4403 86.032C55.4403 85.348 55.2963 84.754 55.0083 84.25C54.7323 83.746 54.3663 83.362 53.9103 83.098C53.4543 82.834 52.9623 82.702 52.4343 82.702C51.9063 82.702 51.4143 82.834 50.9583 83.098C50.5023 83.35 50.1303 83.728 49.8423 84.232C49.5663 84.724 49.4283 85.312 49.4283 85.996C49.4283 86.68 49.5663 87.28 49.8423 87.796C50.1303 88.312 50.5023 88.708 50.9583 88.984C51.4263 89.248 51.9183 89.38 52.4343 89.38C52.9623 89.38 53.4543 89.248 53.9103 88.984C54.3663 88.72 54.7323 88.336 55.0083 87.832C55.2963 87.316 55.4403 86.716 55.4403 86.032ZM65.2095 80.92C65.9895 80.92 66.6855 81.082 67.2975 81.406C67.9215 81.73 68.4075 82.21 68.7555 82.846C69.1035 83.482 69.2775 84.25 69.2775 85.15V91H67.2435V85.456C67.2435 84.568 67.0215 83.89 66.5775 83.422C66.1335 82.942 65.5275 82.702 64.7595 82.702C63.9915 82.702 63.3795 82.942 62.9235 83.422C62.4795 83.89 62.2575 84.568 62.2575 85.456V91H60.2055V81.082H62.2575V82.216C62.5935 81.808 63.0195 81.49 63.5355 81.262C64.0635 81.034 64.6215 80.92 65.2095 80.92ZM75.4949 91.162C74.7149 91.162 74.0129 91.024 73.3889 90.748C72.7769 90.46 72.2909 90.076 71.9309 89.596C71.5709 89.104 71.3789 88.558 71.3549 87.958H73.4789C73.5149 88.378 73.7129 88.732 74.0729 89.02C74.4449 89.296 74.9069 89.434 75.4589 89.434C76.0349 89.434 76.4789 89.326 76.7909 89.11C77.1149 88.882 77.2769 88.594 77.2769 88.246C77.2769 87.874 77.0969 87.598 76.7369 87.418C76.3889 87.238 75.8309 87.04 75.0629 86.824C74.3189 86.62 73.7129 86.422 73.2449 86.23C72.7769 86.038 72.3689 85.744 72.0209 85.348C71.6849 84.952 71.5169 84.43 71.5169 83.782C71.5169 83.254 71.6729 82.774 71.9849 82.342C72.2969 81.898 72.7409 81.55 73.3169 81.298C73.9049 81.046 74.5769 80.92 75.3329 80.92C76.4609 80.92 77.3669 81.208 78.0509 81.784C78.7469 82.348 79.1189 83.122 79.1669 84.106H77.1149C77.0789 83.662 76.8989 83.308 76.5749 83.044C76.2509 82.78 75.8129 82.648 75.2609 82.648C74.7209 82.648 74.3069 82.75 74.0189 82.954C73.7309 83.158 73.5869 83.428 73.5869 83.764C73.5869 84.028 73.6829 84.25 73.8749 84.43C74.0669 84.61 74.3009 84.754 74.5769 84.862C74.8529 84.958 75.2609 85.084 75.8009 85.24C76.5209 85.432 77.1089 85.63 77.5649 85.834C78.0329 86.026 78.4349 86.314 78.7709 86.698C79.1069 87.082 79.2809 87.592 79.2929 88.228C79.2929 88.792 79.1369 89.296 78.8249 89.74C78.5129 90.184 78.0689 90.532 77.4929 90.784C76.9289 91.036 76.2629 91.162 75.4949 91.162ZM90.4879 91.162C89.5519 91.162 88.7059 90.952 87.9499 90.532C87.1939 90.1 86.5999 89.5 86.1679 88.732C85.7359 87.952 85.5199 87.052 85.5199 86.032C85.5199 85.024 85.7419 84.13 86.1859 83.35C86.6299 82.57 87.2359 81.97 88.0039 81.55C88.7719 81.13 89.6299 80.92 90.5779 80.92C91.5259 80.92 92.3839 81.13 93.1519 81.55C93.9199 81.97 94.5259 82.57 94.9699 83.35C95.4139 84.13 95.6359 85.024 95.6359 86.032C95.6359 87.04 95.4079 87.934 94.9519 88.714C94.4959 89.494 93.8719 90.1 93.0799 90.532C92.2999 90.952 91.4359 91.162 90.4879 91.162ZM90.4879 89.38C91.0159 89.38 91.5079 89.254 91.9639 89.002C92.4319 88.75 92.8099 88.372 93.0979 87.868C93.3859 87.364 93.5299 86.752 93.5299 86.032C93.5299 85.312 93.3919 84.706 93.1159 84.214C92.8399 83.71 92.4739 83.332 92.0179 83.08C91.5619 82.828 91.0699 82.702 90.5419 82.702C90.0139 82.702 89.5219 82.828 89.0659 83.08C88.6219 83.332 88.2679 83.71 88.0039 84.214C87.7399 84.706 87.6079 85.312 87.6079 86.032C87.6079 87.1 87.8779 87.928 88.4179 88.516C88.9699 89.092 89.6599 89.38 90.4879 89.38ZM106.646 81.082V91H104.594V89.83C104.27 90.238 103.844 90.562 103.316 90.802C102.8 91.03 102.248 91.144 101.66 91.144C100.88 91.144 100.178 90.982 99.5545 90.658C98.9425 90.334 98.4565 89.854 98.0965 89.218C97.7485 88.582 97.5745 87.814 97.5745 86.914V81.082H99.6085V86.608C99.6085 87.496 99.8305 88.18 100.274 88.66C100.718 89.128 101.324 89.362 102.092 89.362C102.86 89.362 103.466 89.128 103.91 88.66C104.366 88.18 104.594 87.496 104.594 86.608V81.082H106.646ZM111.406 82.522C111.706 82.018 112.102 81.628 112.594 81.352C113.098 81.064 113.692 80.92 114.376 80.92V83.044H113.854C113.05 83.044 112.438 83.248 112.018 83.656C111.61 84.064 111.406 84.772 111.406 85.78V91H109.354V81.082H111.406V82.522ZM123.332 82.756V88.246C123.332 88.618 123.416 88.888 123.584 89.056C123.764 89.212 124.064 89.29 124.484 89.29H125.744V91H124.124C123.2 91 122.492 90.784 122 90.352C121.508 89.92 121.262 89.218 121.262 88.246V82.756H120.092V81.082H121.262V78.616H123.332V81.082H125.744V82.756H123.332ZM126.951 85.996C126.951 85 127.155 84.118 127.563 83.35C127.983 82.582 128.547 81.988 129.255 81.568C129.975 81.136 130.767 80.92 131.631 80.92C132.411 80.92 133.089 81.076 133.665 81.388C134.253 81.688 134.721 82.066 135.069 82.522V81.082H137.139V91H135.069V89.524C134.721 89.992 134.247 90.382 133.647 90.694C133.047 91.006 132.363 91.162 131.595 91.162C130.743 91.162 129.963 90.946 129.255 90.514C128.547 90.07 127.983 89.458 127.563 88.678C127.155 87.886 126.951 86.992 126.951 85.996ZM135.069 86.032C135.069 85.348 134.925 84.754 134.637 84.25C134.361 83.746 133.995 83.362 133.539 83.098C133.083 82.834 132.591 82.702 132.063 82.702C131.535 82.702 131.043 82.834 130.587 83.098C130.131 83.35 129.759 83.728 129.471 84.232C129.195 84.724 129.057 85.312 129.057 85.996C129.057 86.68 129.195 87.28 129.471 87.796C129.759 88.312 130.131 88.708 130.587 88.984C131.055 89.248 131.547 89.38 132.063 89.38C132.591 89.38 133.083 89.248 133.539 88.984C133.995 88.72 134.361 88.336 134.637 87.832C134.925 87.316 135.069 86.716 135.069 86.032ZM141.886 77.68V91H139.834V77.68H141.886ZM153.67 85.798C153.67 86.17 153.646 86.506 153.598 86.806H146.02C146.08 87.598 146.374 88.234 146.902 88.714C147.43 89.194 148.078 89.434 148.846 89.434C149.95 89.434 150.73 88.972 151.186 88.048H153.4C153.1 88.96 152.554 89.71 151.762 90.298C150.982 90.874 150.01 91.162 148.846 91.162C147.898 91.162 147.046 90.952 146.29 90.532C145.546 90.1 144.958 89.5 144.526 88.732C144.106 87.952 143.896 87.052 143.896 86.032C143.896 85.012 144.1 84.118 144.508 83.35C144.928 82.57 145.51 81.97 146.254 81.55C147.01 81.13 147.874 80.92 148.846 80.92C149.782 80.92 150.616 81.124 151.348 81.532C152.08 81.94 152.65 82.516 153.058 83.26C153.466 83.992 153.67 84.838 153.67 85.798ZM151.528 85.15C151.516 84.394 151.246 83.788 150.718 83.332C150.19 82.876 149.536 82.648 148.756 82.648C148.048 82.648 147.442 82.876 146.938 83.332C146.434 83.776 146.134 84.382 146.038 85.15H151.528ZM160.694 80.92C161.474 80.92 162.17 81.082 162.782 81.406C163.406 81.73 163.892 82.21 164.24 82.846C164.588 83.482 164.762 84.25 164.762 85.15V91H162.728V85.456C162.728 84.568 162.506 83.89 162.062 83.422C161.618 82.942 161.012 82.702 160.244 82.702C159.476 82.702 158.864 82.942 158.408 83.422C157.964 83.89 157.742 84.568 157.742 85.456V91H155.69V81.082H157.742V82.216C158.078 81.808 158.504 81.49 159.02 81.262C159.548 81.034 160.106 80.92 160.694 80.92ZM169.773 82.756V88.246C169.773 88.618 169.857 88.888 170.025 89.056C170.205 89.212 170.505 89.29 170.925 89.29H172.185V91H170.565C169.641 91 168.933 90.784 168.441 90.352C167.949 89.92 167.703 89.218 167.703 88.246V82.756H166.533V81.082H167.703V78.616H169.773V81.082H172.185V82.756H169.773ZM183.756 80.92C184.536 80.92 185.232 81.082 185.844 81.406C186.468 81.73 186.954 82.21 187.302 82.846C187.65 83.482 187.824 84.25 187.824 85.15V91H185.79V85.456C185.79 84.568 185.568 83.89 185.124 83.422C184.68 82.942 184.074 82.702 183.306 82.702C182.538 82.702 181.926 82.942 181.47 83.422C181.026 83.89 180.804 84.568 180.804 85.456V91H178.752V81.082H180.804V82.216C181.14 81.808 181.566 81.49 182.082 81.262C182.61 81.034 183.168 80.92 183.756 80.92ZM199.532 85.798C199.532 86.17 199.508 86.506 199.46 86.806H191.882C191.942 87.598 192.236 88.234 192.764 88.714C193.292 89.194 193.94 89.434 194.708 89.434C195.812 89.434 196.592 88.972 197.048 88.048H199.262C198.962 88.96 198.416 89.71 197.624 90.298C196.844 90.874 195.872 91.162 194.708 91.162C193.76 91.162 192.908 90.952 192.152 90.532C191.408 90.1 190.82 89.5 190.388 88.732C189.968 87.952 189.758 87.052 189.758 86.032C189.758 85.012 189.962 84.118 190.37 83.35C190.79 82.57 191.372 81.97 192.116 81.55C192.872 81.13 193.736 80.92 194.708 80.92C195.644 80.92 196.478 81.124 197.21 81.532C197.942 81.94 198.512 82.516 198.92 83.26C199.328 83.992 199.532 84.838 199.532 85.798ZM197.39 85.15C197.378 84.394 197.108 83.788 196.58 83.332C196.052 82.876 195.398 82.648 194.618 82.648C193.91 82.648 193.304 82.876 192.8 83.332C192.296 83.776 191.996 84.382 191.9 85.15H197.39ZM203.945 82.756V88.246C203.945 88.618 204.029 88.888 204.197 89.056C204.377 89.212 204.677 89.29 205.097 89.29H206.357V91H204.737C203.813 91 203.105 90.784 202.613 90.352C202.121 89.92 201.875 89.218 201.875 88.246V82.756H200.705V81.082H201.875V78.616H203.945V81.082H206.357V82.756H203.945ZM221.568 81.082L218.49 91H216.33L214.332 83.674L212.334 91H210.174L207.078 81.082H209.166L211.236 89.056L213.342 81.082H215.484L217.5 89.02L219.552 81.082H221.568ZM227.404 91.162C226.468 91.162 225.622 90.952 224.866 90.532C224.11 90.1 223.516 89.5 223.084 88.732C222.652 87.952 222.436 87.052 222.436 86.032C222.436 85.024 222.658 84.13 223.102 83.35C223.546 82.57 224.152 81.97 224.92 81.55C225.688 81.13 226.546 80.92 227.494 80.92C228.442 80.92 229.3 81.13 230.068 81.55C230.836 81.97 231.442 82.57 231.886 83.35C232.33 84.13 232.552 85.024 232.552 86.032C232.552 87.04 232.324 87.934 231.868 88.714C231.412 89.494 230.788 90.1 229.996 90.532C229.216 90.952 228.352 91.162 227.404 91.162ZM227.404 89.38C227.932 89.38 228.424 89.254 228.88 89.002C229.348 88.75 229.726 88.372 230.014 87.868C230.302 87.364 230.446 86.752 230.446 86.032C230.446 85.312 230.308 84.706 230.032 84.214C229.756 83.71 229.39 83.332 228.934 83.08C228.478 82.828 227.986 82.702 227.458 82.702C226.93 82.702 226.438 82.828 225.982 83.08C225.538 83.332 225.184 83.71 224.92 84.214C224.656 84.706 224.524 85.312 224.524 86.032C224.524 87.1 224.794 87.928 225.334 88.516C225.886 89.092 226.576 89.38 227.404 89.38ZM236.632 82.522C236.932 82.018 237.328 81.628 237.82 81.352C238.324 81.064 238.918 80.92 239.602 80.92V83.044H239.08C238.276 83.044 237.664 83.248 237.244 83.656C236.836 84.064 236.632 84.772 236.632 85.78V91H234.58V81.082H236.632V82.522ZM245.413 86.05L249.985 91H247.213L243.541 86.734V91H241.489V77.68H243.541V85.42L247.141 81.082H249.985L245.413 86.05ZM258.525 82.756V88.246C258.525 88.618 258.609 88.888 258.777 89.056C258.957 89.212 259.257 89.29 259.677 89.29H260.937V91H259.317C258.393 91 257.685 90.784 257.193 90.352C256.701 89.92 256.455 89.218 256.455 88.246V82.756H255.285V81.082H256.455V78.616H258.525V81.082H260.937V82.756H258.525ZM267.131 91.162C266.195 91.162 265.349 90.952 264.593 90.532C263.837 90.1 263.243 89.5 262.811 88.732C262.379 87.952 262.163 87.052 262.163 86.032C262.163 85.024 262.385 84.13 262.829 83.35C263.273 82.57 263.879 81.97 264.647 81.55C265.415 81.13 266.273 80.92 267.221 80.92C268.169 80.92 269.027 81.13 269.795 81.55C270.563 81.97 271.169 82.57 271.613 83.35C272.057 84.13 272.279 85.024 272.279 86.032C272.279 87.04 272.051 87.934 271.595 88.714C271.139 89.494 270.515 90.1 269.723 90.532C268.943 90.952 268.079 91.162 267.131 91.162ZM267.131 89.38C267.659 89.38 268.151 89.254 268.607 89.002C269.075 88.75 269.453 88.372 269.741 87.868C270.029 87.364 270.173 86.752 270.173 86.032C270.173 85.312 270.035 84.706 269.759 84.214C269.483 83.71 269.117 83.332 268.661 83.08C268.205 82.828 267.713 82.702 267.185 82.702C266.657 82.702 266.165 82.828 265.709 83.08C265.265 83.332 264.911 83.71 264.647 84.214C264.383 84.706 264.251 85.312 264.251 86.032C264.251 87.1 264.521 87.928 265.061 88.516C265.613 89.092 266.303 89.38 267.131 89.38ZM278.299 86.032C278.299 85.012 278.503 84.118 278.911 83.35C279.331 82.57 279.907 81.97 280.639 81.55C281.371 81.13 282.211 80.92 283.159 80.92C284.359 80.92 285.349 81.208 286.129 81.784C286.921 82.348 287.455 83.158 287.731 84.214H285.517C285.337 83.722 285.049 83.338 284.653 83.062C284.257 82.786 283.759 82.648 283.159 82.648C282.319 82.648 281.647 82.948 281.143 83.548C280.651 84.136 280.405 84.964 280.405 86.032C280.405 87.1 280.651 87.934 281.143 88.534C281.647 89.134 282.319 89.434 283.159 89.434C284.347 89.434 285.133 88.912 285.517 87.868H287.731C287.443 88.876 286.903 89.68 286.111 90.28C285.319 90.868 284.335 91.162 283.159 91.162C282.211 91.162 281.371 90.952 280.639 90.532C279.907 90.1 279.331 89.5 278.911 88.732C278.503 87.952 278.299 87.052 278.299 86.032ZM291.828 82.522C292.128 82.018 292.524 81.628 293.016 81.352C293.52 81.064 294.114 80.92 294.798 80.92V83.044H294.276C293.472 83.044 292.86 83.248 292.44 83.656C292.032 84.064 291.828 84.772 291.828 85.78V91H289.776V81.082H291.828V82.522ZM305.774 85.798C305.774 86.17 305.75 86.506 305.702 86.806H298.124C298.184 87.598 298.478 88.234 299.006 88.714C299.534 89.194 300.182 89.434 300.95 89.434C302.054 89.434 302.834 88.972 303.29 88.048H305.504C305.204 88.96 304.658 89.71 303.866 90.298C303.086 90.874 302.114 91.162 300.95 91.162C300.002 91.162 299.15 90.952 298.394 90.532C297.65 90.1 297.062 89.5 296.63 88.732C296.21 87.952 296 87.052 296 86.032C296 85.012 296.204 84.118 296.612 83.35C297.032 82.57 297.614 81.97 298.358 81.55C299.114 81.13 299.978 80.92 300.95 80.92C301.886 80.92 302.72 81.124 303.452 81.532C304.184 81.94 304.754 82.516 305.162 83.26C305.57 83.992 305.774 84.838 305.774 85.798ZM303.632 85.15C303.62 84.394 303.35 83.788 302.822 83.332C302.294 82.876 301.64 82.648 300.86 82.648C300.152 82.648 299.546 82.876 299.042 83.332C298.538 83.776 298.238 84.382 298.142 85.15H303.632ZM307.109 85.996C307.109 85 307.313 84.118 307.721 83.35C308.141 82.582 308.705 81.988 309.413 81.568C310.133 81.136 310.925 80.92 311.789 80.92C312.569 80.92 313.247 81.076 313.823 81.388C314.411 81.688 314.879 82.066 315.227 82.522V81.082H317.297V91H315.227V89.524C314.879 89.992 314.405 90.382 313.805 90.694C313.205 91.006 312.521 91.162 311.753 91.162C310.901 91.162 310.121 90.946 309.413 90.514C308.705 90.07 308.141 89.458 307.721 88.678C307.313 87.886 307.109 86.992 307.109 85.996ZM315.227 86.032C315.227 85.348 315.083 84.754 314.795 84.25C314.519 83.746 314.153 83.362 313.697 83.098C313.241 82.834 312.749 82.702 312.221 82.702C311.693 82.702 311.201 82.834 310.745 83.098C310.289 83.35 309.917 83.728 309.629 84.232C309.353 84.724 309.215 85.312 309.215 85.996C309.215 86.68 309.353 87.28 309.629 87.796C309.917 88.312 310.289 88.708 310.745 88.984C311.213 89.248 311.705 89.38 312.221 89.38C312.749 89.38 313.241 89.248 313.697 88.984C314.153 88.72 314.519 88.336 314.795 87.832C315.083 87.316 315.227 86.716 315.227 86.032ZM322.387 82.756V88.246C322.387 88.618 322.471 88.888 322.639 89.056C322.819 89.212 323.119 89.29 323.539 89.29H324.799V91H323.179C322.255 91 321.547 90.784 321.055 90.352C320.563 89.92 320.317 89.218 320.317 88.246V82.756H319.147V81.082H320.317V78.616H322.387V81.082H324.799V82.756H322.387ZM335.78 85.798C335.78 86.17 335.756 86.506 335.708 86.806H328.13C328.19 87.598 328.484 88.234 329.012 88.714C329.54 89.194 330.188 89.434 330.956 89.434C332.06 89.434 332.84 88.972 333.296 88.048H335.51C335.21 88.96 334.664 89.71 333.872 90.298C333.092 90.874 332.12 91.162 330.956 91.162C330.008 91.162 329.156 90.952 328.4 90.532C327.656 90.1 327.068 89.5 326.636 88.732C326.216 87.952 326.006 87.052 326.006 86.032C326.006 85.012 326.21 84.118 326.618 83.35C327.038 82.57 327.62 81.97 328.364 81.55C329.12 81.13 329.984 80.92 330.956 80.92C331.892 80.92 332.726 81.124 333.458 81.532C334.19 81.94 334.76 82.516 335.168 83.26C335.576 83.992 335.78 84.838 335.78 85.798ZM333.638 85.15C333.626 84.394 333.356 83.788 332.828 83.332C332.3 82.876 331.646 82.648 330.866 82.648C330.158 82.648 329.552 82.876 329.048 83.332C328.544 83.776 328.244 84.382 328.148 85.15H333.638ZM28.744 109.756V115.246C28.744 115.618 28.828 115.888 28.996 116.056C29.176 116.212 29.476 116.29 29.896 116.29H31.156V118H29.536C28.612 118 27.904 117.784 27.412 117.352C26.92 116.92 26.674 116.218 26.674 115.246V109.756H25.504V108.082H26.674V105.616H28.744V108.082H31.156V109.756H28.744ZM38.1773 107.92C38.9333 107.92 39.6053 108.082 40.1933 108.406C40.7933 108.73 41.2613 109.21 41.5973 109.846C41.9453 110.482 42.1193 111.25 42.1193 112.15V118H40.0853V112.456C40.0853 111.568 39.8633 110.89 39.4193 110.422C38.9753 109.942 38.3693 109.702 37.6013 109.702C36.8333 109.702 36.2213 109.942 35.7653 110.422C35.3213 110.89 35.0993 111.568 35.0993 112.456V118H33.0473V104.68H35.0993V109.234C35.4473 108.814 35.8853 108.49 36.4133 108.262C36.9533 108.034 37.5413 107.92 38.1773 107.92ZM53.8267 112.798C53.8267 113.17 53.8027 113.506 53.7547 113.806H46.1767C46.2367 114.598 46.5307 115.234 47.0587 115.714C47.5867 116.194 48.2347 116.434 49.0027 116.434C50.1067 116.434 50.8867 115.972 51.3427 115.048H53.5567C53.2567 115.96 52.7107 116.71 51.9187 117.298C51.1387 117.874 50.1667 118.162 49.0027 118.162C48.0547 118.162 47.2027 117.952 46.4467 117.532C45.7027 117.1 45.1147 116.5 44.6827 115.732C44.2627 114.952 44.0527 114.052 44.0527 113.032C44.0527 112.012 44.2567 111.118 44.6647 110.35C45.0847 109.57 45.6667 108.97 46.4107 108.55C47.1667 108.13 48.0307 107.92 49.0027 107.92C49.9387 107.92 50.7727 108.124 51.5047 108.532C52.2367 108.94 52.8067 109.516 53.2147 110.26C53.6227 110.992 53.8267 111.838 53.8267 112.798ZM51.6847 112.15C51.6727 111.394 51.4027 110.788 50.8747 110.332C50.3467 109.876 49.6927 109.648 48.9127 109.648C48.2047 109.648 47.5987 109.876 47.0947 110.332C46.5907 110.776 46.2907 111.382 46.1947 112.15H51.6847ZM64.8239 118.162C63.8879 118.162 63.0419 117.952 62.2859 117.532C61.5299 117.1 60.9359 116.5 60.5039 115.732C60.0719 114.952 59.8559 114.052 59.8559 113.032C59.8559 112.024 60.0779 111.13 60.5219 110.35C60.9659 109.57 61.5719 108.97 62.3399 108.55C63.1079 108.13 63.9659 107.92 64.9139 107.92C65.8619 107.92 66.7199 108.13 67.4879 108.55C68.2559 108.97 68.8619 109.57 69.3059 110.35C69.7499 111.13 69.9719 112.024 69.9719 113.032C69.9719 114.04 69.7439 114.934 69.2879 115.714C68.8319 116.494 68.2079 117.1 67.4159 117.532C66.6359 117.952 65.7719 118.162 64.8239 118.162ZM64.8239 116.38C65.3519 116.38 65.8439 116.254 66.2999 116.002C66.7679 115.75 67.1459 115.372 67.4339 114.868C67.7219 114.364 67.8659 113.752 67.8659 113.032C67.8659 112.312 67.7279 111.706 67.4519 111.214C67.1759 110.71 66.8099 110.332 66.3539 110.08C65.8979 109.828 65.4059 109.702 64.8779 109.702C64.3499 109.702 63.8579 109.828 63.4019 110.08C62.9579 110.332 62.6039 110.71 62.3399 111.214C62.0759 111.706 61.9439 112.312 61.9439 113.032C61.9439 114.1 62.2139 114.928 62.7539 115.516C63.3059 116.092 63.9959 116.38 64.8239 116.38ZM74.0524 109.54C74.4004 109.084 74.8744 108.7 75.4744 108.388C76.0744 108.076 76.7524 107.92 77.5084 107.92C78.3724 107.92 79.1584 108.136 79.8664 108.568C80.5864 108.988 81.1504 109.582 81.5584 110.35C81.9664 111.118 82.1704 112 82.1704 112.996C82.1704 113.992 81.9664 114.886 81.5584 115.678C81.1504 116.458 80.5864 117.07 79.8664 117.514C79.1584 117.946 78.3724 118.162 77.5084 118.162C76.7524 118.162 76.0804 118.012 75.4924 117.712C74.9044 117.4 74.4244 117.016 74.0524 116.56V122.716H72.0004V108.082H74.0524V109.54ZM80.0824 112.996C80.0824 112.312 79.9384 111.724 79.6504 111.232C79.3744 110.728 79.0024 110.35 78.5344 110.098C78.0784 109.834 77.5864 109.702 77.0584 109.702C76.5424 109.702 76.0504 109.834 75.5824 110.098C75.1264 110.362 74.7544 110.746 74.4664 111.25C74.1904 111.754 74.0524 112.348 74.0524 113.032C74.0524 113.716 74.1904 114.316 74.4664 114.832C74.7544 115.336 75.1264 115.72 75.5824 115.984C76.0504 116.248 76.5424 116.38 77.0584 116.38C77.5864 116.38 78.0784 116.248 78.5344 115.984C79.0024 115.708 79.3744 115.312 79.6504 114.796C79.9384 114.28 80.0824 113.68 80.0824 112.996ZM86.5936 109.756V115.246C86.5936 115.618 86.6776 115.888 86.8456 116.056C87.0256 116.212 87.3256 116.29 87.7456 116.29H89.0056V118H87.3856C86.4616 118 85.7536 117.784 85.2616 117.352C84.7696 116.92 84.5236 116.218 84.5236 115.246V109.756H83.3536V108.082H84.5236V105.616H86.5936V108.082H89.0056V109.756H86.5936ZM91.9409 106.768C91.5689 106.768 91.2569 106.642 91.0049 106.39C90.7529 106.138 90.6269 105.826 90.6269 105.454C90.6269 105.082 90.7529 104.77 91.0049 104.518C91.2569 104.266 91.5689 104.14 91.9409 104.14C92.3009 104.14 92.6069 104.266 92.8589 104.518C93.1109 104.77 93.2369 105.082 93.2369 105.454C93.2369 105.826 93.1109 106.138 92.8589 106.39C92.6069 106.642 92.3009 106.768 91.9409 106.768ZM92.9489 108.082V118H90.8969V108.082H92.9489ZM107.649 107.92C108.429 107.92 109.125 108.082 109.737 108.406C110.361 108.73 110.847 109.21 111.195 109.846C111.555 110.482 111.735 111.25 111.735 112.15V118H109.701V112.456C109.701 111.568 109.479 110.89 109.035 110.422C108.591 109.942 107.985 109.702 107.217 109.702C106.449 109.702 105.837 109.942 105.381 110.422C104.937 110.89 104.715 111.568 104.715 112.456V118H102.681V112.456C102.681 111.568 102.459 110.89 102.015 110.422C101.571 109.942 100.965 109.702 100.197 109.702C99.429 109.702 98.817 109.942 98.361 110.422C97.917 110.89 97.695 111.568 97.695 112.456V118H95.643V108.082H97.695V109.216C98.031 108.808 98.457 108.49 98.973 108.262C99.489 108.034 100.041 107.92 100.629 107.92C101.421 107.92 102.129 108.088 102.753 108.424C103.377 108.76 103.857 109.246 104.193 109.882C104.493 109.282 104.961 108.808 105.597 108.46C106.233 108.1 106.917 107.92 107.649 107.92ZM113.662 112.996C113.662 112 113.866 111.118 114.274 110.35C114.694 109.582 115.258 108.988 115.966 108.568C116.686 108.136 117.478 107.92 118.342 107.92C119.122 107.92 119.8 108.076 120.376 108.388C120.964 108.688 121.432 109.066 121.78 109.522V108.082H123.85V118H121.78V116.524C121.432 116.992 120.958 117.382 120.358 117.694C119.758 118.006 119.074 118.162 118.306 118.162C117.454 118.162 116.674 117.946 115.966 117.514C115.258 117.07 114.694 116.458 114.274 115.678C113.866 114.886 113.662 113.992 113.662 112.996ZM121.78 113.032C121.78 112.348 121.636 111.754 121.348 111.25C121.072 110.746 120.706 110.362 120.25 110.098C119.794 109.834 119.302 109.702 118.774 109.702C118.246 109.702 117.754 109.834 117.298 110.098C116.842 110.35 116.47 110.728 116.182 111.232C115.906 111.724 115.768 112.312 115.768 112.996C115.768 113.68 115.906 114.28 116.182 114.796C116.47 115.312 116.842 115.708 117.298 115.984C117.766 116.248 118.258 116.38 118.774 116.38C119.302 116.38 119.794 116.248 120.25 115.984C120.706 115.72 121.072 115.336 121.348 114.832C121.636 114.316 121.78 113.716 121.78 113.032ZM128.597 104.68V118H126.545V104.68H128.597ZM138.361 109.756V115.246C138.361 115.618 138.445 115.888 138.613 116.056C138.793 116.212 139.093 116.29 139.513 116.29H140.773V118H139.153C138.229 118 137.521 117.784 137.029 117.352C136.537 116.92 136.291 116.218 136.291 115.246V109.756H135.121V108.082H136.291V105.616H138.361V108.082H140.773V109.756H138.361ZM151.754 112.798C151.754 113.17 151.73 113.506 151.682 113.806H144.104C144.164 114.598 144.458 115.234 144.986 115.714C145.514 116.194 146.162 116.434 146.93 116.434C148.034 116.434 148.814 115.972 149.27 115.048H151.484C151.184 115.96 150.638 116.71 149.846 117.298C149.066 117.874 148.094 118.162 146.93 118.162C145.982 118.162 145.13 117.952 144.374 117.532C143.63 117.1 143.042 116.5 142.61 115.732C142.19 114.952 141.98 114.052 141.98 113.032C141.98 112.012 142.184 111.118 142.592 110.35C143.012 109.57 143.594 108.97 144.338 108.55C145.094 108.13 145.958 107.92 146.93 107.92C147.866 107.92 148.7 108.124 149.432 108.532C150.164 108.94 150.734 109.516 151.142 110.26C151.55 110.992 151.754 111.838 151.754 112.798ZM149.612 112.15C149.6 111.394 149.33 110.788 148.802 110.332C148.274 109.876 147.62 109.648 146.84 109.648C146.132 109.648 145.526 109.876 145.022 110.332C144.518 110.776 144.218 111.382 144.122 112.15H149.612ZM153.09 112.996C153.09 112 153.294 111.118 153.702 110.35C154.122 109.582 154.686 108.988 155.394 108.568C156.114 108.136 156.906 107.92 157.77 107.92C158.55 107.92 159.228 108.076 159.804 108.388C160.392 108.688 160.86 109.066 161.208 109.522V108.082H163.278V118H161.208V116.524C160.86 116.992 160.386 117.382 159.786 117.694C159.186 118.006 158.502 118.162 157.734 118.162C156.882 118.162 156.102 117.946 155.394 117.514C154.686 117.07 154.122 116.458 153.702 115.678C153.294 114.886 153.09 113.992 153.09 112.996ZM161.208 113.032C161.208 112.348 161.064 111.754 160.776 111.25C160.5 110.746 160.134 110.362 159.678 110.098C159.222 109.834 158.73 109.702 158.202 109.702C157.674 109.702 157.182 109.834 156.726 110.098C156.27 110.35 155.898 110.728 155.61 111.232C155.334 111.724 155.196 112.312 155.196 112.996C155.196 113.68 155.334 114.28 155.61 114.796C155.898 115.312 156.27 115.708 156.726 115.984C157.194 116.248 157.686 116.38 158.202 116.38C158.73 116.38 159.222 116.248 159.678 115.984C160.134 115.72 160.5 115.336 160.776 114.832C161.064 114.316 161.208 113.716 161.208 113.032ZM177.979 107.92C178.759 107.92 179.455 108.082 180.067 108.406C180.691 108.73 181.177 109.21 181.525 109.846C181.885 110.482 182.065 111.25 182.065 112.15V118H180.031V112.456C180.031 111.568 179.809 110.89 179.365 110.422C178.921 109.942 178.315 109.702 177.547 109.702C176.779 109.702 176.167 109.942 175.711 110.422C175.267 110.89 175.045 111.568 175.045 112.456V118H173.011V112.456C173.011 111.568 172.789 110.89 172.345 110.422C171.901 109.942 171.295 109.702 170.527 109.702C169.759 109.702 169.147 109.942 168.691 110.422C168.247 110.89 168.025 111.568 168.025 112.456V118H165.973V108.082H168.025V109.216C168.361 108.808 168.787 108.49 169.303 108.262C169.819 108.034 170.371 107.92 170.959 107.92C171.751 107.92 172.459 108.088 173.083 108.424C173.707 108.76 174.187 109.246 174.523 109.882C174.823 109.282 175.291 108.808 175.927 108.46C176.563 108.1 177.247 107.92 177.979 107.92ZM193.51 109.756H191.674V118H189.604V109.756H188.434V108.082H189.604V107.38C189.604 106.24 189.904 105.412 190.504 104.896C191.116 104.368 192.07 104.104 193.366 104.104V105.814C192.742 105.814 192.304 105.934 192.052 106.174C191.8 106.402 191.674 106.804 191.674 107.38V108.082H193.51V109.756ZM199.631 118.162C198.695 118.162 197.849 117.952 197.093 117.532C196.337 117.1 195.743 116.5 195.311 115.732C194.879 114.952 194.663 114.052 194.663 113.032C194.663 112.024 194.885 111.13 195.329 110.35C195.773 109.57 196.379 108.97 197.147 108.55C197.915 108.13 198.773 107.92 199.721 107.92C200.669 107.92 201.527 108.13 202.295 108.55C203.063 108.97 203.669 109.57 204.113 110.35C204.557 111.13 204.779 112.024 204.779 113.032C204.779 114.04 204.551 114.934 204.095 115.714C203.639 116.494 203.015 117.1 202.223 117.532C201.443 117.952 200.579 118.162 199.631 118.162ZM199.631 116.38C200.159 116.38 200.651 116.254 201.107 116.002C201.575 115.75 201.953 115.372 202.241 114.868C202.529 114.364 202.673 113.752 202.673 113.032C202.673 112.312 202.535 111.706 202.259 111.214C201.983 110.71 201.617 110.332 201.161 110.08C200.705 109.828 200.213 109.702 199.685 109.702C199.157 109.702 198.665 109.828 198.209 110.08C197.765 110.332 197.411 110.71 197.147 111.214C196.883 111.706 196.751 112.312 196.751 113.032C196.751 114.1 197.021 114.928 197.561 115.516C198.113 116.092 198.803 116.38 199.631 116.38ZM208.859 109.522C209.159 109.018 209.555 108.628 210.047 108.352C210.551 108.064 211.145 107.92 211.829 107.92V110.044H211.307C210.503 110.044 209.891 110.248 209.471 110.656C209.063 111.064 208.859 111.772 208.859 112.78V118H206.807V108.082H208.859V109.522ZM227.319 108.082L221.235 122.662H219.111L221.127 117.838L217.221 108.082H219.507L222.297 115.642L225.195 108.082H227.319ZM233.17 118.162C232.234 118.162 231.388 117.952 230.632 117.532C229.876 117.1 229.282 116.5 228.85 115.732C228.418 114.952 228.202 114.052 228.202 113.032C228.202 112.024 228.424 111.13 228.868 110.35C229.312 109.57 229.918 108.97 230.686 108.55C231.454 108.13 232.312 107.92 233.26 107.92C234.208 107.92 235.066 108.13 235.834 108.55C236.602 108.97 237.208 109.57 237.652 110.35C238.096 111.13 238.318 112.024 238.318 113.032C238.318 114.04 238.09 114.934 237.634 115.714C237.178 116.494 236.554 117.1 235.762 117.532C234.982 117.952 234.118 118.162 233.17 118.162ZM233.17 116.38C233.698 116.38 234.19 116.254 234.646 116.002C235.114 115.75 235.492 115.372 235.78 114.868C236.068 114.364 236.212 113.752 236.212 113.032C236.212 112.312 236.074 111.706 235.798 111.214C235.522 110.71 235.156 110.332 234.7 110.08C234.244 109.828 233.752 109.702 233.224 109.702C232.696 109.702 232.204 109.828 231.748 110.08C231.304 110.332 230.95 110.71 230.686 111.214C230.422 111.706 230.29 112.312 230.29 113.032C230.29 114.1 230.56 114.928 231.1 115.516C231.652 116.092 232.342 116.38 233.17 116.38ZM249.328 108.082V118H247.276V116.83C246.952 117.238 246.526 117.562 245.998 117.802C245.482 118.03 244.93 118.144 244.342 118.144C243.562 118.144 242.86 117.982 242.236 117.658C241.624 117.334 241.138 116.854 240.778 116.218C240.43 115.582 240.256 114.814 240.256 113.914V108.082H242.29V113.608C242.29 114.496 242.512 115.18 242.956 115.66C243.4 116.128 244.006 116.362 244.774 116.362C245.542 116.362 246.148 116.128 246.592 115.66C247.048 115.18 247.276 114.496 247.276 113.608V108.082H249.328ZM254.088 109.522C254.388 109.018 254.784 108.628 255.276 108.352C255.78 108.064 256.374 107.92 257.058 107.92V110.044H256.536C255.732 110.044 255.12 110.248 254.7 110.656C254.292 111.064 254.088 111.772 254.088 112.78V118H252.036V108.082H254.088V109.522ZM265.672 109.54C266.02 109.084 266.494 108.7 267.094 108.388C267.694 108.076 268.372 107.92 269.128 107.92C269.992 107.92 270.778 108.136 271.486 108.568C272.206 108.988 272.77 109.582 273.178 110.35C273.586 111.118 273.79 112 273.79 112.996C273.79 113.992 273.586 114.886 273.178 115.678C272.77 116.458 272.206 117.07 271.486 117.514C270.778 117.946 269.992 118.162 269.128 118.162C268.372 118.162 267.7 118.012 267.112 117.712C266.524 117.4 266.044 117.016 265.672 116.56V122.716H263.62V108.082H265.672V109.54ZM271.702 112.996C271.702 112.312 271.558 111.724 271.27 111.232C270.994 110.728 270.622 110.35 270.154 110.098C269.698 109.834 269.206 109.702 268.678 109.702C268.162 109.702 267.67 109.834 267.202 110.098C266.746 110.362 266.374 110.746 266.086 111.25C265.81 111.754 265.672 112.348 265.672 113.032C265.672 113.716 265.81 114.316 266.086 114.832C266.374 115.336 266.746 115.72 267.202 115.984C267.67 116.248 268.162 116.38 268.678 116.38C269.206 116.38 269.698 116.248 270.154 115.984C270.622 115.708 270.994 115.312 271.27 114.796C271.558 114.28 271.702 113.68 271.702 112.996ZM277.871 109.522C278.171 109.018 278.567 108.628 279.059 108.352C279.563 108.064 280.157 107.92 280.841 107.92V110.044H280.319C279.515 110.044 278.903 110.248 278.483 110.656C278.075 111.064 277.871 111.772 277.871 112.78V118H275.819V108.082H277.871V109.522ZM287.029 118.162C286.093 118.162 285.247 117.952 284.491 117.532C283.735 117.1 283.141 116.5 282.709 115.732C282.277 114.952 282.061 114.052 282.061 113.032C282.061 112.024 282.283 111.13 282.727 110.35C283.171 109.57 283.777 108.97 284.545 108.55C285.313 108.13 286.171 107.92 287.119 107.92C288.067 107.92 288.925 108.13 289.693 108.55C290.461 108.97 291.067 109.57 291.511 110.35C291.955 111.13 292.177 112.024 292.177 113.032C292.177 114.04 291.949 114.934 291.493 115.714C291.037 116.494 290.413 117.1 289.621 117.532C288.841 117.952 287.977 118.162 287.029 118.162ZM287.029 116.38C287.557 116.38 288.049 116.254 288.505 116.002C288.973 115.75 289.351 115.372 289.639 114.868C289.927 114.364 290.071 113.752 290.071 113.032C290.071 112.312 289.933 111.706 289.657 111.214C289.381 110.71 289.015 110.332 288.559 110.08C288.103 109.828 287.611 109.702 287.083 109.702C286.555 109.702 286.063 109.828 285.607 110.08C285.163 110.332 284.809 110.71 284.545 111.214C284.281 111.706 284.149 112.312 284.149 113.032C284.149 114.1 284.419 114.928 284.959 115.516C285.511 116.092 286.201 116.38 287.029 116.38ZM295.249 106.768C294.877 106.768 294.565 106.642 294.313 106.39C294.061 106.138 293.935 105.826 293.935 105.454C293.935 105.082 294.061 104.77 294.313 104.518C294.565 104.266 294.877 104.14 295.249 104.14C295.609 104.14 295.915 104.266 296.167 104.518C296.419 104.77 296.545 105.082 296.545 105.454C296.545 105.826 296.419 106.138 296.167 106.39C295.915 106.642 295.609 106.768 295.249 106.768ZM296.257 119.944C296.257 120.916 296.011 121.618 295.519 122.05C295.039 122.494 294.337 122.716 293.413 122.716H292.351V120.988H293.053C293.473 120.988 293.767 120.904 293.935 120.736C294.115 120.58 294.205 120.316 294.205 119.944V108.082H296.257V119.944ZM308.042 112.798C308.042 113.17 308.018 113.506 307.97 113.806H300.392C300.452 114.598 300.746 115.234 301.274 115.714C301.802 116.194 302.45 116.434 303.218 116.434C304.322 116.434 305.102 115.972 305.558 115.048H307.772C307.472 115.96 306.926 116.71 306.134 117.298C305.354 117.874 304.382 118.162 303.218 118.162C302.27 118.162 301.418 117.952 300.662 117.532C299.918 117.1 299.33 116.5 298.898 115.732C298.478 114.952 298.268 114.052 298.268 113.032C298.268 112.012 298.472 111.118 298.88 110.35C299.3 109.57 299.882 108.97 300.626 108.55C301.382 108.13 302.246 107.92 303.218 107.92C304.154 107.92 304.988 108.124 305.72 108.532C306.452 108.94 307.022 109.516 307.43 110.26C307.838 110.992 308.042 111.838 308.042 112.798ZM305.9 112.15C305.888 111.394 305.618 110.788 305.09 110.332C304.562 109.876 303.908 109.648 303.128 109.648C302.42 109.648 301.814 109.876 301.31 110.332C300.806 110.776 300.506 111.382 300.41 112.15H305.9ZM309.377 113.032C309.377 112.012 309.581 111.118 309.989 110.35C310.409 109.57 310.985 108.97 311.717 108.55C312.449 108.13 313.289 107.92 314.237 107.92C315.437 107.92 316.427 108.208 317.207 108.784C317.999 109.348 318.533 110.158 318.809 111.214H316.595C316.415 110.722 316.127 110.338 315.731 110.062C315.335 109.786 314.837 109.648 314.237 109.648C313.397 109.648 312.725 109.948 312.221 110.548C311.729 111.136 311.483 111.964 311.483 113.032C311.483 114.1 311.729 114.934 312.221 115.534C312.725 116.134 313.397 116.434 314.237 116.434C315.425 116.434 316.211 115.912 316.595 114.868H318.809C318.521 115.876 317.981 116.68 317.189 117.28C316.397 117.868 315.413 118.162 314.237 118.162C313.289 118.162 312.449 117.952 311.717 117.532C310.985 117.1 310.409 116.5 309.989 115.732C309.581 114.952 309.377 114.052 309.377 113.032ZM323.248 109.756V115.246C323.248 115.618 323.332 115.888 323.5 116.056C323.68 116.212 323.98 116.29 324.4 116.29H325.66V118H324.04C323.116 118 322.408 117.784 321.916 117.352C321.424 116.92 321.178 116.218 321.178 115.246V109.756H320.008V108.082H321.178V105.616H323.248V108.082H325.66V109.756H323.248Z" fill="#A3A5AE"/>
<path d="M358 165.454V207.242H294V165.454L297.75 161.667H354.25L358 165.454Z" fill="#EFEFF4"/>
<path d="M358 165.454V207.242H326V161.667H354.25L358 165.454Z" fill="#DADAE5"/>
<path d="M294 151H358V166.515H294V151Z" fill="#474F54"/>
<path d="M326 151H358V166.515H326V151Z" fill="#32393F"/>
<path d="M301.758 156.818H305.443V160.697H301.758V156.818ZM309.128 156.818H312.813V160.697H309.128V156.818ZM316.497 156.818H320.182V160.697H316.497V156.818Z" fill="#FF637B"/>
<path d="M339.576 193.245V215H328.355V211.29H324.615V215H313.394V193.245L324.764 183.97H327.869L339.576 193.245Z" fill="#FF637B"/>
<path d="M305.636 173.303H347.333V177.182H305.636V173.303Z" fill="#DADAE5"/>
<path d="M326 173.303H346.364V177.182H326V173.303Z" fill="#C9C9D3"/>
<path d="M339.576 193.245V215H327.939V211.29H326V183.97H327.435L339.576 193.245Z" fill="#E63950"/>
<path d="M324.061 196.576H327.939V200.455H324.061V196.576Z" fill="#EFEFF4"/>
<path d="M326 196.576H327.939V200.455H326V196.576Z" fill="#DADAE5"/>
<path d="M344.424 196.779L341.972 199.485L326.485 185.959L310.997 199.485L308.545 196.779L326.485 181.061L344.424 196.779Z" fill="#676E74"/>
<path d="M326 181.061L344.424 196.779L341.906 199.485L326 185.959V181.061Z" fill="#474F54"/>
<defs>
<filter id="filter0_dd" x="0" y="5" width="383" height="234" filterUnits="userSpaceOnUse" color-interpolation-filters="sRGB">
<feFlood flood-opacity="0" result="BackgroundImageFix"/>
<feColorMatrix in="SourceAlpha" type="matrix" values="0 0 0 0 0 0 0 0 0 0 0 0 0 0 0 0 0 0 127 0"/>
<feOffset dx="4" dy="4"/>
<feGaussianBlur stdDeviation="2"/>
<feColorMatrix type="matrix" values="0 0 0 0 0 0 0 0 0 0 0 0 0 0 0 0 0 0 0.25 0"/>
<feBlend mode="normal" in2="BackgroundImageFix" result="effect1_dropShadow"/>
<feColorMatrix in="SourceAlpha" type="matrix" values="0 0 0 0 0 0 0 0 0 0 0 0 0 0 0 0 0 0 127 0"/>
<feOffset dx="-4" dy="4"/>
<feGaussianBlur stdDeviation="2"/>
<feColorMatrix type="matrix" values="0 0 0 0 0 0 0 0 0 0 0 0 0 0 0 0 0 0 0.25 0"/>
<feBlend mode="normal" in2="effect1_dropShadow" result="effect2_dropShadow"/>
<feBlend mode="normal" in="SourceGraphic" in2="effect2_dropShadow" result="shape"/>
</filter>
</defs>
</svg>
